<?xml version="1.0" encoding="UTF-8"?>
<svg version="1.1" xmlns="http://www.w3.org/2000/svg" width="512" height="512">
<path d="M0 0 C1.19882812 0.24363281 1.19882812 0.24363281 2.421875 0.4921875 C2.421875 1.1521875 2.421875 1.8121875 2.421875 2.4921875 C3.00654541 2.76297119 3.59121582 3.03375488 4.19360352 3.31274414 C6.40849664 4.48510622 8.15068076 5.76368611 10.07421875 7.36328125 C10.76185303 7.93224121 11.4494873 8.50120117 12.15795898 9.08740234 C13.24765991 9.9993335 13.24765991 9.9993335 14.359375 10.9296875 C15.11355713 11.55568848 15.86773926 12.18168945 16.64477539 12.82666016 C21.77724357 17.09439837 26.87536934 21.40224603 31.95874023 25.72827148 C35.85241098 29.03431074 39.82481176 32.22698156 43.828125 35.3984375 C47.47588933 38.34301834 51.0364148 41.38670283 54.60546875 44.42578125 C57.83611812 47.16993283 61.09885554 49.85966559 64.421875 52.4921875 C68.3232948 55.58292267 72.13278852 58.76597256 75.921875 61.9921875 C80.41190043 65.81311364 84.95538463 69.5459114 89.57421875 73.2109375 C98.53594065 80.39014955 107.37651122 87.72414374 116.109375 95.1796875 C120.44204258 98.87705868 124.86058448 102.43664818 129.359375 105.9296875 C134.84106129 110.18653093 140.14021062 114.61676481 145.38916016 119.15649414 C149.6688052 122.8566913 154.01146096 126.46716218 158.40234375 130.03515625 C162.12974023 133.0681865 165.83869729 136.12321209 169.546875 139.1796875 C173.9740779 142.82855718 178.4017239 146.47683799 182.8359375 150.1171875 C189.29966518 155.42670397 195.74761046 160.74822242 202.109375 166.1796875 C206.44203242 169.87706776 210.86058568 173.43664911 215.359375 176.9296875 C220.83651783 181.18300267 226.13197114 185.60881987 231.37597656 190.14550781 C236.64109944 194.69872675 242.01386809 199.10969894 247.421875 203.4921875 C253.48646524 208.42022203 259.51487662 213.38697567 265.484375 218.4296875 C266.04495605 218.9026123 266.60553711 219.37553711 267.18310547 219.86279297 C269.33163659 221.68332426 271.42962275 223.49993525 273.421875 225.4921875 C273.421875 226.8121875 273.421875 228.1321875 273.421875 229.4921875 C268.38618619 227.93605334 264.94619624 224.88491405 260.984375 221.5546875 C259.54898941 220.36750674 258.11277714 219.18132486 256.67578125 217.99609375 C255.95922363 217.40328613 255.24266602 216.81047852 254.50439453 216.19970703 C251.51457945 213.74826897 248.4729528 211.36661853 245.421875 208.9921875 C240.34876058 205.03385187 235.34202482 201.00122421 230.359375 196.9296875 C224.56827658 192.19955368 218.69674756 187.60751523 212.75 183.07421875 C208.99483045 180.18571348 205.33601772 177.18223037 201.671875 174.1796875 C196.19131515 169.69067848 190.63414643 165.32855736 184.984375 161.0546875 C178.38363068 156.05701352 171.96191678 150.87760865 165.59277344 145.58886719 C158.96827464 140.09350945 152.21308532 134.77902818 145.421875 129.4921875 C137.3407679 123.18887766 129.32968386 116.81089478 121.38769531 110.33300781 C114.79887927 104.96705564 108.12002364 99.72057095 101.421875 94.4921875 C94.0917527 88.77050346 86.80592912 83.00639544 79.609375 77.1171875 C74.1488796 72.65059081 68.60973791 68.31150933 62.984375 64.0546875 C56.38534317 59.05812637 49.96581709 53.87937144 43.59716797 48.59326172 C36.97006648 43.09757909 30.2376756 37.75148056 23.421875 32.4921875 C22.87096191 32.06502441 22.32004883 31.63786133 21.75244141 31.19775391 C20.14713088 29.95623166 18.53460749 28.72405327 16.921875 27.4921875 C16.0040625 26.7909375 15.08625 26.0896875 14.140625 25.3671875 C8.91520567 21.60392548 8.91520567 21.60392548 2.765625 20.64453125 C-6.51940076 24.00261557 -12.89305635 34.82894302 -18.80761719 42.27783203 C-21.77346978 45.98719262 -24.80206845 49.64441276 -27.828125 53.3046875 C-29.01061597 54.73811686 -30.1929135 56.17170583 -31.375 57.60546875 C-31.92736328 58.27529785 -32.47972656 58.94512695 -33.04882812 59.63525391 C-35.06449363 62.0827558 -37.07215685 64.53673389 -39.078125 66.9921875 C-45.83678171 75.26248462 -52.63824538 83.49766832 -59.43066406 91.74023438 C-71.11504737 105.91926714 -71.11504737 105.91926714 -82.73828125 120.1484375 C-86.82217224 125.16146771 -90.95216966 130.12908128 -95.140625 135.0546875 C-98.95882848 139.54826841 -102.6967117 144.0921096 -106.36328125 148.7109375 C-113.62125617 157.8250083 -120.9876008 166.84293813 -128.55615234 175.70068359 C-131.81246158 179.53337256 -134.93230663 183.45700332 -138.015625 187.4296875 C-142.28962777 192.93567636 -146.74350505 198.25262079 -151.30615234 203.52099609 C-154.81596952 207.57975829 -158.19342393 211.72236848 -161.51953125 215.93359375 C-163.98624354 218.99943161 -166.52692222 221.99661805 -169.078125 224.9921875 C-173.00880475 229.61031663 -176.85195503 234.28343147 -180.62109375 239.03515625 C-184.22517631 243.56004233 -187.90918366 248.01987452 -191.578125 252.4921875 C-193.70900585 255.09971275 -195.83942729 257.70760839 -197.96875 260.31640625 C-200.02777222 262.83069381 -202.10612744 265.32840882 -204.1875 267.82421875 C-204.81889893 268.58395996 -205.45029785 269.34370117 -206.10083008 270.12646484 C-207.35790915 271.63855001 -208.61806911 273.14808022 -209.8815918 274.65478516 C-210.75037964 275.70158447 -210.75037964 275.70158447 -211.63671875 276.76953125 C-212.15548584 277.39077881 -212.67425293 278.01202637 -213.20874023 278.65209961 C-214.59880319 280.51997347 -215.60367365 282.38209079 -216.578125 284.4921875 C-211.27752276 289.40319035 -205.97664236 294.23186762 -200.328125 298.7421875 C-195.01241342 303.02513226 -190.08336153 307.64949789 -185.12817383 312.33666992 C-180.7107593 316.49360912 -176.13946018 320.35878926 -171.3984375 324.14453125 C-166.68404858 328.0688356 -162.25906784 332.30245612 -157.78515625 336.49609375 C-153.12621181 340.86209043 -148.30741697 345.02394583 -143.44140625 349.15625 C-137.48478947 354.22425536 -131.6033095 359.33694449 -125.890625 364.6796875 C-121.13550521 369.12501816 -116.23229739 373.30617752 -111.16015625 377.390625 C-100.56158696 386.01699456 -100.56158696 386.01699456 -97.578125 390.4921875 C-97.578125 391.4821875 -97.578125 392.4721875 -97.578125 393.4921875 C-99.671875 394.2890625 -99.671875 394.2890625 -102.578125 394.4921875 C-104.98534575 392.99679279 -106.94261644 391.56203298 -109.078125 389.7421875 C-109.99561523 388.99098633 -109.99561523 388.99098633 -110.93164062 388.22460938 C-112.82845581 386.66379029 -114.70541483 385.08181357 -116.578125 383.4921875 C-117.13628906 383.02103516 -117.69445312 382.54988281 -118.26953125 382.06445312 C-120.41168765 380.25523429 -122.55116723 378.4430862 -124.68164062 376.62011719 C-128.56804426 373.30469063 -132.54461713 370.12639229 -136.578125 366.9921875 C-141.72689799 362.99137493 -146.7316391 358.85827761 -151.68359375 354.6171875 C-155.5706191 351.30427486 -159.5455024 348.1257044 -163.578125 344.9921875 C-168.72689799 340.99137493 -173.7316391 336.85827761 -178.68359375 332.6171875 C-182.5706191 329.30427486 -186.5455024 326.1257044 -190.578125 322.9921875 C-195.72559418 318.99238805 -200.73083444 314.8622416 -205.67919922 310.61938477 C-209.60166165 307.27333515 -213.62620771 304.08480896 -217.703125 300.9296875 C-237.60560454 285.42545451 -237.60560454 285.42545451 -239.00390625 276.89453125 C-238.42708797 273.64000609 -237.08135741 272.39475335 -234.765625 270.0546875 C-231.03450092 266.1198359 -227.62432919 262.09892405 -224.328125 257.8046875 C-219.83572545 251.99127534 -215.11772567 246.41919859 -210.27880859 240.89233398 C-206.35921378 236.41137843 -202.55842763 231.85038071 -198.8125 227.22265625 C-196.31653874 224.17252177 -193.76272629 221.17633758 -191.203125 218.1796875 C-187.42009054 213.74377027 -183.77279284 209.22617488 -180.203125 204.6171875 C-175.74760829 198.87191595 -171.06669095 193.36123309 -166.27832031 187.89160156 C-162.35870856 183.41104359 -158.55824379 178.8501536 -154.8125 174.22265625 C-152.31653874 171.17252177 -149.76272629 168.17633758 -147.203125 165.1796875 C-143.42009054 160.74377027 -139.77279284 156.22617488 -136.203125 151.6171875 C-131.74760829 145.87191595 -127.06669095 140.36123309 -122.27832031 134.89160156 C-118.36180543 130.41458365 -114.56485433 125.85675813 -110.8203125 121.234375 C-108.27558817 118.12218602 -105.68194275 115.05492253 -103.078125 111.9921875 C-98.95394998 107.13912825 -94.90146696 102.23405457 -90.8828125 97.29296875 C-88.35779425 94.22442963 -85.78327731 91.20178938 -83.203125 88.1796875 C-79.42020008 83.74367147 -75.77279763 79.22618107 -72.203125 74.6171875 C-67.74760829 68.87191595 -63.06669095 63.36123309 -58.27832031 57.89160156 C-54.35870856 53.41104359 -50.55824379 48.8501536 -46.8125 44.22265625 C-44.31653777 41.17252059 -41.7626891 38.17637051 -39.203125 35.1796875 C-35.88213329 31.28465436 -32.64082652 27.3444941 -29.5 23.30249023 C-28.13972861 21.55353498 -26.76405618 19.81756395 -25.38671875 18.08203125 C-23.41871162 15.59601874 -21.53654589 13.06311586 -19.67578125 10.49609375 C-13.85891588 2.76040082 -10.41195443 -1.19761917 0 0 Z M8.25 32.6015625 C11.30782625 33.85549125 13.57453839 35.69859778 16.171875 37.7421875 C16.73479248 38.18328857 17.29770996 38.62438965 17.87768555 39.07885742 C25.13303834 44.79072865 32.27381818 50.64717071 39.421875 56.4921875 C42.12851753 58.70260146 44.83681807 60.91096105 47.546875 63.1171875 C48.21251465 63.65907715 48.8781543 64.2009668 49.56396484 64.75927734 C53.79470886 68.19462077 58.06211877 71.5780739 62.359375 74.9296875 C69.04573983 80.14803398 75.58418936 85.53776203 82.12109375 90.94140625 C91.19698932 98.44280717 100.32192589 105.87895408 109.609375 113.1171875 C114.69451511 117.08040561 119.63632006 121.18111325 124.53466797 125.37207031 C128.92663236 129.11312782 133.43425784 132.68567363 137.98486328 136.23095703 C144.53036754 141.33749361 150.95777872 146.58653059 157.38964844 151.83496094 C160.72984924 154.55880561 164.07610792 157.27518541 167.421875 159.9921875 C171.49327336 163.29944804 175.56402425 166.60749739 179.6328125 169.91796875 C185.98593204 175.0858048 192.34555754 180.24344456 198.75 185.34765625 C201.54476736 187.59082479 204.32362556 189.8526998 207.10131836 192.11694336 C212.81437549 196.77374844 218.5462847 201.39823001 224.359375 205.9296875 C230.3012838 210.56675652 236.13017095 215.33196672 241.93603516 220.13793945 C245.58167122 223.1552321 249.23640874 226.15939868 252.91796875 229.1328125 C254.00489014 230.01090576 254.00489014 230.01090576 255.11376953 230.90673828 C256.48951248 232.01639233 257.86670677 233.12425034 259.24560547 234.22998047 C260.98550006 235.6342563 262.70623732 237.05846212 264.421875 238.4921875 C265.25074219 239.17023438 266.07960938 239.84828125 266.93359375 240.546875 C268.421875 242.4921875 268.421875 242.4921875 268.390625 244.953125 C267.28143764 247.86026929 265.92676442 249.73837029 263.921875 252.1171875 C263.19871094 252.98730469 262.47554688 253.85742188 261.73046875 254.75390625 C260.96863281 255.65753906 260.20679688 256.56117188 259.421875 257.4921875 C257.94043819 259.30283249 256.46128412 261.11534747 254.984375 262.9296875 C253.46369801 264.7839824 251.94286686 266.63815087 250.421875 268.4921875 C249.02590735 270.20041108 247.63007602 271.90874607 246.234375 273.6171875 C243.54233982 276.91058481 240.84141851 280.19610259 238.12890625 283.47265625 C232.60601664 290.149355 227.11116452 296.83523236 221.796875 303.6796875 C217.65544049 309.01100611 213.32718816 314.14589764 208.90185547 319.24291992 C205.4519633 323.23621191 202.15310267 327.32053224 198.921875 331.4921875 C194.66844901 336.98276382 190.23176144 342.27897183 185.68701172 347.5300293 C182.24658074 351.51071633 178.92331902 355.56347157 175.66015625 359.69140625 C172.72378828 363.36570963 169.72923533 366.99050694 166.734375 370.6171875 C162.00334775 376.3489723 157.2918619 382.09566976 152.609375 387.8671875 C152.06635742 388.53645264 151.52333984 389.20571777 150.96386719 389.89526367 C149.92153918 391.18000466 148.87922102 392.46475365 147.83691406 393.74951172 C141.45834474 401.60496855 135.02017354 409.41150851 128.58544922 417.22094727 C123.85131857 422.96751676 119.13175518 428.72571823 114.421875 434.4921875 C109.10303623 441.00422585 103.76867404 447.50309837 98.421875 453.9921875 C91.9894239 461.79985816 85.56385998 469.61269327 79.1953125 477.47265625 C78.62369385 478.17769287 78.0520752 478.88272949 77.46313477 479.60913086 C76.34552367 480.98811237 75.22876514 482.36778548 74.11303711 483.74829102 C73.07186262 485.03304523 72.0268495 486.3146993 70.9777832 487.59301758 C69.9115128 488.89452667 68.85583828 490.20476817 67.80932617 491.5222168 C67.28959229 492.16070557 66.7698584 492.79919434 66.234375 493.45703125 C65.77289063 494.03316162 65.31140625 494.60929199 64.8359375 495.20288086 C63.421875 496.4921875 63.421875 496.4921875 60.109375 496.8046875 C50.39596989 493.34737382 42.46891624 485.77479511 34.421875 479.4921875 C32.96247529 478.35646788 31.5028281 477.22106623 30.04296875 476.0859375 C27.72405824 474.28272426 25.40531738 472.47929743 23.08740234 470.67480469 C16.02611024 465.17852854 8.93704308 459.71935171 1.83496094 454.27587891 C-6.08384529 448.20575574 -13.9531493 442.0763827 -21.79003906 435.90087891 C-24.22092783 433.98577402 -26.65301707 432.07221287 -29.08764648 430.16186523 C-30.27818233 429.22442909 -31.46527963 428.28260744 -32.64868164 427.33618164 C-35.1994332 425.30426411 -37.71327306 423.40490056 -40.45703125 421.6328125 C-46.16214185 417.88297455 -46.16214185 417.88297455 -47.2265625 414.32421875 C-47.34915645 411.2829457 -47.00948706 408.50829839 -46.578125 405.4921875 C-46.41299918 404.04308952 -46.24902217 402.59386036 -46.0859375 401.14453125 C-40.86215079 358.77621329 -40.86215079 358.77621329 -32.578125 350.4921875 C-26.49204013 350.76882772 -21.34145059 353.05690295 -15.72265625 355.28515625 C-4.16725564 359.72070754 7.83359335 359.73060641 20.046875 359.7421875 C20.78808594 359.74319458 21.52929688 359.74420166 22.29296875 359.74523926 C67.42212173 359.70425659 132.48798797 356.13035013 168.296875 324.9921875 C179.66185867 311.62161847 178.68528865 291.0303597 177.421875 274.4921875 C175.8407466 263.09207689 169.57643619 251.55886631 160.421875 244.4921875 C126.95055169 222.5714216 82.45928266 221.8519902 44.24511719 229.09423828 C16.51908022 234.90130752 -8.86385881 246.62669896 -31.578125 263.4921875 C-32.51527344 264.18441406 -33.45242187 264.87664062 -34.41796875 265.58984375 C-47.73610493 275.98399815 -59.58724521 288.19101211 -68.578125 302.4921875 C-69.99397145 304.53442305 -71.41062828 306.57609704 -72.828125 308.6171875 C-76.41256869 314.05030097 -79.10290797 319.48508183 -81.578125 325.4921875 C-82.18910993 326.86502625 -82.80117741 328.2373835 -83.4140625 329.609375 C-89.71250874 344.10803135 -93.19561734 359.11074641 -96.578125 374.4921875 C-100.25255661 373.09705823 -102.66238747 371.77232562 -105.515625 369.0546875 C-109.35205042 365.52466544 -113.32824254 362.29588839 -117.453125 359.1171875 C-123.79776803 354.20330794 -129.69346687 348.95179007 -135.578125 343.4921875 C-139.24605209 340.2107418 -142.97508161 337.00173039 -146.7265625 333.81640625 C-153.3083103 328.21993343 -159.77444418 322.5360839 -166.09765625 316.6484375 C-169.55181874 313.43249311 -173.05248092 310.28700795 -176.62109375 307.19921875 C-179.82284943 304.40646978 -182.9641265 301.54667538 -186.1171875 298.69921875 C-188.37826592 296.6714262 -190.65956212 294.67056829 -192.953125 292.6796875 C-193.90832031 291.83857422 -193.90832031 291.83857422 -194.8828125 290.98046875 C-196.26979316 289.76286591 -197.67188305 288.56249316 -199.078125 287.3671875 C-200.578125 285.4921875 -200.578125 285.4921875 -201.01171875 283.2890625 C-200.37427779 279.17728118 -197.86696071 276.82565613 -195.140625 273.8671875 C-194.0276015 272.61681425 -192.91563112 271.36550281 -191.8046875 270.11328125 C-190.97759277 269.19071533 -190.97759277 269.19071533 -190.13378906 268.24951172 C-188.02351722 265.86568612 -186.01578433 263.40624841 -184.015625 260.9296875 C-180.75033933 256.90860334 -177.4324471 252.93882307 -174.078125 248.9921875 C-169.17259292 243.21682601 -164.35783673 237.37226452 -159.578125 231.4921875 C-154.33894092 225.04686032 -149.04272925 218.65795838 -143.66455078 212.32861328 C-140.01975792 208.03246477 -136.45039636 203.678682 -132.89453125 199.30859375 C-130.30025234 196.15433558 -127.66206235 193.0401577 -125.015625 189.9296875 C-121.81073309 186.16129811 -118.65124806 182.36972722 -115.578125 178.4921875 C-112.04929097 174.03965049 -108.39583171 169.70532771 -104.71484375 165.37890625 C-101.79807987 161.94647141 -98.92119074 158.48625935 -96.078125 154.9921875 C-92.77188426 150.9288827 -89.40996071 146.91919441 -86.015625 142.9296875 C-82.81073309 139.16129811 -79.65124806 135.36972722 -76.578125 131.4921875 C-73.04929097 127.03965049 -69.39583171 122.70532771 -65.71484375 118.37890625 C-62.79807987 114.94647141 -59.92119074 111.48625935 -57.078125 107.9921875 C-53.77188426 103.9288827 -50.40996071 99.91919441 -47.015625 95.9296875 C-43.81073309 92.16129811 -40.65124806 88.36972722 -37.578125 84.4921875 C-34.04929097 80.03965049 -30.39583171 75.70532771 -26.71484375 71.37890625 C-23.05355362 67.0703162 -19.46951662 62.70332441 -15.90234375 58.31640625 C-12.80436658 54.55197349 -9.63596369 50.84921853 -6.47070312 47.14135742 C-3.40861924 43.53317287 -0.51644139 39.85253431 2.203125 35.98046875 C3.92612958 33.87641508 5.42788467 32.43271799 8.25 32.6015625 Z M83.046875 256.2421875 C84.95339844 256.23058594 84.95339844 256.23058594 86.8984375 256.21875 C98.25397704 256.24240737 107.29375708 257.42903196 115.6328125 265.6796875 C123.13017655 273.90784154 123.13017655 273.90784154 123.64453125 278.46484375 C122.67317171 291.13990112 112.45786727 300.51094524 103.421875 308.4921875 C93.45931439 316.8076474 81.17785673 322.65502641 68.796875 326.3671875 C68.16579834 326.55812988 67.53472168 326.74907227 66.88452148 326.94580078 C54.55806005 330.36921434 42.1176413 330.84074815 29.41723633 330.80786133 C26.85910911 330.80468717 24.30212723 330.82831017 21.74414062 330.85351562 C-2.51966479 330.95175678 -2.51966479 330.95175678 -10.578125 323.4921875 C-12.13775178 317.58551585 -8.94595693 311.75251274 -6.203125 306.6796875 C7.33969474 283.87578658 29.68024999 266.93456349 55.0234375 259.3515625 C56.14492188 259.06796875 57.26640625 258.784375 58.421875 258.4921875 C59.11812988 258.31268555 59.81438477 258.13318359 60.53173828 257.94824219 C68.02508926 256.21319937 75.38389793 256.19527131 83.046875 256.2421875 Z " fill="#FE0000" transform="translate(238.578125,7.5078125)"/>
</svg>
