<?xml version="1.0" encoding="UTF-8"?>
<svg version="1.1" xmlns="http://www.w3.org/2000/svg" width="1361" height="265">
<path d="M0 0 C5.9525724 0.56476019 9.98258238 5.14000634 14.25 8.9375 C16.01504308 10.38210371 17.78600223 11.81950616 19.5625 13.25 C23.68228111 16.62496193 27.75519905 20.05061214 31.8125 23.5 C36.28731151 27.30303702 40.8166863 31.01816313 45.41796875 34.66796875 C51.33000444 39.40575183 57.15232455 44.25435364 62.99462891 49.07763672 C65.21674748 50.91007873 67.44180351 52.73888335 69.66796875 54.56640625 C76.75335862 60.38535617 83.80808917 66.23377234 90.79003906 72.17651367 C94.68428585 75.48245191 98.65720814 78.67514146 102.66015625 81.84765625 C105.71082014 84.30935336 108.70143892 86.83564842 111.6875 89.375 C119.10961887 95.68548369 126.63664801 101.85880794 134.25 107.9375 C135.05179687 108.58074219 135.85359375 109.22398438 136.6796875 109.88671875 C138.5509615 111.37975652 140.43261197 112.85981697 142.3203125 114.33203125 C143.83238281 115.52892578 143.83238281 115.52892578 145.375 116.75 C146.30570312 117.47832031 147.23640625 118.20664063 148.1953125 118.95703125 C149.21238281 119.93736328 149.21238281 119.93736328 150.25 120.9375 C150.25 121.9275 150.25 122.9175 150.25 123.9375 C145.94753444 123.41280908 143.11200751 120.70625853 139.875 118.0625 C138.62127042 117.05707132 137.36735899 116.05186938 136.11328125 115.046875 C135.47342285 114.53060547 134.83356445 114.01433594 134.17431641 113.48242188 C131.74165025 111.52937551 129.28487971 109.6084197 126.82568359 107.68896484 C121.17909966 103.28084518 115.60919785 98.79090408 110.078125 94.23828125 C106.33001222 91.1890569 102.527942 88.21169748 98.72265625 85.234375 C94.37555062 81.83024239 90.0565446 78.39277035 85.75 74.9375 C80.96056835 71.09485233 76.14997425 67.28196281 71.3125 63.5 C65.4398886 58.90644688 59.65026423 54.21583719 53.87280273 49.50341797 C49.72334455 46.12267904 45.54128766 42.79357185 41.30078125 39.52734375 C39.03518098 37.77096411 36.79781681 35.98225356 34.5625 34.1875 C32.79220484 32.77016088 31.0213146 31.35356487 29.25 29.9375 C28.70118164 29.49825195 28.15236328 29.05900391 27.58691406 28.60644531 C19.00302126 21.74509601 19.00302126 21.74509601 10.1875 15.1875 C9.53652344 14.71828125 8.88554687 14.2490625 8.21484375 13.765625 C5.3656544 12.56477382 4.13240999 12.80095753 1.25 13.9375 C-0.81413429 15.9572761 -2.5747433 17.89192068 -4.375 20.125 C-5.15713867 21.06569336 -5.15713867 21.06569336 -5.95507812 22.02539062 C-9.92848077 26.83479334 -13.7753668 31.74545184 -17.59741211 36.67553711 C-21.4091605 41.57146748 -25.41686669 46.27704921 -29.47827148 50.96655273 C-32.99224077 55.03020598 -36.3737086 59.17772908 -39.703125 63.39453125 C-42.10094119 66.37349755 -44.57834033 69.28072575 -47.0625 72.1875 C-50.90368883 76.6882802 -54.61896256 81.26569045 -58.25 85.9375 C-62.73201366 91.70237125 -67.38552014 97.29365783 -72.125 102.84765625 C-76.07605281 107.48176754 -79.90740788 112.21345305 -83.75 116.9375 C-85.24943092 118.77129879 -86.74943458 120.60462943 -88.25 122.4375 C-89.36568359 123.80261719 -89.36568359 123.80261719 -90.50390625 125.1953125 C-91.98691051 127.00586727 -93.47381919 128.81323186 -94.96484375 130.6171875 C-100.72472441 137.60192854 -106.26586828 144.73599927 -111.75 151.9375 C-108.09079694 156.42002374 -104.34700152 160.31732603 -99.94140625 164.0625 C-97.56138917 166.09887825 -95.25085389 168.20078552 -92.9375 170.3125 C-89.53916448 173.38496773 -86.07409477 176.32192622 -82.5 179.1875 C-77.43373972 183.28058034 -72.69774343 187.65318382 -67.96655273 192.12207031 C-63.48325936 196.33100273 -58.83747853 200.19118964 -53.95703125 203.9375 C-51.60499375 206.06890389 -50.23617145 208.14911317 -48.75 210.9375 C-50.98828125 211.65234375 -50.98828125 211.65234375 -53.75 211.9375 C-55.85546875 210.56640625 -55.85546875 210.56640625 -57.9375 208.5 C-60.97891907 205.60815892 -64.01521031 202.84786461 -67.3125 200.25 C-71.79870365 196.70016908 -76.24942581 193.10966133 -80.6875 189.5 C-81.73079468 188.65175659 -81.73079468 188.65175659 -82.79516602 187.78637695 C-87.4833207 183.97266815 -92.16329084 180.14910586 -96.8359375 176.31640625 C-99.10644217 174.46287093 -101.38279075 172.61755506 -103.6640625 170.77734375 C-107.09935476 168.00619731 -110.51829385 165.2158071 -113.93066406 162.41650391 C-115.52960329 161.11666845 -117.14993217 159.84323778 -118.7734375 158.57421875 C-119.59070313 157.91035156 -120.40796875 157.24648437 -121.25 156.5625 C-121.9409375 156.01851562 -122.631875 155.47453125 -123.34375 154.9140625 C-125.57600781 151.77650013 -125.31736523 149.69083921 -124.75 145.9375 C-123.25400454 143.37997263 -121.34576638 141.33049144 -119.3125 139.1875 C-118.19944149 137.95540129 -117.08747142 136.72231847 -115.9765625 135.48828125 C-115.14946777 134.58456787 -115.14946777 134.58456787 -114.30566406 133.66259766 C-112.17785283 131.303038 -110.17997812 128.84929556 -108.1875 126.375 C-104.92221433 122.35391584 -101.6043221 118.38413557 -98.25 114.4375 C-93.34446792 108.66213851 -88.52971173 102.81757702 -83.75 96.9375 C-78.9702825 91.05741588 -74.15526403 85.21309389 -69.25 79.4375 C-65.19881161 74.66688964 -61.20451094 69.85524378 -57.25 65.00390625 C-49.22767991 55.16402927 -41.16674357 45.36713969 -32.87011719 35.75683594 C-29.41938656 31.74916156 -26.09609256 27.65706073 -22.81640625 23.5078125 C-19.83945144 19.80490841 -16.77902431 16.17437752 -13.68212891 12.57128906 C-11.71254994 10.27883959 -9.78827127 7.98949438 -7.99609375 5.5546875 C-5.5216905 2.22401936 -4.07736574 1.01934143 0 0 Z M6.67578125 17.25 C10.3503604 18.2313747 12.69580936 20.42868322 15.4375 22.9375 C16.60063109 23.96199592 17.76470059 24.98542739 18.9296875 26.0078125 C19.4978418 26.5121582 20.06599609 27.01650391 20.65136719 27.53613281 C22.7359815 29.36351311 24.88724841 31.09441993 27.0625 32.8125 C31.40577841 36.25474172 35.70550103 39.74731516 40 43.25 C45.10367162 47.41014577 50.2423432 51.51727666 55.4375 55.5625 C60.6408949 59.61679649 65.69926129 63.8143815 70.71435547 68.09863281 C74.2950549 71.15092472 77.94487429 74.07391205 81.6796875 76.93359375 C85.22378733 79.69669894 88.7037218 82.53642539 92.1875 85.375 C96.52893678 88.91209809 100.87063334 92.44734484 105.25 95.9375 C108.8295177 98.79030353 112.3840348 101.67223509 115.93188477 104.56420898 C122.42475555 109.85676863 128.95902864 115.08623098 135.56201172 120.24072266 C139.55736856 123.36848957 143.44311325 126.58381406 147.25 129.9375 C146.37402465 134.49158691 143.70271973 137.19346044 140.6875 140.5625 C139.58468013 141.82051344 138.48312051 143.07963276 137.3828125 144.33984375 C136.84430664 144.95456543 136.30580078 145.56928711 135.75097656 146.20263672 C133.12992459 149.23210895 130.65625521 152.37421862 128.171875 155.515625 C124.58623264 160.03411741 120.90876306 164.47818708 117.25 168.9375 C115.74971683 170.77060162 114.24971592 172.60393427 112.75 174.4375 C103.75 185.4375 103.75 185.4375 101.48046875 188.2109375 C100.04500065 189.96567784 98.61006204 191.72085155 97.17578125 193.4765625 C91.93794837 199.8858885 86.67822781 206.27693196 81.41455078 212.66503906 C76.68013237 218.41205062 71.96073971 224.17105779 67.25 229.9375 C65.75014304 231.77095036 64.2501406 233.60428171 62.75 235.4375 C62.00492188 236.34886719 61.25984375 237.26023438 60.4921875 238.19921875 C59.02107387 239.99582268 57.54720472 241.79017457 56.0703125 243.58203125 C55.34585938 244.46246094 54.62140625 245.34289062 53.875 246.25 C53.13765625 247.13945312 52.4003125 248.02890625 51.640625 248.9453125 C49.85427155 251.18117319 48.1564357 253.42373543 46.484375 255.7421875 C46.00919434 256.38631592 45.53401367 257.03044434 45.04443359 257.6940918 C44.11719364 258.95545073 43.20767424 260.23008335 42.31884766 261.51879883 C40.06547505 264.55061696 38.65969398 265.83895986 34.953125 266.73046875 C29.73718216 265.61355272 26.654933 262.94445581 22.625 259.5625 C21.01850119 258.26268455 19.41172906 256.96320685 17.8046875 255.6640625 C17.02448242 255.0237207 16.24427734 254.38337891 15.44042969 253.72363281 C12.58864211 251.39821174 9.67852763 249.16556555 6.75 246.9375 C1.40213572 242.83110422 -3.92705429 238.70114373 -9.25 234.5625 C-10.01634766 233.96695313 -10.78269531 233.37140625 -11.57226562 232.7578125 C-13.00559328 231.64257967 -14.43557867 230.52303285 -15.86157227 229.3984375 C-17.45306695 228.16721524 -19.09474504 227.00126291 -20.74609375 225.8515625 C-22.75 223.9375 -22.75 223.9375 -23.37890625 221.484375 C-23.11076684 210.19097393 -20.56791448 198.2017526 -15.75 187.9375 C-14.76 187.6075 -13.77 187.2775 -12.75 186.9375 C-11.925 187.370625 -11.1 187.80375 -10.25 188.25 C13.50338411 199.70252448 52.54426381 190.456481 76.25 182.9375 C83.30052575 180.33750107 90.08867171 177.48722863 94.25 170.9375 C96.03872003 165.41753277 96.63815915 160.28213162 96.625 154.5 C96.62258301 153.3857666 96.62258301 153.3857666 96.62011719 152.24902344 C96.43359317 143.89933043 93.80046446 138.1706419 88.25 131.9375 C71.09015335 120.24617591 45.36294285 120.34712052 25.63696289 124.06884766 C22.11618165 124.85905963 18.68159214 125.82434371 15.25 126.9375 C14.59789551 127.14648926 13.94579102 127.35547852 13.27392578 127.57080078 C-8.50180815 134.82213648 -27.59087913 150.26659692 -38 170.8125 C-41.19550771 177.3433141 -43.71345499 183.95224901 -45.75 190.9375 C-46.04777344 191.91460937 -46.34554687 192.89171875 -46.65234375 193.8984375 C-47.36438492 196.24128265 -48.06358464 198.58704739 -48.75 200.9375 C-52.97249693 200.42231497 -55.55957118 197.83090894 -58.625 195.125 C-59.19089844 194.63507568 -59.75679687 194.14515137 -60.33984375 193.64038086 C-61.53960958 192.60162756 -62.73715251 191.56030203 -63.93261719 190.51660156 C-65.69633808 188.98412618 -67.47365086 187.46953752 -69.2578125 185.9609375 C-75.66485962 180.53524673 -81.92345047 174.99140725 -88.04223633 169.2421875 C-92.36582269 165.20870758 -96.89537592 161.5517751 -101.60546875 157.97265625 C-103.94742513 155.75014391 -104.79904364 153.99224809 -105.75 150.9375 C-92.50438505 134.78594447 -92.50438505 134.78594447 -85.9375 127.0625 C-81.99086032 122.41910263 -78.10349532 117.73199515 -74.25390625 113.0078125 C-66.43971525 103.42598079 -58.58306826 93.88179692 -50.57592773 84.46044922 C-47.08464959 80.34754229 -43.65852938 76.1854414 -40.25 72.00390625 C-32.77927528 62.84059547 -25.30260531 53.68782754 -17.5625 44.75 C-12.59258818 39.00741316 -7.87191623 33.09773749 -3.22265625 27.09375 C-2.81289551 26.57425781 -2.40313477 26.05476563 -1.98095703 25.51953125 C-1.13246085 24.42904033 -0.3063935 23.3208506 0.50048828 22.19921875 C2.36945817 19.71211274 3.63019427 18.11316153 6.67578125 17.25 Z M46.8125 136.625 C47.52857422 136.60888672 48.24464844 136.59277344 48.98242188 136.57617188 C54.97468067 136.57071941 59.71622416 137.91399846 64.5 141.734375 C69.16057199 146.93590623 69.16057199 146.93590623 69.5625 151.4375 C65.72577942 161.66875488 57.28713731 168.13445553 47.6015625 172.73828125 C37.51685677 177.2632677 29.35881506 178.14262231 18.375 178.1875 C17.12074219 178.208125 15.86648437 178.22875 14.57421875 178.25 C8.05239483 178.2776056 2.96155365 178.23454846 -2.75 174.9375 C-3.08 174.6075 -3.41 174.2775 -3.75 173.9375 C-3.58946435 166.23178885 0.53087473 160.95058476 5.5625 155.375 C6.449375 154.570625 7.33625 153.76625 8.25 152.9375 C8.86230469 152.32132813 9.47460938 151.70515625 10.10546875 151.0703125 C20.18276858 141.34177168 32.93612 136.56221095 46.8125 136.625 Z " fill="#FE0000" transform="translate(124.75,-0.9375)"/>
<path d="M0 0 C4.62 0 9.24 0 14 0 C15.65 8.91 17.3 17.82 19 27 C20.43935174 23.40162065 21.46390114 20.41244486 22.2890625 16.69921875 C22.50820313 15.72275391 22.72734375 14.74628906 22.953125 13.74023438 C23.28570313 12.22913086 23.28570313 12.22913086 23.625 10.6875 C23.85445312 9.66076172 24.08390625 8.63402344 24.3203125 7.57617188 C24.88393551 5.05161048 25.44246891 2.52591374 26 0 C29.96 0 33.92 0 38 0 C40.33333333 9.33333333 42.66666667 18.66666667 45 28 C45.14622803 27.18732666 45.29245605 26.37465332 45.44311523 25.53735352 C46.10384307 21.87832084 46.77058816 18.22041037 47.4375 14.5625 C47.66759766 13.28310547 47.89769531 12.00371094 48.13476562 10.68554688 C48.35712891 9.47060547 48.57949219 8.25566406 48.80859375 7.00390625 C49.01282959 5.87799072 49.21706543 4.7520752 49.42749023 3.59204102 C50 1 50 1 51 0 C53.18639453 -0.07258946 55.37500389 -0.08373783 57.5625 -0.0625 C59.35880859 -0.04896484 59.35880859 -0.04896484 61.19140625 -0.03515625 C62.11824219 -0.02355469 63.04507813 -0.01195313 64 0 C63.45230721 6.81694884 62.43654082 13.38247372 60.96875 20.05859375 C60.67478333 21.42504784 60.67478333 21.42504784 60.37487793 22.81910706 C59.96391309 24.7246057 59.55035156 26.62954604 59.13427734 28.53393555 C58.49660002 31.45306428 57.86676831 34.37380204 57.23828125 37.29492188 C56.83638694 39.15374306 56.43405882 41.01247052 56.03125 42.87109375 C55.84268433 43.74293808 55.65411865 44.61478241 55.45983887 45.51304626 C55.28295532 46.32141434 55.10607178 47.12978241 54.92382812 47.96264648 C54.76918091 48.67194809 54.61453369 49.38124969 54.4552002 50.11204529 C54 52 54 52 53 55 C48.38 55 43.76 55 39 55 C37.7659575 51.29787251 36.63815264 47.79672384 35.7109375 44.0390625 C35.51290527 43.24193848 35.31487305 42.44481445 35.11083984 41.62353516 C34.74659912 40.13926025 34.74659912 40.13926025 34.375 38.625 C33.59125 35.44875 32.8075 32.2725 32 29 C30.02 37.58 28.04 46.16 26 55 C21.05 55 16.1 55 11 55 C9.42816189 47.81119688 7.86172202 40.62124697 6.30029297 33.43017578 C5.76825124 30.9835629 5.23473073 28.53727111 4.69970703 26.09130859 C3.93133606 22.57733003 3.16827478 19.06223448 2.40625 15.546875 C2.16563843 14.4519574 1.92502686 13.35703979 1.67712402 12.22894287 C1.45689575 11.20818665 1.23666748 10.18743042 1.00976562 9.13574219 C0.81435181 8.23861511 0.61893799 7.34148804 0.41760254 6.41717529 C0 4 0 4 0 0 Z " fill="#FFFFFF" transform="translate(797,66)"/>
<path d="M0 0 C4.62 0 9.24 0 14 0 C16.98574347 3.26835838 18.24558311 5.14324687 20 9 C20.98768598 10.75679647 21.98524031 12.50807842 22.9921875 14.25390625 C23.95807769 16.02073897 24.91814386 17.79075847 25.875 19.5625 C27.56625 22.676875 29.2575 25.79125 31 29 C31.33 19.43 31.66 9.86 32 0 C36.62 0 41.24 0 46 0 C46 18.15 46 36.3 46 55 C41.38 55 36.76 55 32 55 C29.73916571 51.04927492 27.47865831 47.09836659 25.21899414 43.14697266 C24.44998257 41.80246055 23.68077783 40.4580589 22.91137695 39.11376953 C21.80629641 37.18290668 20.70190829 35.25164926 19.59765625 33.3203125 C19.25283707 32.71816925 18.90801788 32.116026 18.55274963 31.49563599 C17.32594364 29.34879783 16.10604986 27.21209971 15 25 C14.67 34.9 14.34 44.8 14 55 C9.38 55 4.76 55 0 55 C0 36.85 0 18.7 0 0 Z " fill="#FFFFFF" transform="translate(1065,66)"/>
<path d="M0 0 C4.62 0 9.24 0 14 0 C14 6.93 14 13.86 14 21 C19.94 21 25.88 21 32 21 C32 14.07 32 7.14 32 0 C36.62 0 41.24 0 46 0 C46 18.15 46 36.3 46 55 C41.38 55 36.76 55 32 55 C32 47.41 32 39.82 32 32 C26.06 32 20.12 32 14 32 C14 39.59 14 47.18 14 55 C9.38 55 4.76 55 0 55 C0 36.85 0 18.7 0 0 Z " fill="#FFFFFF" transform="translate(987,66)"/>
<path d="M0 0 C1.06009277 0.01027222 1.06009277 0.01027222 2.14160156 0.02075195 C9.22769134 0.23902445 13.49147166 1.73466828 18.5 6.875 C21.3843751 11.42343766 22.125 13.93834035 22.125 19.4375 C17.835 19.4375 13.545 19.4375 9.125 19.4375 C8.58875 18.303125 8.0525 17.16875 7.5 16 C5.84093448 13.10982579 5.43752356 12.55718987 2.1875 11.3125 C-1.44771413 11.46087609 -3.05381832 12.16488143 -5.875 14.4375 C-9.59017333 20.40831428 -9.44849193 28.70848996 -8.1875 35.4375 C-7.14026252 39.13639649 -6.36216117 41.48128763 -2.875 43.4375 C0.81653847 43.75178682 4.43042463 43.66681847 8.125 43.4375 C8.125 40.7975 8.125 38.1575 8.125 35.4375 C5.155 35.4375 2.185 35.4375 -0.875 35.4375 C-0.875 32.1375 -0.875 28.8375 -0.875 25.4375 C6.715 25.4375 14.305 25.4375 22.125 25.4375 C22.28676523 29.35581337 22.40581185 33.26747909 22.5 37.1875 C22.55027344 38.29867187 22.60054687 39.40984375 22.65234375 40.5546875 C22.7077173 43.61869046 22.67342008 46.42176202 22.125 49.4375 C17.17754053 54.48958852 10.12475495 55.6637427 3.22607422 55.81811523 C-5.7367995 55.79342708 -11.6825213 54.87947648 -18.1875 48.4375 C-23.49391462 41.69965474 -24.86276573 31.79872824 -23.875 23.4375 C-22.66112886 15.20286064 -20.5133286 8.78683276 -13.875 3.4375 C-9.27592702 0.60326387 -5.31442329 -0.07859713 0 0 Z " fill="#FFFFFF" transform="translate(956.875,65.5625)"/>
<path d="M0 0 C4.23231308 2.49762688 7.07182911 5.65434388 9.24609375 10.08984375 C9.81763953 12.79125245 10.05519006 15.3217402 10.24609375 18.08984375 C5.95609375 18.08984375 1.66609375 18.08984375 -2.75390625 18.08984375 C-3.10453125 17.14109375 -3.45515625 16.19234375 -3.81640625 15.21484375 C-5.5244241 11.82048348 -5.5244241 11.82048348 -9.12890625 10.52734375 C-12.68209776 9.81474156 -12.68209776 9.81474156 -15.56640625 11.15234375 C-18.4727558 13.72653907 -19.53980285 16.10166787 -19.95874023 19.99194336 C-20.05872934 22.17414834 -20.07589534 24.34295621 -20.06640625 26.52734375 C-20.08251953 27.26533203 -20.09863281 28.00332031 -20.11523438 28.76367188 C-20.11952655 33.59236583 -19.41159806 36.90608073 -16.75390625 41.08984375 C-14.10932246 42.41213564 -12.07629324 42.18661569 -9.12890625 42.15234375 C-8.12601563 42.14332031 -7.123125 42.13429687 -6.08984375 42.125 C-5.31898437 42.11339844 -4.548125 42.10179687 -3.75390625 42.08984375 C-3.75390625 39.44984375 -3.75390625 36.80984375 -3.75390625 34.08984375 C-6.72390625 34.08984375 -9.69390625 34.08984375 -12.75390625 34.08984375 C-12.75390625 30.78984375 -12.75390625 27.48984375 -12.75390625 24.08984375 C-5.16390625 24.08984375 2.42609375 24.08984375 10.24609375 24.08984375 C10.40785898 28.00815712 10.5269056 31.91982284 10.62109375 35.83984375 C10.67136719 36.95101562 10.72164062 38.0621875 10.7734375 39.20703125 C10.82881105 42.27103421 10.79451383 45.07410577 10.24609375 48.08984375 C5.29863428 53.14193227 -1.7541513 54.31608645 -8.65283203 54.47045898 C-16.62330565 54.44850439 -22.47655163 54.06855425 -28.48828125 48.4765625 C-34.55646654 41.96048734 -35.11674146 35.37176991 -35.12890625 26.77734375 C-35.15339844 25.87822266 -35.17789062 24.97910156 -35.203125 24.05273438 C-35.23386678 16.96675433 -33.97892015 10.50729675 -28.97412109 5.20385742 C-21.08033808 -1.91578366 -10.12459692 -3.34614338 0 0 Z " fill="#FFFFFF" transform="translate(1153.75390625,66.91015625)"/>
<path d="M0 0 C6.36244292 3.78340296 10.82379103 9.23332142 12.91015625 16.34375 C14.69895364 26.01701587 14.51150232 36.44928123 9.41796875 45.08984375 C4.89133434 50.3157912 0.13466986 53.70796048 -6.8515625 54.42578125 C-19.86830334 54.56929548 -19.86830334 54.56929548 -25.58203125 50.08984375 C-32.22467788 43.44719712 -34.51491087 35.95959114 -34.76953125 26.77734375 C-34.62989325 18.45491914 -32.77931309 11.69503479 -27.58203125 5.08984375 C-20.34768666 -1.78278361 -9.38203998 -3.30713361 0 0 Z M-16.39453125 12.02734375 C-21.07008977 18.57312568 -20.95913715 25.53456029 -20.1328125 33.33984375 C-19.36672538 37.16484611 -18.16597243 39.19269758 -15.58203125 42.08984375 C-12.40324431 43.67923722 -10.08635405 43.50561086 -6.58203125 43.08984375 C-2.23684957 38.93358301 -0.77574087 35.93961033 -0.37890625 30.1015625 C-0.27142451 22.4793159 -0.67535269 17.59519552 -4.83203125 11.15234375 C-8.94430375 8.65560688 -12.61088799 9.42083395 -16.39453125 12.02734375 Z " fill="#FFFFFF" transform="translate(612.58203125,66.91015625)"/>
<path d="M0 0 C1.79244141 0.01740234 1.79244141 0.01740234 3.62109375 0.03515625 C5.41740234 0.04869141 5.41740234 0.04869141 7.25 0.0625 C8.17683594 0.07410156 9.10367188 0.08570312 10.05859375 0.09765625 C12.97079895 7.76074985 15.87962066 15.4251135 18.78312683 23.09150696 C20.00829077 26.32636049 21.23452585 29.56079323 22.46289062 32.79443359 C23.72712317 36.12348647 24.9871717 39.45409221 26.24609375 42.78515625 C26.82508423 44.30592773 26.82508423 44.30592773 27.41577148 45.85742188 C27.76583252 46.78619141 28.11589355 47.71496094 28.4765625 48.671875 C28.78360107 49.48229248 29.09063965 50.29270996 29.40698242 51.12768555 C30.05859375 53.09765625 30.05859375 53.09765625 30.05859375 55.09765625 C25.10859375 55.09765625 20.15859375 55.09765625 15.05859375 55.09765625 C12.05859375 47.34765625 12.05859375 47.34765625 12.05859375 45.09765625 C3.64359375 45.59265625 3.64359375 45.59265625 -4.94140625 46.09765625 C-5.93140625 49.06765625 -6.92140625 52.03765625 -7.94140625 55.09765625 C-12.89140625 55.09765625 -17.84140625 55.09765625 -22.94140625 55.09765625 C-20.91481097 48.14614504 -18.66623818 41.33198143 -16.18359375 34.53125 C-15.83507355 33.57114517 -15.48655334 32.61104034 -15.12747192 31.62184143 C-14.39772193 29.61384732 -13.66657604 27.60635999 -12.93408203 25.59936523 C-11.8085908 22.51372949 -10.68919185 19.42592921 -9.5703125 16.33789062 C-8.85843381 14.38137907 -8.14620698 12.42499414 -7.43359375 10.46875 C-6.93048172 9.07987831 -6.93048172 9.07987831 -6.41720581 7.66294861 C-6.10663239 6.81438797 -5.79605896 5.96582733 -5.47607422 5.09155273 C-5.06662064 3.96764381 -5.06662064 3.96764381 -4.64889526 2.82102966 C-3.46844163 -0.05443889 -3.3166675 0.11011512 0 0 Z M3.05859375 18.09765625 C2.38446164 20.01170992 1.71956055 21.92901651 1.05859375 23.84765625 C0.68734375 24.915 0.31609375 25.98234375 -0.06640625 27.08203125 C-1.12718102 30.21458187 -1.12718102 30.21458187 -0.94140625 34.09765625 C2.02859375 34.09765625 4.99859375 34.09765625 8.05859375 34.09765625 C6.89531916 28.69673851 5.63563519 23.39200966 4.05859375 18.09765625 C3.72859375 18.09765625 3.39859375 18.09765625 3.05859375 18.09765625 Z " fill="#FFFFFF" transform="translate(379.94140625,65.90234375)"/>
<path d="M0 0 C1.79244141 0.01740234 1.79244141 0.01740234 3.62109375 0.03515625 C5.41740234 0.04869141 5.41740234 0.04869141 7.25 0.0625 C8.17683594 0.07410156 9.10367188 0.08570312 10.05859375 0.09765625 C12.97079895 7.76074985 15.87962066 15.4251135 18.78312683 23.09150696 C20.00829077 26.32636049 21.23452585 29.56079323 22.46289062 32.79443359 C23.72712317 36.12348647 24.9871717 39.45409221 26.24609375 42.78515625 C26.82508423 44.30592773 26.82508423 44.30592773 27.41577148 45.85742188 C27.76583252 46.78619141 28.11589355 47.71496094 28.4765625 48.671875 C28.78360107 49.48229248 29.09063965 50.29270996 29.40698242 51.12768555 C30.05859375 53.09765625 30.05859375 53.09765625 30.05859375 55.09765625 C25.10859375 55.09765625 20.15859375 55.09765625 15.05859375 55.09765625 C12.05859375 47.34765625 12.05859375 47.34765625 12.05859375 45.09765625 C3.64359375 45.59265625 3.64359375 45.59265625 -4.94140625 46.09765625 C-5.93140625 49.06765625 -6.92140625 52.03765625 -7.94140625 55.09765625 C-12.89140625 55.09765625 -17.84140625 55.09765625 -22.94140625 55.09765625 C-20.91481097 48.14614504 -18.66623818 41.33198143 -16.18359375 34.53125 C-15.83507355 33.57114517 -15.48655334 32.61104034 -15.12747192 31.62184143 C-14.39772193 29.61384732 -13.66657604 27.60635999 -12.93408203 25.59936523 C-11.8085908 22.51372949 -10.68919185 19.42592921 -9.5703125 16.33789062 C-8.85843381 14.38137907 -8.14620698 12.42499414 -7.43359375 10.46875 C-6.93048172 9.07987831 -6.93048172 9.07987831 -6.41720581 7.66294861 C-6.10663239 6.81438797 -5.79605896 5.96582733 -5.47607422 5.09155273 C-5.06662064 3.96764381 -5.06662064 3.96764381 -4.64889526 2.82102966 C-3.46844163 -0.05443889 -3.3166675 0.11011512 0 0 Z M3.05859375 18.09765625 C2.38446164 20.01170992 1.71956055 21.92901651 1.05859375 23.84765625 C0.68734375 24.915 0.31609375 25.98234375 -0.06640625 27.08203125 C-1.12718102 30.21458187 -1.12718102 30.21458187 -0.94140625 34.09765625 C2.02859375 34.09765625 4.99859375 34.09765625 8.05859375 34.09765625 C6.89531916 28.69673851 5.63563519 23.39200966 4.05859375 18.09765625 C3.72859375 18.09765625 3.39859375 18.09765625 3.05859375 18.09765625 Z " fill="#FFFFFF" transform="translate(650.94140625,65.90234375)"/>
<path d="M0 0 C1.0533252 0.00749268 1.0533252 0.00749268 2.12792969 0.01513672 C7.96303475 0.21162772 11.93186531 1.35849522 16.0625 5.5 C19.93673699 10.05222846 20.0625 11.21977651 20.0625 17.5 C15.4425 17.5 10.8225 17.5 6.0625 17.5 C5.4025 15.85 4.7425 14.2 4.0625 12.5 C0.77675787 11.42856235 -1.07683739 11.16026476 -4.3125 12.4375 C-4.84875 12.788125 -5.385 13.13875 -5.9375 13.5 C-6.12803427 15.88977378 -6.12803427 15.88977378 -4.9375 18.5 C-2.20154116 20.25227884 0.78673214 21.34059362 3.8125 22.5 C11.00300181 25.30771975 15.65050969 27.88201453 20.0625 34.5 C20.63342896 39.28987155 20.67066123 43.91202344 18.9375 48.4375 C14.89916821 52.87966496 10.59716391 55.29860786 4.62109375 55.7734375 C-3.848984 56.0684256 -10.91988768 55.89487844 -17.9375 50.5 C-21.98504075 46.05757722 -22.53816615 42.2903408 -22.9375 36.5 C-18.3175 36.5 -13.6975 36.5 -8.9375 36.5 C-8.2775 38.48 -7.6175 40.46 -6.9375 42.5 C-3.90403378 44.43804786 -2.27655795 44.53260173 1.3125 44.1875 C3.95709983 43.77689876 3.95709983 43.77689876 5.0625 42.5 C5.10313832 40.83382885 5.105221 39.16611905 5.0625 37.5 C0.7418001 35.25963709 -3.49882449 33.25659167 -8.0625 31.5625 C-13.03479675 29.61182974 -17.20361685 27.35970312 -20.0625 22.64453125 C-21.69511456 18.64316787 -21.67182312 14.72398256 -20.9375 10.5 C-18.40105257 5.64374122 -14.93351048 3.1348371 -9.87084961 1.09545898 C-6.61268855 0.09196677 -3.37701973 -0.03155337 0 0 Z " fill="#FFFFFF" transform="translate(434.9375,65.5)"/>
<path d="M0 0 C4.25369974 2.50075731 7.12994906 5.62582698 9.31640625 10.08984375 C9.31640625 12.06984375 9.31640625 14.04984375 9.31640625 16.08984375 C4.69640625 16.08984375 0.07640625 16.08984375 -4.68359375 16.08984375 C-5.34359375 14.43984375 -6.00359375 12.78984375 -6.68359375 11.08984375 C-9.96933588 10.0184061 -11.82293114 9.75010851 -15.05859375 11.02734375 C-15.59484375 11.37796875 -16.13109375 11.72859375 -16.68359375 12.08984375 C-16.7456037 14.51334667 -16.7456037 14.51334667 -15.68359375 17.08984375 C-13.24976103 18.35228067 -11.13064131 19.23808951 -8.55859375 20.08984375 C-1.87633111 22.53156077 3.34013606 24.82554741 8.25390625 30.21484375 C10.2633771 35.65223547 10.26460107 41.61400171 8.19140625 47.02734375 C4.15307446 51.46950871 -0.14892984 53.88845161 -6.125 54.36328125 C-14.59507775 54.65826935 -21.66598143 54.48472219 -28.68359375 49.08984375 C-32.7311345 44.64742097 -33.2842599 40.88018455 -33.68359375 35.08984375 C-29.06359375 35.08984375 -24.44359375 35.08984375 -19.68359375 35.08984375 C-19.02359375 37.06984375 -18.36359375 39.04984375 -17.68359375 41.08984375 C-14.65012753 43.02789161 -13.0226517 43.12244548 -9.43359375 42.77734375 C-6.78899392 42.36674251 -6.78899392 42.36674251 -5.68359375 41.08984375 C-5.64295543 39.4236726 -5.64087275 37.7559628 -5.68359375 36.08984375 C-10.0223083 33.84013991 -14.29809338 31.81757402 -18.87109375 30.08984375 C-23.76700027 28.16001557 -27.11291884 25.98548588 -30.49609375 21.90234375 C-32.18182371 17.90982543 -32.25176106 14.36277328 -31.68359375 10.08984375 C-29.63925873 5.24799764 -26.17560714 2.33361345 -21.5078125 0.00390625 C-15.10844417 -2.06725861 -6.3787331 -2.16338401 0 0 Z " fill="#FFFFFF" transform="translate(716.68359375,66.91015625)"/>
<path d="M0 0 C12.54 0 25.08 0 38 0 C38 3.63 38 7.26 38 11 C30.08 11 22.16 11 14 11 C14 14.3 14 17.6 14 21 C20.6 21 27.2 21 34 21 C34 24.63 34 28.26 34 32 C27.4 32 20.8 32 14 32 C14 35.96 14 39.92 14 44 C21.92 44 29.84 44 38 44 C38 47.63 38 51.26 38 55 C25.46 55 12.92 55 0 55 C0 36.85 0 18.7 0 0 Z " fill="#FFFFFF" transform="translate(867,66)"/>
<path d="M0 0 C12.54 0 25.08 0 38 0 C38 3.63 38 7.26 38 11 C30.08 11 22.16 11 14 11 C14 14.3 14 17.6 14 21 C20.6 21 27.2 21 34 21 C34 24.63 34 28.26 34 32 C27.4 32 20.8 32 14 32 C14 35.96 14 39.92 14 44 C21.92 44 29.84 44 38 44 C38 47.63 38 51.26 38 55 C25.46 55 12.92 55 0 55 C0 36.85 0 18.7 0 0 Z " fill="#FFFFFF" transform="translate(318,66)"/>
<path d="M0 0 C4.78117292 2.13822128 8.2121744 5.55674913 10.34765625 10.34765625 C11.00093367 13.40928475 11.20241546 16.20077242 11.34765625 19.34765625 C7.05765625 19.34765625 2.76765625 19.34765625 -1.65234375 19.34765625 C-2.10609375 18.21328125 -2.55984375 17.07890625 -3.02734375 15.91015625 C-4.22330181 12.30043933 -4.22330181 12.30043933 -6.65234375 11.34765625 C-8.3593711 11.27769611 -10.06902378 11.26325471 -11.77734375 11.28515625 C-12.68742188 11.29417969 -13.5975 11.30320312 -14.53515625 11.3125 C-15.58316406 11.32990234 -15.58316406 11.32990234 -16.65234375 11.34765625 C-18.81704518 16.63055855 -18.95440481 21.3005766 -18.90234375 26.91015625 C-18.91007813 27.74740234 -18.9178125 28.58464844 -18.92578125 29.44726562 C-18.91199497 33.80028258 -18.84205172 37.45398539 -16.65234375 41.34765625 C-13.47131777 42.93816924 -10.11543385 42.74506003 -6.65234375 42.34765625 C-3.53423453 40.33597289 -3.59787625 39.12978627 -2.65234375 35.34765625 C1.96765625 35.34765625 6.58765625 35.34765625 11.34765625 35.34765625 C11.34765625 41.89197205 10.47257817 44.52324633 6.34765625 49.34765625 C-1.17311152 55.09108722 -9.60502905 55.17785822 -18.65234375 54.34765625 C-24.38096682 52.3430702 -28.25455337 48.2444718 -31.65234375 43.34765625 C-35.45222793 34.57972563 -35.17302319 22.06488881 -32.7421875 12.92578125 C-26.47651696 -0.37114015 -13.53082668 -3.32790583 0 0 Z " fill="#FFFFFF" transform="translate(561.65234375,66.65234375)"/>
<path d="M0 0 C14.85 0 29.7 0 45 0 C45 3.63 45 7.26 45 11 C39.72 11 34.44 11 29 11 C29 25.52 29 40.04 29 55 C24.38 55 19.76 55 15 55 C15 40.48 15 25.96 15 11 C10.05 11 5.1 11 0 11 C0 7.37 0 3.74 0 0 Z " fill="#FFFFFF" transform="translate(731,66)"/>
<path d="M0 0 C14.85 0 29.7 0 45 0 C45 3.63 45 7.26 45 11 C39.72 11 34.44 11 29 11 C29 25.52 29 40.04 29 55 C24.38 55 19.76 55 15 55 C15 40.48 15 25.96 15 11 C10.05 11 5.1 11 0 11 C0 7.37 0 3.74 0 0 Z " fill="#FFFFFF" transform="translate(460,66)"/>
<path d="M0 0 C4.62 0 9.24 0 14 0 C14 18.15 14 36.3 14 55 C9.38 55 4.76 55 0 55 C0 36.85 0 18.7 0 0 Z " fill="#FFFFFF" transform="translate(1042,66)"/>
<path d="M0 0 C4.62 0 9.24 0 14 0 C14 18.15 14 36.3 14 55 C9.38 55 4.76 55 0 55 C0 36.85 0 18.7 0 0 Z " fill="#FFFFFF" transform="translate(911,66)"/>
<path d="M0 0 C0.99 0 1.98 0 3 0 C4.66666667 0 6.33333333 0 8 0 C7.67005459 7.19280987 6.55173053 14.24191221 5.25 21.3125 C5.10530273 22.17198242 4.96060547 23.03146484 4.81152344 23.91699219 C3.70920046 29.63793708 2.16113608 32.88466259 -2 37 C-5.44983852 38.72491926 -9.22081139 38.36488718 -13 38 C-16.0625 36.75 -16.0625 36.75 -18 35 C-18 33.68 -18 32.36 -18 31 C-14 31 -14 31 -12 32 C-7.80344911 32.44082992 -7.80344911 32.44082992 -4.1875 30.625 C-2.93012827 28.99913203 -2.93012827 28.99913203 -2 27 C-2.66 27.33 -3.32 27.66 -4 28 C-11.21726041 28.58203713 -11.21726041 28.58203713 -14.4375 26.1875 C-17.60185583 21.75740184 -17.46581975 17.23412012 -17 12 C-16.06390935 7.79864827 -14.66763295 4.78545052 -11.875 1.5 C-7.84889846 -0.60057472 -4.44221641 -0.29947526 0 0 Z M-9.3125 7.625 C-11.50704389 12.01408778 -12.61029265 15.03834504 -11.125 19.8125 C-10.18209621 21.91971298 -10.18209621 21.91971298 -9 23 C-5.51944126 22.82432642 -5.51944126 22.82432642 -2 22 C0.23198179 18.65202731 0.42345786 16.8896203 0.75 12.9375 C0.84796875 11.87402344 0.9459375 10.81054688 1.046875 9.71484375 C1.31185695 6.84866082 1.31185695 6.84866082 -1 5 C-5.21977256 4.26612651 -6.42545108 4.34780933 -9.3125 7.625 Z " fill="#FFFFFF" transform="translate(1003,162)"/>
<path d="M0 0 C0.99 0 1.98 0 3 0 C5 0 7 0 9 0 C8.38030141 4.16575163 7.74083344 8.32785519 7.08349609 12.48779297 C6.86297041 13.90103003 6.64770964 15.31509973 6.43798828 16.72998047 C6.13420357 18.77296864 5.81111089 20.81213445 5.484375 22.8515625 C5.29584961 24.07697754 5.10732422 25.30239258 4.91308594 26.56494141 C3.72944116 31.01785103 1.8918744 34.70003878 -1.97265625 37.35546875 C-6.8177409 38.89581358 -11.51853381 38.72561609 -16.0625 36.5 C-16.701875 36.005 -17.34125 35.51 -18 35 C-17.67 33.35 -17.34 31.7 -17 30 C-13.125 30.875 -13.125 30.875 -12 32 C-9.66702567 32.04092937 -7.33294775 32.04241723 -5 32 C-4.34 30.68 -3.68 29.36 -3 28 C-4.216875 28.103125 -5.43375 28.20625 -6.6875 28.3125 C-10.13236468 28.29417625 -10.93567617 28.04379495 -13.9375 26 C-16.89912738 21.69217836 -17.3168847 17.9631499 -16.77734375 12.91796875 C-15.76194303 7.76209905 -13.64761014 4.73880039 -10 1 C-6.83598119 -0.58200941 -3.46125163 -0.06168567 0 0 Z M-10 9 C-10.8814688 11.64440639 -11.16174818 13.28060752 -11.1875 16 C-11.20167969 16.680625 -11.21585938 17.36125 -11.23046875 18.0625 C-11.10940411 20.32614132 -11.10940411 20.32614132 -9 23 C-3.98464948 22.67039784 -3.98464948 22.67039784 0 20 C0.76151559 17.21858403 0.76151559 17.21858403 1.25 14.0625 C1.44078125 13.00160156 1.6315625 11.94070312 1.828125 10.84765625 C2.29994896 7.79578388 2.29994896 7.79578388 0 5 C-4.89826201 4.2546123 -6.99029941 5.09853627 -10 9 Z " fill="#FFFFFF" transform="translate(550,162)"/>
<path d="M0 0 C0.99 0 1.98 0 3 0 C5 0 7 0 9 0 C8.38030141 4.16575163 7.74083344 8.32785519 7.08349609 12.48779297 C6.86297041 13.90103003 6.64770964 15.31509973 6.43798828 16.72998047 C6.13420357 18.77296864 5.81111089 20.81213445 5.484375 22.8515625 C5.29584961 24.07697754 5.10732422 25.30239258 4.91308594 26.56494141 C3.72944116 31.01785103 1.8918744 34.70003878 -1.97265625 37.35546875 C-6.8177409 38.89581358 -11.51853381 38.72561609 -16.0625 36.5 C-16.701875 36.005 -17.34125 35.51 -18 35 C-17.67 33.68 -17.34 32.36 -17 31 C-15.68 31 -14.36 31 -13 31 C-12.67 31.33 -12.34 31.66 -12 32 C-9.66702567 32.04092937 -7.33294775 32.04241723 -5 32 C-4.34 30.68 -3.68 29.36 -3 28 C-4.216875 28.103125 -5.43375 28.20625 -6.6875 28.3125 C-10.13236468 28.29417625 -10.93567617 28.04379495 -13.9375 26 C-16.89912738 21.69217836 -17.3168847 17.9631499 -16.77734375 12.91796875 C-15.76194303 7.76209905 -13.64761014 4.73880039 -10 1 C-6.83598119 -0.58200941 -3.46125163 -0.06168567 0 0 Z M-10 9 C-10.8814688 11.64440639 -11.16174818 13.28060752 -11.1875 16 C-11.20167969 16.680625 -11.21585938 17.36125 -11.23046875 18.0625 C-11.10940411 20.32614132 -11.10940411 20.32614132 -9 23 C-4.95847369 23.52617907 -4.95847369 23.52617907 -1.390625 21.8515625 C0.5098318 19.32117901 0.81315365 17.1104322 1.3125 14 C1.49425781 12.948125 1.67601562 11.89625 1.86328125 10.8125 C2.28949994 7.79026766 2.28949994 7.79026766 0 5 C-4.89826201 4.2546123 -6.99029941 5.09853627 -10 9 Z " fill="#FFFFFF" transform="translate(1100,162)"/>
<path d="M0 0 C0.99 0.33 1.98 0.66 3 1 C3.33 0.67 3.66 0.34 4 0 C5.66617115 -0.04063832 7.33388095 -0.042721 9 0 C8.38030141 4.16575163 7.74083344 8.32785519 7.08349609 12.48779297 C6.86297041 13.90103003 6.64770964 15.31509973 6.43798828 16.72998047 C6.13420357 18.77296864 5.81111089 20.81213445 5.484375 22.8515625 C5.29584961 24.07697754 5.10732422 25.30239258 4.91308594 26.56494141 C3.72994545 31.01595389 1.89462015 34.70190382 -1.97265625 37.3515625 C-5.65052375 38.52791318 -9.19510593 38.58224358 -13 38 C-16.0625 36 -16.0625 36 -18 34 C-17.34 32.68 -16.68 31.36 -16 30 C-15.484375 30.33 -14.96875 30.66 -14.4375 31 C-11.21973488 32.32010877 -8.4429472 32.13242105 -5 32 C-4.34 30.68 -3.68 29.36 -3 28 C-4.216875 28.103125 -5.43375 28.20625 -6.6875 28.3125 C-9.9357304 28.26634397 -11.04826483 27.97285104 -14 26.3125 C-17.15538823 21.08638825 -16.68152274 15.94647317 -16 10 C-13.18661582 1.55984745 -8.35293201 -0.67362355 0 0 Z M-8.3125 7.3125 C-11.03344948 11.64586398 -11.27081495 14.94478752 -11 20 C-10.01 21.485 -10.01 21.485 -9 23 C-4.97167664 23.51807347 -4.97167664 23.51807347 -1.390625 21.88671875 C0.594682 19.19317021 0.83089339 16.72786577 1.3125 13.4375 C1.58513672 11.70306641 1.58513672 11.70306641 1.86328125 9.93359375 C1.90839844 8.96550781 1.95351563 7.99742187 2 7 C0.12331681 4.72819646 0.12331681 4.72819646 -2.875 4.5625 C-6.16792068 4.70369514 -6.16792068 4.70369514 -8.3125 7.3125 Z " fill="#FFFFFF" transform="translate(419,162)"/>
<path d="M0 0 C1.98 0 3.96 0 6 0 C6.66 4.95 7.32 9.9 8 15 C10.64 10.05 13.28 5.1 16 0 C17.32 0 18.64 0 20 0 C21.485 7.92 21.485 7.92 23 16 C25.31 10.72 27.62 5.44 30 0 C31.98 0 33.96 0 36 0 C34.20513796 6.04476527 31.50677707 11.66175847 28.875 17.375 C28.40707031 18.39722656 27.93914062 19.41945312 27.45703125 20.47265625 C26.30741708 22.98303821 25.15499936 25.49209231 24 28 C22.35 28 20.7 28 19 28 C18.01 22.72 17.02 17.44 16 12 C13.36 17.28 10.72 22.56 8 28 C6.35 28 4.7 28 3 28 C2.01 18.76 1.02 9.52 0 0 Z " fill="#FFFFFF" transform="translate(1126,162)"/>
<path d="M0 0 C1.65 0 3.3 0 5 0 C5.66 5.28 6.32 10.56 7 16 C9.64 10.72 12.28 5.44 15 0 C17.475 0.495 17.475 0.495 20 1 C20.495 8.92 20.495 8.92 21 17 C21.66 17 22.32 17 23 17 C23.16822266 15.95779297 23.16822266 15.95779297 23.33984375 14.89453125 C24.08446115 11.62967036 25.24400088 8.76399795 26.5625 5.6875 C27.24505859 4.08455078 27.24505859 4.08455078 27.94140625 2.44921875 C28.29074219 1.64097656 28.64007812 0.83273438 29 0 C30.98 0 32.96 0 35 0 C32.9770602 6.64766356 30.34927071 12.81944187 27.3125 19.0625 C26.68891602 20.3609082 26.68891602 20.3609082 26.05273438 21.68554688 C25.03989913 23.79270985 24.0222841 25.8974094 23 28 C21.35 28 19.7 28 18 28 C17.80083984 26.51886719 17.80083984 26.51886719 17.59765625 25.0078125 C17.42105469 23.72648437 17.24445312 22.44515625 17.0625 21.125 C16.88847656 19.84882813 16.71445312 18.57265625 16.53515625 17.2578125 C16.18566773 14.12440546 16.18566773 14.12440546 15 12 C12.36 17.28 9.72 22.56 7 28 C5.35 28 3.7 28 2 28 C1.66062892 25.02141273 1.32837741 22.04230315 1 19.0625 C0.90460937 18.23169922 0.80921875 17.40089844 0.7109375 16.54492188 C0.10618519 10.99415957 -0.09014973 5.583649 0 0 Z " fill="#FFFFFF" transform="translate(910,162)"/>
<path d="M0 0 C1.98 0 3.96 0 6 0 C5.1669339 5.07253986 4.3306769 10.14453938 3.49145508 15.21606445 C3.20639634 16.94150539 2.92221093 18.66709085 2.63891602 20.39282227 C2.23162541 22.87294386 1.82119955 25.35252921 1.41015625 27.83203125 C1.28407486 28.60400345 1.15799347 29.37597565 1.02809143 30.17134094 C0.52148744 33.21192112 -0.02339965 36.07019894 -1 39 C-3.39774745 39.13572155 -5.78775245 39.23436868 -8.1875 39.3125 C-9.19780273 39.3753418 -9.19780273 39.3753418 -10.22851562 39.43945312 C-14.03020357 39.53217722 -15.84240771 39.11283358 -18.95703125 36.8828125 C-22.47345411 31.92082384 -21.66941192 26.8408029 -21 21 C-19.42806993 16.2842098 -17.32717512 13.50014563 -13 11 C-9.51705681 10.5244443 -6.21060353 10.39469823 -3 12 C-2.01 8.04 -1.02 4.08 0 0 Z M-13.3125 18.3125 C-16.03344948 22.64586398 -16.27081495 25.94478752 -16 31 C-15.01 32.485 -15.01 32.485 -14 34 C-9.97167664 34.51807347 -9.97167664 34.51807347 -6.390625 32.88671875 C-4.405318 30.19317021 -4.16910661 27.72786577 -3.6875 24.4375 C-3.41486328 22.70306641 -3.41486328 22.70306641 -3.13671875 20.93359375 C-3.09160156 19.96550781 -3.04648437 18.99742187 -3 18 C-4.87668319 15.72819646 -4.87668319 15.72819646 -7.875 15.5625 C-11.16792068 15.70369514 -11.16792068 15.70369514 -13.3125 18.3125 Z " fill="#FFFFFF" transform="translate(730,151)"/>
<path d="M0 0 C1.98 0 3.96 0 6 0 C5.34 3.96 4.68 7.92 4 12 C4.66 11.67 5.32 11.34 6 11 C13.01599016 10.43419434 13.01599016 10.43419434 16.5 12.4375 C20.93672773 20.01690987 16.79252404 30.90163246 15 39 C13.35 39 11.7 39 10 39 C10.90565594 27.43843482 10.90565594 27.43843482 11.625 22.375 C12.29426111 19.13581282 12.29426111 19.13581282 11 17 C7.43237533 16.64802994 7.43237533 16.64802994 4.38916016 18.26538086 C2.80502691 20.24345936 2.46268372 21.45505698 2.0859375 23.94140625 C1.96476562 24.68970703 1.84359375 25.43800781 1.71875 26.20898438 C1.6053125 26.98564453 1.491875 27.76230469 1.375 28.5625 C0.09446108 36.81107784 0.09446108 36.81107784 -1 39 C-2.65 39 -4.3 39 -6 39 C-5.40884251 30.31660314 -4.02026777 21.86476618 -2.4375 13.3125 C-2.20353516 12.02666016 -1.96957031 10.74082031 -1.72851562 9.41601562 C-1.15663933 6.27653148 -0.58038572 3.13792014 0 0 Z " fill="#FFFFFF" transform="translate(1198,151)"/>
<path d="M0 0 C1.65 0 3.3 0 5 0 C4.67 3.96 4.34 7.92 4 12 C4.66 11.67 5.32 11.34 6 11 C13.16987448 10.54476987 13.16987448 10.54476987 15.9375 12.0625 C19.13184245 17.88747741 17.73250693 24.25886764 16.5625 30.4375 C16.41490234 31.26443359 16.26730469 32.09136719 16.11523438 32.94335938 C15.75315508 34.96399543 15.37792451 36.98226747 15 39 C13.02 39 11.04 39 9 39 C9.144375 37.99839844 9.28875 36.99679688 9.4375 35.96484375 C9.62525007 34.62243078 9.81273594 33.27998085 10 31.9375 C10.09539062 31.28072266 10.19078125 30.62394531 10.2890625 29.94726562 C10.88887674 25.59861237 11.09127093 21.38670929 11 17 C8.08347826 16.83318891 8.08347826 16.83318891 5 17 C2.67108788 19.32891212 2.53267142 20.3945972 1.9296875 23.5703125 C1.75566406 24.46621094 1.58164062 25.36210937 1.40234375 26.28515625 C1.22832031 27.22230469 1.05429687 28.15945312 0.875 29.125 C0.69324219 30.06988281 0.51148438 31.01476562 0.32421875 31.98828125 C-0.12410674 34.32429301 -0.56519868 36.66143977 -1 39 C-2.98 39 -4.96 39 -7 39 C-6.16801359 33.76657386 -5.33174153 28.53385771 -4.49145508 23.30175781 C-4.20608924 21.52102301 -3.92190439 19.74009854 -3.63891602 17.95898438 C-3.23242084 15.40183781 -2.8217111 12.84539897 -2.41015625 10.2890625 C-2.28407486 9.49005524 -2.15799347 8.69104797 -2.02809143 7.86782837 C-1.11387171 2.22774341 -1.11387171 2.22774341 0 0 Z " fill="#FFFFFF" transform="translate(1020,151)"/>
<path d="M0 0 C3.125 1.6875 3.125 1.6875 5 5 C5.16756766 9.40463556 4.59883159 13.64211634 4 18 C3.80533503 19.93679324 3.61696856 21.87423956 3.4375 23.8125 C3.2932396 25.20849677 3.14806573 26.60440171 3 28 C0 28 -3 28 -6 28 C-7.9490625 28.12375 -7.9490625 28.12375 -9.9375 28.25 C-12.93805162 28.23342237 -13.86532437 28.08417227 -16.5 26.4375 C-18.59311615 23.03618625 -18.55147685 20.92927257 -18 17 C-15.86320715 13.61060444 -14.8225233 12.27417443 -11 11 C-9.27204648 10.93197033 -7.54164635 10.91504355 -5.8125 10.9375 C-4.91144531 10.94652344 -4.01039063 10.95554688 -3.08203125 10.96484375 C-2.39496094 10.97644531 -1.70789063 10.98804688 -1 11 C-1.33 9.35 -1.66 7.7 -2 6 C-4.86742597 4.69186719 -4.86742597 4.69186719 -7.125 5.8125 C-9.14942042 6.86855201 -9.14942042 6.86855201 -10 9 C-11.98 9 -13.96 9 -16 9 C-15.17209495 5.6131157 -14.54949495 3.49954087 -11.9375 1.125 C-7.84001065 -0.44425124 -4.32613215 -0.77308138 0 0 Z M-11.4375 17 C-11.953125 17.66 -12.46875 18.32 -13 19 C-12.34 20.32 -11.68 21.64 -11 23 C-7.56769552 22.73606499 -7.56769552 22.73606499 -4 22 C-1.63019987 19.04622502 -1.63019987 19.04622502 -2 15 C-7.13725982 14.51510163 -7.13725982 14.51510163 -11.4375 17 Z " fill="#FFFFFF" transform="translate(799,162)"/>
<path d="M0 0 C2.625 1.4375 2.625 1.4375 4 4 C4.78794769 12.01080151 3.16975083 20.07284931 2 28 C-0.66666667 28 -3.33333333 28 -6 28 C-6.69996094 28.05800781 -7.39992188 28.11601562 -8.12109375 28.17578125 C-14.34504792 28.54313099 -14.34504792 28.54313099 -17.5625 25.875 C-19.26523868 22.46952264 -19.70338515 20.75138748 -19 17 C-15.13697469 12.42536476 -12.70092708 10.96033961 -6.875 10.4375 C-5.50988281 10.31181641 -5.50988281 10.31181641 -4.1171875 10.18359375 C-3.41851563 10.12300781 -2.71984375 10.06242188 -2 10 C-2.26676204 8.01508358 -2.26676204 8.01508358 -3 6 C-6 4.66666667 -6 4.66666667 -9 6 C-9.99 7.485 -9.99 7.485 -11 9 C-13.625 9.1875 -13.625 9.1875 -16 9 C-15.72960418 5.75525016 -15.1742292 4.20795098 -13.0625 1.6875 C-8.69428799 -0.71947396 -4.88187616 -0.78208809 0 0 Z M-13 18 C-12.67 19.65 -12.34 21.3 -12 23 C-6.98464948 22.67039784 -6.98464948 22.67039784 -3 20 C-2.35232207 17.42938689 -2.35232207 17.42938689 -2 15 C-6.73940561 14.72657275 -9.48550811 14.62608778 -13 18 Z " fill="#FFFFFF" transform="translate(1277,162)"/>
<path d="M0 0 C2.625 1.375 2.625 1.375 4 4 C5.17404826 11.90937777 3.25853408 20.20158347 2 28 C-0.66666667 28 -3.33333333 28 -6 28 C-6.69996094 28.05800781 -7.39992188 28.11601562 -8.12109375 28.17578125 C-14.29130392 28.53995892 -14.29130392 28.53995892 -17.625 26 C-19.19959071 22.56452937 -19.44034127 20.5414955 -18.71875 16.87109375 C-18 15 -18 15 -15.625 12.5 C-10.67785469 10.45290539 -6.28104528 10.6617124 -1 11 C-1.33 9.02 -1.66 7.04 -2 5 C-5.43230448 5.26393501 -5.43230448 5.26393501 -9 6 C-9.99 7.485 -9.99 7.485 -11 9 C-13.625 9.1875 -13.625 9.1875 -16 9 C-15.72960418 5.75525016 -15.1742292 4.20795098 -13.0625 1.6875 C-8.69000489 -0.72183404 -4.88592096 -0.77449675 0 0 Z M-13 18 C-12.67 19.65 -12.34 21.3 -12 23 C-8.59919423 22.89592083 -8.59919423 22.89592083 -5 22 C-3.07828158 19.58235424 -2 18.11532786 -2 15 C-6.73940561 14.72657275 -9.48550811 14.62608778 -13 18 Z " fill="#FFFFFF" transform="translate(466,162)"/>
<path d="M0 0 C3.7501584 2.5782339 4.78999119 4.14496412 5.875 8.5625 C6 12 6 12 5 16 C-0.61 16 -6.22 16 -12 16 C-11.67 17.98 -11.34 19.96 -11 22 C-6.07872966 22.16682272 -2.49656104 22.24828052 2 20 C2.66 20.99 3.32 21.98 4 23 C0.52479119 26.5910491 -1.28950361 28.1521018 -6.3125 28.3125 C-9.69094303 28.26904736 -10.91432549 28.04921727 -13.9375 26.3125 C-16.79671393 23.10671469 -17.97282169 21.02818113 -18.03125 16.66796875 C-17.63085314 9.99135111 -15.81194257 6.12438063 -11.3125 1.125 C-7.59059715 -0.68565544 -4.04374888 -0.75685139 0 0 Z M-7.125 4.5625 C-9.56604024 6.18047586 -9.56604024 6.18047586 -11 11 C-7.37 11 -3.74 11 0 11 C-0.40976904 6.15001382 -0.40976904 6.15001382 -2.8125 4.5625 C-4.99091126 3.81243094 -4.99091126 3.81243094 -7.125 4.5625 Z " fill="#FFFFFF" transform="translate(755,162)"/>
<path d="M0 0 C3.0625 1.8125 3.0625 1.8125 5 5 C5.40257166 8.7714608 5.22975053 12.18614119 5 16 C-0.61 16 -6.22 16 -12 16 C-11.34 17.98 -10.68 19.96 -10 22 C-6.58343976 22.16677282 -6.58343976 22.16677282 -3 22 C-2.34 21.34 -1.68 20.68 -1 20 C1.125 20.375 1.125 20.375 3 21 C3 24 3 24 1.0625 26.1875 C-3.04683064 28.61955283 -6.33124824 28.96821214 -11 28 C-14.56760738 26.05672945 -16.69295606 23.92113181 -18 20 C-18.4389941 14.40282519 -17.70299921 9.89406674 -15 5 C-10.58761639 -0.04272412 -6.45262723 -1.41151221 0 0 Z M-7.6875 5.125 C-10.41343113 6.9514172 -10.41343113 6.9514172 -11 11 C-7.37 11 -3.74 11 0 11 C-0.43009352 6.17637852 -0.43009352 6.17637852 -2.75 4.5 C-5.11966098 3.74632938 -5.11966098 3.74632938 -7.6875 5.125 Z " fill="#FFFFFF" transform="translate(964,162)"/>
<path d="M0 0 C3.0625 1.8125 3.0625 1.8125 5 5 C5.40257166 8.7714608 5.22975053 12.18614119 5 16 C-0.61 16 -6.22 16 -12 16 C-11.67 17.98 -11.34 19.96 -11 22 C-6.07872966 22.16682272 -2.49656104 22.24828052 2 20 C2.66 20.99 3.32 21.98 4 23 C0.52479119 26.5910491 -1.28950361 28.1521018 -6.3125 28.3125 C-9.69094303 28.26904736 -10.91432549 28.04921727 -13.9375 26.3125 C-16.79671393 23.10671469 -17.97282169 21.02818113 -18.03125 16.66796875 C-17.63085314 9.99135111 -15.81194257 6.12438063 -11.3125 1.125 C-7.57718889 -0.69217838 -4.05820621 -0.72932176 0 0 Z M-7.6875 5.125 C-10.41343113 6.9514172 -10.41343113 6.9514172 -11 11 C-7.37 11 -3.74 11 0 11 C-0.43009352 6.17637852 -0.43009352 6.17637852 -2.75 4.5 C-5.11966098 3.74632938 -5.11966098 3.74632938 -7.6875 5.125 Z " fill="#FFFFFF" transform="translate(1345,162)"/>
<path d="M0 0 C3.0625 1.8125 3.0625 1.8125 5 5 C5.40257166 8.7714608 5.22975053 12.18614119 5 16 C-0.61 16 -6.22 16 -12 16 C-11.67 17.98 -11.34 19.96 -11 22 C-6.07872966 22.16682272 -2.49656104 22.24828052 2 20 C2.66 20.99 3.32 21.98 4 23 C0.63620275 26.45004846 -1.58839039 28.37567972 -6.5 28.625 C-9.65457102 28.41718198 -11.88805053 27.86449398 -14.5 26.0625 C-17.79188678 22.0299387 -18.34981316 19.13059303 -18 14 C-17.19431496 9.3179058 -15.80123246 5.32555716 -12.375 1.9375 C-8.06013482 -0.53955223 -4.86006027 -1.06313818 0 0 Z M-7.6875 5.125 C-10.41343113 6.9514172 -10.41343113 6.9514172 -11 11 C-7.37 11 -3.74 11 0 11 C-0.43009352 6.17637852 -0.43009352 6.17637852 -2.75 4.5 C-5.11966098 3.74632938 -5.11966098 3.74632938 -7.6875 5.125 Z " fill="#FFFFFF" transform="translate(644,162)"/>
<path d="M0 0 C3.0625 1.8125 3.0625 1.8125 5 5 C5.40257166 8.7714608 5.22975053 12.18614119 5 16 C-0.61 16 -6.22 16 -12 16 C-11.67 17.98 -11.34 19.96 -11 22 C-6.07872966 22.16682272 -2.49656104 22.24828052 2 20 C2.66 20.99 3.32 21.98 4 23 C0.63620275 26.45004846 -1.58839039 28.37567972 -6.5 28.625 C-9.65457102 28.41718198 -11.88805053 27.86449398 -14.5 26.0625 C-17.79188678 22.0299387 -18.34981316 19.13059303 -18 14 C-17.19431496 9.3179058 -15.80123246 5.32555716 -12.375 1.9375 C-8.06013482 -0.53955223 -4.86006027 -1.06313818 0 0 Z M-7.6875 5.125 C-10.41343113 6.9514172 -10.41343113 6.9514172 -11 11 C-7.37 11 -3.74 11 0 11 C-0.43009352 6.17637852 -0.43009352 6.17637852 -2.75 4.5 C-5.11966098 3.74632938 -5.11966098 3.74632938 -7.6875 5.125 Z " fill="#FFFFFF" transform="translate(593,162)"/>
<path d="M0 0 C3.03215675 2.19831364 3.81654398 3.44963194 5 7 C5 9.97 5 12.94 5 16 C-0.94 16 -6.88 16 -13 16 C-12.01 17.98 -11.02 19.96 -10 22 C-5.78121808 22.19622241 -2.82989106 21.80230168 1 20 C1.66 21.32 2.32 22.64 3 24 C-1.28454284 27.51552233 -4.30632417 28.64825758 -9.87890625 28.39453125 C-13.09584316 27.79616914 -14.82406402 26.37992998 -17 24 C-18.93410256 18.19769231 -18.88303335 12.15962908 -16.3125 6.5625 C-12.54761562 0.09160496 -7.15685202 -1.230711 0 0 Z M-10.375 7.4375 C-12.089257 9.63503326 -12.089257 9.63503326 -12 11 C-8.04 11 -4.08 11 0 11 C-0.4452998 6.36980013 -0.4452998 6.36980013 -2 5 C-6.10224361 4.45303419 -7.41699852 4.40165638 -10.375 7.4375 Z " fill="#FFFFFF" transform="translate(394,162)"/>
<path d="M0 0 C1.98 0 3.96 0 6 0 C6.99 5.28 7.98 10.56 9 16 C11.64 10.72 14.28 5.44 17 0 C18.98 0 20.96 0 23 0 C20.96934216 6.6024566 17.81834039 12.5650009 14.66015625 18.67797852 C13.62517369 20.68716283 12.60540031 22.70360913 11.5859375 24.72070312 C10.9253973 26.00568071 10.2639691 27.29020229 9.6015625 28.57421875 C9.00682129 29.73526123 8.41208008 30.89630371 7.79931641 32.0925293 C6.05359861 34.91339134 4.88068555 36.40844748 2 38 C-1.75 38.1875 -1.75 38.1875 -5 38 C-5 36.35 -5 34.7 -5 33 C-4.05125 32.731875 -3.1025 32.46375 -2.125 32.1875 C1.25267273 31.25013412 1.25267273 31.25013412 3 28 C3.37647481 22.58817461 2.52912087 17.59253906 1.5 12.3125 C0.70322783 8.15995317 0 4.25211518 0 0 Z " fill="#FFFFFF" transform="translate(672,162)"/>
<path d="M0 0 C3.09154216 1.62611261 5.36772468 3.64512431 6.875 6.875 C6.91625 7.57625 6.9575 8.2775 7 9 C7.103125 10.0725 7.20625 11.145 7.3125 12.25 C6.82621062 18.08547253 4.63992073 22.12580488 0.8125 26.5 C-3.17857106 28.62857123 -6.57470559 28.91772362 -11 28 C-14.56760738 26.05672945 -16.69295606 23.92113181 -18 20 C-18.54192691 13.60526249 -17.60010125 9.35278213 -14 4 C-10.03503717 -0.5313861 -5.73375839 -1.17899777 0 0 Z M-11 9 C-12.16983345 11.3396669 -12.1661241 12.83391527 -12.1875 15.4375 C-12.20167969 16.21996094 -12.21585938 17.00242188 -12.23046875 17.80859375 C-12.14086064 20.29205987 -12.14086064 20.29205987 -10 23 C-7.0850745 23.5838196 -7.0850745 23.5838196 -4 23 C-1.69724444 21.1329009 -0.32176129 19.64352259 1 17 C1.19738723 14.89044938 1.19738723 14.89044938 1.1875 12.5625 C1.20876953 11.38880859 1.20876953 11.38880859 1.23046875 10.19140625 C1.14086064 7.70794013 1.14086064 7.70794013 -1 5 C-5.91964115 4.25135896 -7.93467142 5.1399566 -11 9 Z " fill="#FFFFFF" transform="translate(866,162)"/>
<path d="M0 0 C1.65 0 3.3 0 5 0 C4.09434406 11.56156518 4.09434406 11.56156518 3.375 16.625 C2.70573889 19.86418718 2.70573889 19.86418718 4 22 C7.465 21.505 7.465 21.505 11 21 C11.11593506 20.39937744 11.23187012 19.79875488 11.35131836 19.17993164 C11.87606471 16.47333141 12.40670147 13.76791952 12.9375 11.0625 C13.11990234 10.11697266 13.30230469 9.17144531 13.49023438 8.19726562 C13.66748047 7.29814453 13.84472656 6.39902344 14.02734375 5.47265625 C14.18968506 4.64000244 14.35202637 3.80734863 14.51928711 2.94946289 C15 1 15 1 16 0 C17.66617115 -0.04063832 19.33388095 -0.042721 21 0 C19.88156738 9.37579682 18.65562772 18.70030388 17 28 C14.41554227 28.1081866 11.83562648 28.18737237 9.25 28.25 C8.52039062 28.28351563 7.79078125 28.31703125 7.0390625 28.3515625 C3.53038324 28.41535667 1.42379657 28.29493053 -1.4921875 26.265625 C-5.49930481 20.2445679 -2.69768914 11.1511613 -1.53515625 4.46875 C-1 2 -1 2 0 0 Z " fill="#FFFFFF" transform="translate(1303,162)"/>
<path d="M0 0 C2.66666667 0 5.33333333 0 8 0 C8.9590625 -0.05220703 8.9590625 -0.05220703 9.9375 -0.10546875 C15.44135894 -0.32437223 15.44135894 -0.32437223 17.9375 1.125 C21.13969741 6.77593661 19.63161976 12.83333597 18.5625 18.875 C18.41490234 19.75414062 18.26730469 20.63328125 18.11523438 21.5390625 C17.75211779 23.69433513 17.38017684 25.84768284 17 28 C15.02 28 13.04 28 11 28 C11.144375 26.91460937 11.28875 25.82921875 11.4375 24.7109375 C11.62519956 23.2656509 11.81268838 21.82033693 12 20.375 C12.14308594 19.30572266 12.14308594 19.30572266 12.2890625 18.21484375 C12.81606101 14.11178391 13.10466984 10.14754258 13 6 C10.69 6.33 8.38 6.66 6 7 C4.02883011 11.34514406 3.19186264 15.64888115 2.375 20.3125 C2.2409375 21.05306641 2.106875 21.79363281 1.96875 22.55664062 C1.64113016 24.37025044 1.31991506 26.18501524 1 28 C-0.98 28 -2.96 28 -5 28 C-4.3583007 23.89517579 -3.71093527 19.79126508 -3.0625 15.6875 C-2.78889648 13.93663086 -2.78889648 13.93663086 -2.50976562 12.15039062 C-2.33251953 11.03212891 -2.15527344 9.91386719 -1.97265625 8.76171875 C-1.72914429 7.2142395 -1.72914429 7.2142395 -1.48071289 5.63549805 C-1 3 -1 3 0 0 Z " fill="#FFFFFF" transform="translate(1059,162)"/>
<path d="M0 0 C2.66666667 0 5.33333333 0 8 0 C8.9590625 -0.05220703 8.9590625 -0.05220703 9.9375 -0.10546875 C15.41071985 -0.32315363 15.41071985 -0.32315363 17.9375 1.0625 C21.13184245 6.88747741 19.73250693 13.25886764 18.5625 19.4375 C18.34110352 20.67790039 18.34110352 20.67790039 18.11523438 21.94335938 C17.75315508 23.96399543 17.37792451 25.98226747 17 28 C15.02 28 13.04 28 11 28 C11.144375 26.99839844 11.28875 25.99679688 11.4375 24.96484375 C11.62525007 23.62243078 11.81273594 22.27998085 12 20.9375 C12.09539062 20.28072266 12.19078125 19.62394531 12.2890625 18.94726562 C12.88887674 14.59861237 13.09127093 10.38670929 13 6 C10.69 6.33 8.38 6.66 6 7 C4.02883011 11.34514406 3.19186264 15.64888115 2.375 20.3125 C2.2409375 21.05306641 2.106875 21.79363281 1.96875 22.55664062 C1.64113016 24.37025044 1.31991506 26.18501524 1 28 C-0.98 28 -2.96 28 -5 28 C-4.3583007 23.89517579 -3.71093527 19.79126508 -3.0625 15.6875 C-2.78889648 13.93663086 -2.78889648 13.93663086 -2.50976562 12.15039062 C-2.33251953 11.03212891 -2.15527344 9.91386719 -1.97265625 8.76171875 C-1.72914429 7.2142395 -1.72914429 7.2142395 -1.48071289 5.63549805 C-1 3 -1 3 0 0 Z " fill="#FFFFFF" transform="translate(334,162)"/>
<path d="M0 0 C2.66666667 0 5.33333333 0 8 0 C8.9590625 -0.05220703 8.9590625 -0.05220703 9.9375 -0.10546875 C10.9584375 -0.14607422 10.9584375 -0.14607422 12 -0.1875 C13.0209375 -0.23970703 13.0209375 -0.23970703 14.0625 -0.29296875 C16 0 16 0 17.73046875 1.140625 C21.9453424 7.31379379 18.71919508 18.95182085 17.4375 25.83203125 C17.2209375 26.90517578 17.2209375 26.90517578 17 28 C15.02 28 13.04 28 11 28 C11.144375 26.91460937 11.28875 25.82921875 11.4375 24.7109375 C11.62519956 23.2656509 11.81268838 21.82033693 12 20.375 C12.14308594 19.30572266 12.14308594 19.30572266 12.2890625 18.21484375 C12.81606101 14.11178391 13.10466984 10.14754258 13 6 C10.08347826 5.83318891 10.08347826 5.83318891 7 6 C4.67108788 8.32891212 4.53267142 9.3945972 3.9296875 12.5703125 C3.75566406 13.46621094 3.58164062 14.36210937 3.40234375 15.28515625 C3.22832031 16.22230469 3.05429687 17.15945312 2.875 18.125 C2.69324219 19.06988281 2.51148438 20.01476562 2.32421875 20.98828125 C1.87589326 23.32429301 1.43480132 25.66143977 1 28 C-0.98 28 -2.96 28 -5 28 C-4.3596402 23.70749783 -3.71179064 19.41615961 -3.0625 15.125 C-2.88009766 13.90167969 -2.69769531 12.67835938 -2.50976562 11.41796875 C-2.33251953 10.25136719 -2.15527344 9.08476562 -1.97265625 7.8828125 C-1.72914429 6.26463623 -1.72914429 6.26463623 -1.48071289 4.61376953 C-1 2 -1 2 0 0 Z " fill="#FFFFFF" transform="translate(509,162)"/>
<path d="M0 0 C-0.33 1.65 -0.66 3.3 -1 5 C-1.969375 5.268125 -2.93875 5.53625 -3.9375 5.8125 C-4.948125 6.204375 -5.95875 6.59625 -7 7 C-7.33 7.99 -7.66 8.98 -8 10 C-6.35 10.33 -4.7 10.66 -3 11 C-3.33 12.65 -3.66 14.3 -4 16 C-5.98 16 -7.96 16 -10 16 C-10.04898438 16.65484375 -10.09796875 17.3096875 -10.1484375 17.984375 C-10.72866606 25.067165 -11.74299706 32.0071584 -13 39 C-14.98 39 -16.96 39 -19 39 C-17.125 20.25 -17.125 20.25 -15 16 C-16.32 16 -17.64 16 -19 16 C-18.67 14.35 -18.34 12.7 -18 11 C-16.68 11 -15.36 11 -14 11 C-13.9175 9.9275 -13.835 8.855 -13.75 7.75 C-13 4 -13 4 -11.5 1.5625 C-7.77615754 -0.76490154 -4.27841547 -0.32910888 0 0 Z " fill="#FFFFFF" transform="translate(897,151)"/>
<path d="M0 0 C1.65 0 3.3 0 5 0 C6.70899657 5.61527443 7.89430162 11.23457274 9 17 C11.64 11.39 14.28 5.78 17 0 C18.98 0 20.96 0 23 0 C21.74577315 3.98792946 20.28484419 7.66949404 18.3984375 11.3984375 C17.90859375 12.37167969 17.41875 13.34492188 16.9140625 14.34765625 C16.40617187 15.34667969 15.89828125 16.34570312 15.375 17.375 C14.859375 18.39722656 14.34375 19.41945312 13.8125 20.47265625 C12.54528127 22.98362669 11.27435444 25.49264561 10 28 C8.35 28 6.7 28 5 28 C4.16011547 24.08470852 3.32923187 20.16756028 2.5 16.25 C2.26152344 15.13882813 2.02304688 14.02765625 1.77734375 12.8828125 C1.55175781 11.81289062 1.32617188 10.74296875 1.09375 9.640625 C0.88427734 8.65610352 0.67480469 7.67158203 0.45898438 6.65722656 C0 4 0 4 0 0 Z " fill="#FFFFFF" transform="translate(1235,162)"/>
<path d="M0 0 C1.65 0 3.3 0 5 0 C5.99 5.28 6.98 10.56 8 16 C10.65302854 13.34697146 12.00152878 10.20773563 13.625 6.875 C13.94984375 6.21628906 14.2746875 5.55757812 14.609375 4.87890625 C15.40986577 3.25438086 16.20541101 1.62742022 17 0 C18.65 0 20.3 0 22 0 C21.02942503 5.94376905 18.38965505 10.8879853 15.75 16.25 C15.27175781 17.26835937 14.79351563 18.28671875 14.30078125 19.3359375 C13.82511719 20.30273438 13.34945312 21.26953125 12.859375 22.265625 C12.21693848 23.59255371 12.21693848 23.59255371 11.56152344 24.94628906 C10 27 10 27 7.32128906 27.79589844 C6.55526367 27.86325195 5.78923828 27.93060547 5 28 C3.5682723 23.17570016 2.37749445 18.37402571 1.375 13.4375 C1.11460937 12.17808594 0.85421875 10.91867188 0.5859375 9.62109375 C0.0534044 6.3300392 -0.11268556 3.32422396 0 0 Z " fill="#FFFFFF" transform="translate(603,162)"/>
<path d="M0 0 C1.98 0 3.96 0 6 0 C5.67 1.98 5.34 3.96 5 6 C6.65 6 8.3 6 10 6 C9.67 7.65 9.34 9.3 9 11 C7.35 11 5.7 11 4 11 C3.34 16.61 2.68 22.22 2 28 C3.32 28.33 4.64 28.66 6 29 C5.505 31.475 5.505 31.475 5 34 C1.625 34.1875 1.625 34.1875 -2 34 C-6.38775939 27.41836092 -3.3676868 18.32689359 -2 11 C-3.32 11 -4.64 11 -6 11 C-5.67 9.35 -5.34 7.7 -5 6 C-3.68 5.67 -2.36 5.34 -1 5 C-0.67 3.35 -0.34 1.7 0 0 Z " fill="#FFFFFF" transform="translate(481,156)"/>
<path d="M0 0 C1.98 0 3.96 0 6 0 C5.67 1.98 5.34 3.96 5 6 C6.32 6 7.64 6 9 6 C9 7.65 9 9.3 9 11 C7.35 11 5.7 11 4 11 C3.34 16.61 2.68 22.22 2 28 C2.99 28.33 3.98 28.66 5 29 C5 30.65 5 32.3 5 34 C1.625 34.125 1.625 34.125 -2 34 C-4 32 -4 32 -4.265625 30.00390625 C-4.22393268 23.48948153 -3.35586849 17.36773951 -2 11 C-3.32 11 -4.64 11 -6 11 C-6 9.35 -6 7.7 -6 6 C-4.35 6 -2.7 6 -1 6 C-0.67 4.02 -0.34 2.04 0 0 Z " fill="#FFFFFF" transform="translate(770,156)"/>
<path d="M0 0 C1.2065625 0.0309375 1.2065625 0.0309375 2.4375 0.0625 C2.1075 2.0425 1.7775 4.0225 1.4375 6.0625 C3.0875 6.0625 4.7375 6.0625 6.4375 6.0625 C6.1075 7.7125 5.7775 9.3625 5.4375 11.0625 C3.7875 11.0625 2.1375 11.0625 0.4375 11.0625 C0.37691406 11.77535156 0.31632812 12.48820313 0.25390625 13.22265625 C-0.21058101 18.53210288 -0.74325251 23.795909 -1.5625 29.0625 C-0.2425 29.0625 1.0775 29.0625 2.4375 29.0625 C1.9425 31.5375 1.9425 31.5375 1.4375 34.0625 C-4.02097039 34.42639803 -4.02097039 34.42639803 -6.27734375 32.91015625 C-8.12923535 30.24771028 -7.68375369 28.49236858 -7.3125 25.3125 C-7.19519531 24.2503125 -7.07789063 23.188125 -6.95703125 22.09375 C-6.82683594 21.0934375 -6.69664062 20.093125 -6.5625 19.0625 C-6.46324219 18.2890625 -6.36398437 17.515625 -6.26171875 16.71875 C-6.04823872 15.16385067 -5.80908984 13.61249326 -5.5625 12.0625 C-6.8825 11.7325 -8.2025 11.4025 -9.5625 11.0625 C-9.2325 9.4125 -8.9025 7.7625 -8.5625 6.0625 C-6.9125 6.0625 -5.2625 6.0625 -3.5625 6.0625 C-3.583125 5.258125 -3.60375 4.45375 -3.625 3.625 C-3.54067676 0.16774696 -3.45725304 0.08432324 0 0 Z " fill="#FFFFFF" transform="translate(367.5625,155.9375)"/>
<path d="M0 0 C1.65 0 3.3 0 5 0 C5 1.98 5 3.96 5 6 C6.32 6 7.64 6 9 6 C9 7.65 9 9.3 9 11 C7.35 11.33 5.7 11.66 4 12 C3.01 17.61 2.02 23.22 1 29 C2.32 29 3.64 29 5 29 C5 30.65 5 32.3 5 34 C1.625 34.125 1.625 34.125 -2 34 C-4 32 -4 32 -4.265625 29.75 C-4.22882278 23.27280975 -3.52944085 17.2952878 -2 11 C-3.32 11 -4.64 11 -6 11 C-6 9.35 -6 7.7 -6 6 C-4.35 6 -2.7 6 -1 6 C-0.67 4.02 -0.34 2.04 0 0 Z " fill="#FFFFFF" transform="translate(1182,156)"/>
<path d="M0 0 C1.2065625 0.0309375 1.2065625 0.0309375 2.4375 0.0625 C0.99231695 13.16422527 -1.22051973 26.0946791 -3.5625 39.0625 C-5.5425 39.0625 -7.5225 39.0625 -9.5625 39.0625 C-8.15140238 28.79158477 -6.71398639 18.52757487 -4.9375 8.3125 C-4.81463623 7.59263916 -4.69177246 6.87277832 -4.56518555 6.13110352 C-3.48917076 0.08510173 -3.48917076 0.08510173 0 0 Z " fill="#FFFFFF" transform="translate(830.5625,150.9375)"/>
<path d="M0 0 C1.65 0 3.3 0 5 0 C4.46088439 8.90001101 3.13288505 17.50238303 1.4375 26.25 C1.20353516 27.48363281 0.96957031 28.71726563 0.72851562 29.98828125 C0.15779986 32.99327447 -0.41845017 35.99708815 -1 39 C-2.98 39 -4.96 39 -7 39 C-6.1669339 33.92746014 -5.3306769 28.85546062 -4.49145508 23.78393555 C-4.20639634 22.05849461 -3.92221093 20.33290915 -3.63891602 18.60717773 C-3.23162541 16.12705614 -2.82119955 13.64747079 -2.41015625 11.16796875 C-2.28407486 10.39599655 -2.15799347 9.62402435 -2.02809143 8.82865906 C-1.52148744 5.78807888 -0.97660035 2.92980106 0 0 Z " fill="#FFFFFF" transform="translate(1292,151)"/>
<path d="M0 0 C1.98 0 3.96 0 6 0 C4.36715058 12.3967647 2.1856349 24.69108965 0 37 C-1.98 37 -3.96 37 -6 37 C-4.65898018 24.52498665 -2.46454511 12.29761374 0 0 Z " fill="#FFFFFF" transform="translate(322,153)"/>
<path d="M0 0 C4.62 0 9.24 0 14 0 C13.67 1.65 13.34 3.3 13 5 C11.2984375 5.680625 11.2984375 5.680625 9.5625 6.375 C5.77834968 7.62670695 5.77834968 7.62670695 4.6875 10.9375 C4.42093658 12.28480422 4.19853158 13.64100407 4 15 C3.82984375 16.01964844 3.6596875 17.03929687 3.484375 18.08984375 C3.12782982 20.23166157 2.7871947 22.37620721 2.46484375 24.5234375 C2 27 2 27 1 28 C-0.66617115 28.04063832 -2.33388095 28.042721 -4 28 C-3.4068511 18.53007103 -1.73572278 9.31177062 0 0 Z " fill="#FFFFFF" transform="translate(434,162)"/>
<path d="M0 0 C1.79244141 0.01740234 1.79244141 0.01740234 3.62109375 0.03515625 C5.41740234 0.04869141 5.41740234 0.04869141 7.25 0.0625 C8.17683594 0.07410156 9.10367188 0.08570313 10.05859375 0.09765625 C9.76953125 2.53515625 9.76953125 2.53515625 9.05859375 5.09765625 C7.94484375 5.42765625 6.83109375 5.75765625 5.68359375 6.09765625 C3.69923097 6.68283685 3.69923097 6.68283685 2.05859375 8.09765625 C0.47643815 12.32452213 -0.18499363 16.66039064 -0.94140625 21.09765625 C-1.54541221 23.45633774 -2.23673991 25.76683682 -2.94140625 28.09765625 C-4.59140625 28.09765625 -6.24140625 28.09765625 -7.94140625 28.09765625 C-4.64569588 0.15423957 -4.64569588 0.15423957 0 0 Z " fill="#FFFFFF" transform="translate(659.94140625,161.90234375)"/>
<path d="M0 0 C1.65 0 3.3 0 5 0 C4.4068511 9.46992897 2.73572278 18.68822938 1 28 C-0.98 28 -2.96 28 -5 28 C-4.54997651 24.64466456 -4.088474 21.29100181 -3.625 17.9375 C-3.49867187 16.99455078 -3.37234375 16.05160156 -3.2421875 15.08007812 C-2.51883702 9.89003845 -1.59315069 4.99418108 0 0 Z " fill="#FFFFFF" transform="translate(1167,162)"/>
<path d="M0 0 C1.65 0 3.3 0 5 0 C4.4068511 9.46992897 2.73572278 18.68822938 1 28 C-0.98 28 -2.96 28 -5 28 C-1.53278689 3.06557377 -1.53278689 3.06557377 0 0 Z " fill="#FFFFFF" transform="translate(977,162)"/>
<path d="M0 0 C1.65 0 3.3 0 5 0 C4.4068511 9.46992897 2.73572278 18.68822938 1 28 C-0.98 28 -2.96 28 -5 28 C-4.54997651 24.64466456 -4.088474 21.29100181 -3.625 17.9375 C-3.49867188 16.99455078 -3.37234375 16.05160156 -3.2421875 15.08007812 C-2.51883702 9.89003845 -1.59315069 4.99418108 0 0 Z " fill="#FFFFFF" transform="translate(813,162)"/>
<path d="M0 0 C1.98 0 3.96 0 6 0 C5.3583007 4.10482421 4.71093527 8.20873492 4.0625 12.3125 C3.88009766 13.47974609 3.69769531 14.64699219 3.50976562 15.84960938 C3.33251953 16.96787109 3.15527344 18.08613281 2.97265625 19.23828125 C2.81031494 20.26993408 2.64797363 21.30158691 2.48071289 22.36450195 C2 25 2 25 1 28 C-0.65 28 -2.3 28 -4 28 C-3.47703913 18.47850555 -1.8815863 9.32509434 0 0 Z " fill="#FFFFFF" transform="translate(1046,162)"/>
<path d="M0 0 C1.98 0 3.96 0 6 0 C5.3583007 4.10482421 4.71093527 8.20873492 4.0625 12.3125 C3.88009766 13.47974609 3.69769531 14.64699219 3.50976562 15.84960938 C3.33251953 16.96787109 3.15527344 18.08613281 2.97265625 19.23828125 C2.81031494 20.26993408 2.64797363 21.30158691 2.48071289 22.36450195 C2 25 2 25 1 28 C-0.65 28 -2.3 28 -4 28 C-3.47703913 18.47850555 -1.8815863 9.32509434 0 0 Z " fill="#FFFFFF" transform="translate(496,162)"/>
<path d="M0 0 C1.65 0 3.3 0 5 0 C5.625 1.875 5.625 1.875 6 4 C5.34 4.66 4.68 5.32 4 6 C1.875 5.625 1.875 5.625 0 5 C0 3.35 0 1.7 0 0 Z " fill="#FFFFFF" transform="translate(1354,184)"/>
<path d="M0 0 C1.65 0 3.3 0 5 0 C5.625 1.875 5.625 1.875 6 4 C5.34 4.66 4.68 5.32 4 6 C1.875 5.625 1.875 5.625 0 5 C0 3.35 0 1.7 0 0 Z " fill="#FFFFFF" transform="translate(1168,153)"/>
<path d="M0 0 C1.65 0 3.3 0 5 0 C5 1.65 5 3.3 5 5 C3.125 5.625 3.125 5.625 1 6 C0.34 5.34 -0.32 4.68 -1 4 C-0.625 1.875 -0.625 1.875 0 0 Z " fill="#FFFFFF" transform="translate(1048,153)"/>
<path d="M0 0 C1.65 0 3.3 0 5 0 C5.625 1.875 5.625 1.875 6 4 C5.34 4.66 4.68 5.32 4 6 C1.875 5.625 1.875 5.625 0 5 C0 3.35 0 1.7 0 0 Z " fill="#FFFFFF" transform="translate(978,153)"/>
<path d="M0 0 C1.65 0 3.3 0 5 0 C5.625 1.875 5.625 1.875 6 4 C5.34 4.66 4.68 5.32 4 6 C1.875 5.625 1.875 5.625 0 5 C0 3.35 0 1.7 0 0 Z " fill="#FFFFFF" transform="translate(814,153)"/>
<path d="M0 0 C1.65 0 3.3 0 5 0 C5 1.65 5 3.3 5 5 C3.125 5.625 3.125 5.625 1 6 C0.34 5.34 -0.32 4.68 -1 4 C-0.625 1.875 -0.625 1.875 0 0 Z " fill="#FFFFFF" transform="translate(498,153)"/>
</svg>
