<?xml version="1.0" encoding="UTF-8"?>
<svg version="1.1" xmlns="http://www.w3.org/2000/svg" width="1361" height="265">
<path d="M0 0 C5.9525724 0.56476019 9.98258238 5.14000634 14.25 8.9375 C16.01504308 10.38210371 17.78600223 11.81950616 19.5625 13.25 C23.68228111 16.62496193 27.75519905 20.05061214 31.8125 23.5 C36.28731151 27.30303702 40.8166863 31.01816313 45.41796875 34.66796875 C51.33000444 39.40575183 57.15232455 44.25435364 62.99462891 49.07763672 C65.21674748 50.91007873 67.44180351 52.73888335 69.66796875 54.56640625 C76.75335862 60.38535617 83.80808917 66.23377234 90.79003906 72.17651367 C94.68428585 75.48245191 98.65720814 78.67514146 102.66015625 81.84765625 C105.71082014 84.30935336 108.70143892 86.83564842 111.6875 89.375 C119.10961887 95.68548369 126.63664801 101.85880794 134.25 107.9375 C135.05179687 108.58074219 135.85359375 109.22398438 136.6796875 109.88671875 C138.5509615 111.37975652 140.43261197 112.85981697 142.3203125 114.33203125 C143.83238281 115.52892578 143.83238281 115.52892578 145.375 116.75 C146.30570312 117.47832031 147.23640625 118.20664063 148.1953125 118.95703125 C149.21238281 119.93736328 149.21238281 119.93736328 150.25 120.9375 C150.25 121.9275 150.25 122.9175 150.25 123.9375 C145.94753444 123.41280908 143.11200751 120.70625853 139.875 118.0625 C138.62127042 117.05707132 137.36735899 116.05186938 136.11328125 115.046875 C135.47342285 114.53060547 134.83356445 114.01433594 134.17431641 113.48242188 C131.74165025 111.52937551 129.28487971 109.6084197 126.82568359 107.68896484 C121.17909966 103.28084518 115.60919785 98.79090408 110.078125 94.23828125 C106.33001222 91.1890569 102.527942 88.21169748 98.72265625 85.234375 C94.37555062 81.83024239 90.0565446 78.39277035 85.75 74.9375 C80.96056835 71.09485233 76.14997425 67.28196281 71.3125 63.5 C65.4398886 58.90644688 59.65026423 54.21583719 53.87280273 49.50341797 C49.72334455 46.12267904 45.54128766 42.79357185 41.30078125 39.52734375 C39.03518098 37.77096411 36.79781681 35.98225356 34.5625 34.1875 C32.79220484 32.77016088 31.0213146 31.35356487 29.25 29.9375 C28.70118164 29.49825195 28.15236328 29.05900391 27.58691406 28.60644531 C19.00302126 21.74509601 19.00302126 21.74509601 10.1875 15.1875 C9.53652344 14.71828125 8.88554687 14.2490625 8.21484375 13.765625 C5.3656544 12.56477382 4.13240999 12.80095753 1.25 13.9375 C-0.81413429 15.9572761 -2.5747433 17.89192068 -4.375 20.125 C-5.15713867 21.06569336 -5.15713867 21.06569336 -5.95507812 22.02539062 C-9.92848077 26.83479334 -13.7753668 31.74545184 -17.59741211 36.67553711 C-21.4091605 41.57146748 -25.41686669 46.27704921 -29.47827148 50.96655273 C-32.99224077 55.03020598 -36.3737086 59.17772908 -39.703125 63.39453125 C-42.10094119 66.37349755 -44.57834033 69.28072575 -47.0625 72.1875 C-50.90368883 76.6882802 -54.61896256 81.26569045 -58.25 85.9375 C-62.73201366 91.70237125 -67.38552014 97.29365783 -72.125 102.84765625 C-76.07605281 107.48176754 -79.90740788 112.21345305 -83.75 116.9375 C-85.24943092 118.77129879 -86.74943458 120.60462943 -88.25 122.4375 C-89.36568359 123.80261719 -89.36568359 123.80261719 -90.50390625 125.1953125 C-91.98691051 127.00586727 -93.47381919 128.81323186 -94.96484375 130.6171875 C-100.72472441 137.60192854 -106.26586828 144.73599927 -111.75 151.9375 C-108.09079694 156.42002374 -104.34700152 160.31732603 -99.94140625 164.0625 C-97.56138917 166.09887825 -95.25085389 168.20078552 -92.9375 170.3125 C-89.53916448 173.38496773 -86.07409477 176.32192622 -82.5 179.1875 C-77.43373972 183.28058034 -72.69774343 187.65318382 -67.96655273 192.12207031 C-63.48325936 196.33100273 -58.83747853 200.19118964 -53.95703125 203.9375 C-51.60499375 206.06890389 -50.23617145 208.14911317 -48.75 210.9375 C-50.98828125 211.65234375 -50.98828125 211.65234375 -53.75 211.9375 C-55.85546875 210.56640625 -55.85546875 210.56640625 -57.9375 208.5 C-60.97891907 205.60815892 -64.01521031 202.84786461 -67.3125 200.25 C-71.79870365 196.70016908 -76.24942581 193.10966133 -80.6875 189.5 C-81.73079468 188.65175659 -81.73079468 188.65175659 -82.79516602 187.78637695 C-87.4833207 183.97266815 -92.16329084 180.14910586 -96.8359375 176.31640625 C-99.10644217 174.46287093 -101.38279075 172.61755506 -103.6640625 170.77734375 C-107.09935476 168.00619731 -110.51829385 165.2158071 -113.93066406 162.41650391 C-115.52960329 161.11666845 -117.14993217 159.84323778 -118.7734375 158.57421875 C-119.59070313 157.91035156 -120.40796875 157.24648437 -121.25 156.5625 C-121.9409375 156.01851562 -122.631875 155.47453125 -123.34375 154.9140625 C-125.57600781 151.77650013 -125.31736523 149.69083921 -124.75 145.9375 C-123.25400454 143.37997263 -121.34576638 141.33049144 -119.3125 139.1875 C-118.19944149 137.95540129 -117.08747142 136.72231847 -115.9765625 135.48828125 C-115.14946777 134.58456787 -115.14946777 134.58456787 -114.30566406 133.66259766 C-112.17785283 131.303038 -110.17997812 128.84929556 -108.1875 126.375 C-104.92221433 122.35391584 -101.6043221 118.38413557 -98.25 114.4375 C-93.34446792 108.66213851 -88.52971173 102.81757702 -83.75 96.9375 C-78.9702825 91.05741588 -74.15526403 85.21309389 -69.25 79.4375 C-65.19881161 74.66688964 -61.20451094 69.85524378 -57.25 65.00390625 C-49.22767991 55.16402927 -41.16674357 45.36713969 -32.87011719 35.75683594 C-29.41938656 31.74916156 -26.09609256 27.65706073 -22.81640625 23.5078125 C-19.83945144 19.80490841 -16.77902431 16.17437752 -13.68212891 12.57128906 C-11.71254994 10.27883959 -9.78827127 7.98949438 -7.99609375 5.5546875 C-5.5216905 2.22401936 -4.07736574 1.01934143 0 0 Z M6.67578125 17.25 C10.3503604 18.2313747 12.69580936 20.42868322 15.4375 22.9375 C16.60063109 23.96199592 17.76470059 24.98542739 18.9296875 26.0078125 C19.4978418 26.5121582 20.06599609 27.01650391 20.65136719 27.53613281 C22.7359815 29.36351311 24.88724841 31.09441993 27.0625 32.8125 C31.40577841 36.25474172 35.70550103 39.74731516 40 43.25 C45.10367162 47.41014577 50.2423432 51.51727666 55.4375 55.5625 C60.6408949 59.61679649 65.69926129 63.8143815 70.71435547 68.09863281 C74.2950549 71.15092472 77.94487429 74.07391205 81.6796875 76.93359375 C85.22378733 79.69669894 88.7037218 82.53642539 92.1875 85.375 C96.52893678 88.91209809 100.87063334 92.44734484 105.25 95.9375 C108.8295177 98.79030353 112.3840348 101.67223509 115.93188477 104.56420898 C122.42475555 109.85676863 128.95902864 115.08623098 135.56201172 120.24072266 C139.55736856 123.36848957 143.44311325 126.58381406 147.25 129.9375 C146.37402465 134.49158691 143.70271973 137.19346044 140.6875 140.5625 C139.58468013 141.82051344 138.48312051 143.07963276 137.3828125 144.33984375 C136.84430664 144.95456543 136.30580078 145.56928711 135.75097656 146.20263672 C133.12992459 149.23210895 130.65625521 152.37421862 128.171875 155.515625 C124.58623264 160.03411741 120.90876306 164.47818708 117.25 168.9375 C115.74971683 170.77060162 114.24971592 172.60393427 112.75 174.4375 C103.75 185.4375 103.75 185.4375 101.48046875 188.2109375 C100.04500065 189.96567784 98.61006204 191.72085155 97.17578125 193.4765625 C91.93794837 199.8858885 86.67822781 206.27693196 81.41455078 212.66503906 C76.68013237 218.41205062 71.96073971 224.17105779 67.25 229.9375 C65.75014304 231.77095036 64.2501406 233.60428171 62.75 235.4375 C62.00492188 236.34886719 61.25984375 237.26023438 60.4921875 238.19921875 C59.02107387 239.99582268 57.54720472 241.79017457 56.0703125 243.58203125 C55.34585938 244.46246094 54.62140625 245.34289062 53.875 246.25 C53.13765625 247.13945312 52.4003125 248.02890625 51.640625 248.9453125 C49.85427155 251.18117319 48.1564357 253.42373543 46.484375 255.7421875 C46.00919434 256.38631592 45.53401367 257.03044434 45.04443359 257.6940918 C44.11719364 258.95545073 43.20767424 260.23008335 42.31884766 261.51879883 C40.06547505 264.55061696 38.65969398 265.83895986 34.953125 266.73046875 C29.73718216 265.61355272 26.654933 262.94445581 22.625 259.5625 C21.01850119 258.26268455 19.41172906 256.96320685 17.8046875 255.6640625 C17.02448242 255.0237207 16.24427734 254.38337891 15.44042969 253.72363281 C12.58864211 251.39821174 9.67852763 249.16556555 6.75 246.9375 C1.40213572 242.83110422 -3.92705429 238.70114373 -9.25 234.5625 C-10.01634766 233.96695313 -10.78269531 233.37140625 -11.57226562 232.7578125 C-13.00559328 231.64257967 -14.43557867 230.52303285 -15.86157227 229.3984375 C-17.45306695 228.16721524 -19.09474504 227.00126291 -20.74609375 225.8515625 C-22.75 223.9375 -22.75 223.9375 -23.37890625 221.484375 C-23.11076684 210.19097393 -20.56791448 198.2017526 -15.75 187.9375 C-14.76 187.6075 -13.77 187.2775 -12.75 186.9375 C-11.925 187.370625 -11.1 187.80375 -10.25 188.25 C13.50338411 199.70252448 52.54426381 190.456481 76.25 182.9375 C83.30052575 180.33750107 90.08867171 177.48722863 94.25 170.9375 C96.03872003 165.41753277 96.63815915 160.28213162 96.625 154.5 C96.62258301 153.3857666 96.62258301 153.3857666 96.62011719 152.24902344 C96.43359317 143.89933043 93.80046446 138.1706419 88.25 131.9375 C71.09015335 120.24617591 45.36294285 120.34712052 25.63696289 124.06884766 C22.11618165 124.85905963 18.68159214 125.82434371 15.25 126.9375 C14.59789551 127.14648926 13.94579102 127.35547852 13.27392578 127.57080078 C-8.50180815 134.82213648 -27.59087913 150.26659692 -38 170.8125 C-41.19550771 177.3433141 -43.71345499 183.95224901 -45.75 190.9375 C-46.04777344 191.91460937 -46.34554687 192.89171875 -46.65234375 193.8984375 C-47.36438492 196.24128265 -48.06358464 198.58704739 -48.75 200.9375 C-52.97249693 200.42231497 -55.55957118 197.83090894 -58.625 195.125 C-59.19089844 194.63507568 -59.75679687 194.14515137 -60.33984375 193.64038086 C-61.53960958 192.60162756 -62.73715251 191.56030203 -63.93261719 190.51660156 C-65.69633808 188.98412618 -67.47365086 187.46953752 -69.2578125 185.9609375 C-75.66485962 180.53524673 -81.92345047 174.99140725 -88.04223633 169.2421875 C-92.36582269 165.20870758 -96.89537592 161.5517751 -101.60546875 157.97265625 C-103.94742513 155.75014391 -104.79904364 153.99224809 -105.75 150.9375 C-92.50438505 134.78594447 -92.50438505 134.78594447 -85.9375 127.0625 C-81.99086032 122.41910263 -78.10349532 117.73199515 -74.25390625 113.0078125 C-66.43971525 103.42598079 -58.58306826 93.88179692 -50.57592773 84.46044922 C-47.08464959 80.34754229 -43.65852938 76.1854414 -40.25 72.00390625 C-32.77927528 62.84059547 -25.30260531 53.68782754 -17.5625 44.75 C-12.59258818 39.00741316 -7.87191623 33.09773749 -3.22265625 27.09375 C-2.81289551 26.57425781 -2.40313477 26.05476563 -1.98095703 25.51953125 C-1.13246085 24.42904033 -0.3063935 23.3208506 0.50048828 22.19921875 C2.36945817 19.71211274 3.63019427 18.11316153 6.67578125 17.25 Z M46.8125 136.625 C47.52857422 136.60888672 48.24464844 136.59277344 48.98242188 136.57617188 C54.97468067 136.57071941 59.71622416 137.91399846 64.5 141.734375 C69.16057199 146.93590623 69.16057199 146.93590623 69.5625 151.4375 C65.72577942 161.66875488 57.28713731 168.13445553 47.6015625 172.73828125 C37.51685677 177.2632677 29.35881506 178.14262231 18.375 178.1875 C17.12074219 178.208125 15.86648437 178.22875 14.57421875 178.25 C8.05239483 178.2776056 2.96155365 178.23454846 -2.75 174.9375 C-3.08 174.6075 -3.41 174.2775 -3.75 173.9375 C-3.58946435 166.23178885 0.53087473 160.95058476 5.5625 155.375 C6.449375 154.570625 7.33625 153.76625 8.25 152.9375 C8.86230469 152.32132813 9.47460938 151.70515625 10.10546875 151.0703125 C20.18276858 141.34177168 32.93612 136.56221095 46.8125 136.625 Z " fill="#FE0000" transform="translate(124.75,-0.9375)"/>
<path d="M0 0 C4.29 0 8.58 0 13 0 C14.33205208 3.99615623 15.35429574 7.34100919 16.0703125 11.3984375 C16.24433594 12.37167969 16.41835938 13.34492187 16.59765625 14.34765625 C16.77167969 15.34667969 16.94570313 16.34570312 17.125 17.375 C17.30675781 18.39722656 17.48851562 19.41945313 17.67578125 20.47265625 C18.12120399 22.98108959 18.56248464 25.49017754 19 28 C19.26478149 26.83428467 19.26478149 26.83428467 19.53491211 25.64501953 C20.33311968 22.1377359 21.13525881 18.63136309 21.9375 15.125 C22.21529297 13.90167969 22.49308594 12.67835937 22.77929688 11.41796875 C23.04677734 10.25136719 23.31425781 9.08476563 23.58984375 7.8828125 C23.83597412 6.80402832 24.08210449 5.72524414 24.33569336 4.61376953 C25 2 25 2 26 0 C29.96 0 33.92 0 38 0 C38.63228516 2.79791016 38.63228516 2.79791016 39.27734375 5.65234375 C39.83053799 8.08077272 40.38393379 10.50915579 40.9375 12.9375 C41.35418945 14.78504883 41.35418945 14.78504883 41.77929688 16.66992188 C42.04677734 17.83974609 42.31425781 19.00957031 42.58984375 20.21484375 C42.95903931 21.84087524 42.95903931 21.84087524 43.33569336 23.49975586 C43.75564551 25.92291882 43.75564551 25.92291882 45 27 C46.65 18.09 48.3 9.18 50 0 C54.62 0 59.24 0 64 0 C63.36495125 6.78499459 62.19427809 13.29331698 60.71484375 19.94140625 C60.49429825 20.94968979 60.27375275 21.95797333 60.04652405 22.99681091 C59.34783545 26.18634039 58.64277595 29.37442139 57.9375 32.5625 C57.45986317 34.7375373 56.98264544 36.91266667 56.50585938 39.08789062 C55.34208265 44.39300403 54.17259395 49.69682881 53 55 C48.05 55 43.1 55 38 55 C36.02 46.42 34.04 37.84 32 29 C30.06650775 37.18157066 30.06650775 37.18157066 28.14086914 45.36499023 C27.89973389 46.37762939 27.65859863 47.39026855 27.41015625 48.43359375 C27.16402588 49.47572021 26.91789551 50.51784668 26.66430664 51.59155273 C26 54 26 54 25 55 C22.64686445 55.07271741 20.29166332 55.08370868 17.9375 55.0625 C16.64714844 55.05347656 15.35679687 55.04445312 14.02734375 55.03515625 C13.02832031 55.02355469 12.02929688 55.01195312 11 55 C7.9260929 41.92117 4.90403828 28.83256539 2.125 15.6875 C1.91012939 14.6871875 1.69525879 13.686875 1.47387695 12.65625 C1.27882568 11.72167969 1.08377441 10.78710938 0.8828125 9.82421875 C0.71152832 9.01041748 0.54024414 8.19661621 0.36376953 7.3581543 C0 5 0 5 0 0 Z " fill="#FFFFFF" transform="translate(799,66)"/>
<path d="M0 0 C14 0 14 0 17.30859375 3.296875 C18.44335938 5.45703125 18.44335938 5.45703125 19.4375 7.75 C20.1643231 9.20364621 20.89221457 10.65675865 21.62109375 12.109375 C22.40613281 13.72328125 23.19117188 15.3371875 24 17 C27.465 22.94 27.465 22.94 31 29 C31.33 19.43 31.66 9.86 32 0 C36.62 0 41.24 0 46 0 C46 18.15 46 36.3 46 55 C32 55 32 55 28.69140625 51.703125 C27.55664062 49.54296875 27.55664062 49.54296875 26.5625 47.25 C25.8356769 45.79635379 25.10778543 44.34324135 24.37890625 42.890625 C23.59386719 41.27671875 22.80882812 39.6628125 22 38 C18.535 32.06 18.535 32.06 15 26 C14.67 35.57 14.34 45.14 14 55 C9.38 55 4.76 55 0 55 C0 36.85 0 18.7 0 0 Z " fill="#FFFFFF" transform="translate(1067,66)"/>
<path d="M0 0 C32.4 0 32.4 0 39 5.5 C43.25844985 10.82306231 42.59217239 17.48610374 42 24 C40.57601309 27.82079656 38.39818168 29.73454555 35 32 C36.62147732 37.34759945 39.01408818 42.1350778 41.609375 47.05273438 C43.08497109 49.9140268 44 51.73064098 44 55 C39.05 55 34.1 55 29 55 C28.12988281 53.06833984 28.12988281 53.06833984 27.2421875 51.09765625 C26.45430516 49.41871651 25.66517746 47.74036079 24.875 46.0625 C24.49601562 45.21236328 24.11703125 44.36222656 23.7265625 43.48632812 C23.33984375 42.67744141 22.953125 41.86855469 22.5546875 41.03515625 C22.03624268 39.91185913 22.03624268 39.91185913 21.50732422 38.76586914 C19.7234996 36.29253186 19.7234996 36.29253186 14 36 C14 42.27 14 48.54 14 55 C9.38 55 4.76 55 0 55 C0 36.85 0 18.7 0 0 Z M14 11 C14 15.62 14 20.24 14 25 C15.5675 25.061875 17.135 25.12375 18.75 25.1875 C19.63171875 25.22230469 20.5134375 25.25710937 21.421875 25.29296875 C24.49134624 24.9441652 25.77552486 24.10396182 28 22 C29.08805146 19.6433774 29.08805146 19.6433774 29 17 C27.24886475 13.28738773 27.24886475 13.28738773 24 11 C22.29297265 10.93003986 20.58331997 10.91559846 18.875 10.9375 C17.26625 10.958125 15.6575 10.97875 14 11 Z " fill="#FFFFFF" transform="translate(460,66)"/>
<path d="M0 0 C4.62 0 9.24 0 14 0 C14 6.93 14 13.86 14 21 C19.94 21 25.88 21 32 21 C32 14.07 32 7.14 32 0 C36.29 0 40.58 0 45 0 C45 18.15 45 36.3 45 55 C40.71 55 36.42 55 32 55 C32 47.41 32 39.82 32 32 C26.06 32 20.12 32 14 32 C14 39.59 14 47.18 14 55 C9.38 55 4.76 55 0 55 C0 36.85 0 18.7 0 0 Z " fill="#FFFFFF" transform="translate(989,66)"/>
<path d="M0 0 C5.42828607 5.0107256 6.94423695 9.09768576 7.4375 16.25 C2.8175 16.25 -1.8025 16.25 -6.5625 16.25 C-6.93375 15.115625 -7.305 13.98125 -7.6875 12.8125 C-8.45528998 10.88356806 -8.45528998 10.88356806 -9.5625 9.25 C-13.02837635 7.89378752 -14.75357056 7.96781531 -18.25 9.1875 C-22.22181746 12.72993179 -23.30465393 16.81988908 -23.84765625 21.9375 C-24.04331534 28.06248029 -23.26665878 32.7415284 -20.5625 38.25 C-17.14155758 40.53062828 -15.88062778 40.46925007 -11.875 40.375 C-10.88113281 40.35695312 -9.88726563 40.33890625 -8.86328125 40.3203125 C-8.10402344 40.29710937 -7.34476563 40.27390625 -6.5625 40.25 C-6.5625 37.61 -6.5625 34.97 -6.5625 32.25 C-9.5325 32.25 -12.5025 32.25 -15.5625 32.25 C-15.5625 28.95 -15.5625 25.65 -15.5625 22.25 C-7.9725 22.25 -0.3825 22.25 7.4375 22.25 C7.5921875 27.81875 7.5921875 27.81875 7.75 33.5 C7.79552002 34.6643457 7.84104004 35.82869141 7.88793945 37.02832031 C7.99057711 44.62218274 7.99057711 44.62218274 5.125 47.875 C4.238125 48.32875 3.35125 48.7825 2.4375 49.25 C0.7978125 50.11625 0.7978125 50.11625 -0.875 51 C-8.18923935 53.52167109 -19.05067997 53.88391361 -26.1875 50.6875 C-32.57275968 46.64209266 -36.23260691 41.34416461 -38.09375 34.0546875 C-39.82151863 23.71687189 -39.02753122 13.38849572 -33.375 4.375 C-29.85111191 -0.1253872 -25.18743999 -2.15587778 -19.71484375 -3.39453125 C-12.98552365 -4.15335173 -6.06187973 -2.97776548 0 0 Z " fill="#FFFFFF" transform="translate(1158.5625,68.75)"/>
<path d="M0 0 C5.03752507 4.77919045 6.87881147 9.46856548 7.4375 16.3125 C2.8175 16.3125 -1.8025 16.3125 -6.5625 16.3125 C-7.2225 14.3325 -7.8825 12.3525 -8.5625 10.3125 C-12.87622772 8.44050495 -16.0489042 7.9447437 -20.5625 9.3125 C-23.99358638 17.40006075 -24.83425621 25.75976857 -22.8125 34.375 C-21.41549554 37.65796048 -20.599203 38.54455647 -17.5625 40.3125 C-14.74420117 40.67350534 -14.74420117 40.67350534 -11.8125 40.5 C-10.82765625 40.47292969 -9.8428125 40.44585937 -8.828125 40.41796875 C-7.70664062 40.36576172 -7.70664062 40.36576172 -6.5625 40.3125 C-6.5625 37.6725 -6.5625 35.0325 -6.5625 32.3125 C-9.5325 32.3125 -12.5025 32.3125 -15.5625 32.3125 C-15.5625 29.0125 -15.5625 25.7125 -15.5625 22.3125 C-7.9725 22.3125 -0.3825 22.3125 7.4375 22.3125 C7.5921875 27.88125 7.5921875 27.88125 7.75 33.5625 C7.79552002 34.7268457 7.84104004 35.89119141 7.88793945 37.09082031 C7.99057711 44.68468274 7.99057711 44.68468274 5.125 47.9375 C4.238125 48.39125 3.35125 48.845 2.4375 49.3125 C0.7978125 50.17875 0.7978125 50.17875 -0.875 51.0625 C-8.18923935 53.58417109 -19.05067997 53.94641361 -26.1875 50.75 C-32.11574509 47.00722275 -36.15615543 41.7666978 -38.09375 35.03125 C-39.95977011 24.20833337 -38.98779346 14.57251908 -33.75 5 C-29.77349776 0.11458296 -25.30939567 -2.33936048 -19.1953125 -3.5 C-12.53930065 -3.97401865 -6.01529987 -2.84935257 0 0 Z " fill="#FFFFFF" transform="translate(973.5625,68.6875)"/>
<path d="M0 0 C5.81155957 2.62930754 9.8864176 7.29647306 12.76171875 12.91015625 C15.95367671 24.22709812 15.20195627 35.24426022 9.69921875 45.66015625 C6.27749823 49.74721131 2.52183245 52.65678502 -2.55078125 54.34765625 C-10.48546241 54.96266966 -18.04858519 55.4705986 -24.55078125 50.34765625 C-30.69505964 44.92044468 -33.14253822 38.89376995 -33.8671875 30.82421875 C-34.14712201 21.92049529 -33.78746467 13.14865201 -27.64453125 6.1875 C-19.59427903 -1.12681499 -10.61869709 -2.71565454 0 0 Z M-18.55078125 16.34765625 C-20.66385725 22.70034335 -20.4509004 30.61170938 -18.30078125 36.91015625 C-16.25550579 41.0199242 -16.25550579 41.0199242 -12.55078125 43.34765625 C-9.59357497 44.01445993 -9.59357497 44.01445993 -6.55078125 43.34765625 C-2.04547849 39.96867918 -0.55474235 36.82380769 0.44921875 31.34765625 C1.14585881 24.55541571 0.45933088 17.15126499 -3.9140625 11.625 C-6.28275527 9.77640206 -8.61641282 9.75683581 -11.546875 9.859375 C-15.31653775 10.77790881 -16.51978997 13.14730635 -18.55078125 16.34765625 Z " fill="#FFFFFF" transform="translate(613.55078125,66.65234375)"/>
<path d="M0 0 C4.62 0 9.24 0 14 0 C16.71424573 7.18682422 19.41992628 14.37679144 22.11767578 21.56982422 C23.03686833 24.01699987 23.95840656 26.46329578 24.88232422 28.90869141 C26.2089632 32.42122104 27.52716946 35.93681491 28.84375 39.453125 C29.46715271 41.0955014 29.46715271 41.0955014 30.10314941 42.77105713 C30.4835437 43.79181335 30.86393799 44.81256958 31.25585938 45.86425781 C31.59339233 46.76138489 31.93092529 47.65851196 32.27868652 48.58282471 C33 51 33 51 33 55 C28.05 55 23.1 55 18 55 C17.01 50.05 17.01 50.05 16 45 C10.06 45 4.12 45 -2 45 C-2.33 47.31 -2.66 49.62 -3 52 C-3.33 52.99 -3.66 53.98 -4 55 C-8.95 55 -13.9 55 -19 55 C-18.29898035 50.7938821 -17.66862048 47.69291961 -16.23413086 43.82080078 C-15.87383286 42.84023712 -15.51353485 41.85967346 -15.14231873 40.84939575 C-14.75375198 39.80854828 -14.36518524 38.76770081 -13.96484375 37.6953125 C-13.56672989 36.61619598 -13.16861603 35.53707947 -12.75843811 34.42526245 C-11.4897734 30.98997527 -10.21374521 27.55747723 -8.9375 24.125 C-8.07438227 21.79184696 -7.21174648 19.45851557 -6.34960938 17.125 C-4.23865294 11.41458458 -2.12108982 5.70665879 0 0 Z M7 19 C6.34865075 20.56020867 5.70417036 22.12328579 5.0625 23.6875 C4.70285156 24.55761719 4.34320312 25.42773438 3.97265625 26.32421875 C3.0429688 28.88179265 2.45837375 31.3221323 2 34 C5.3 34 8.6 34 12 34 C11.54901762 32.06077578 11.08894441 30.12366406 10.625 28.1875 C10.36976563 27.10855469 10.11453125 26.02960938 9.8515625 24.91796875 C9.11267119 21.84466657 9.11267119 21.84466657 7 19 Z " fill="#FFFFFF" transform="translate(649,66)"/>
<path d="M0 0 C3.15560242 2.51739069 5.40123985 5.2280522 7.1875 8.875 C7.1875 10.855 7.1875 12.835 7.1875 14.875 C2.5675 14.875 -2.0525 14.875 -6.8125 14.875 C-7.4725 13.225 -8.1325 11.575 -8.8125 9.875 C-14.09449593 8.67511955 -14.09449593 8.67511955 -18.8125 10.875 C-19.00303427 13.26477378 -19.00303427 13.26477378 -17.8125 15.875 C-15.07654116 17.62727884 -12.08826786 18.71559362 -9.0625 19.875 C-2.46085276 22.45278607 2.4933587 24.67867082 6.4765625 30.8828125 C8.31639816 36.03839593 7.87712369 41.3233467 5.6875 46.25 C0.77957689 51.40331926 -3.39184845 53.02749639 -10.58398438 53.3984375 C-18.19163701 53.53971239 -24.63250516 52.62594938 -30.8125 47.875 C-34.86004075 43.43257722 -35.41316615 39.6653408 -35.8125 33.875 C-31.1925 33.875 -26.5725 33.875 -21.8125 33.875 C-21.1525 35.855 -20.4925 37.835 -19.8125 39.875 C-16.77903378 41.81304786 -15.15155795 41.90760173 -11.5625 41.5625 C-8.91790017 41.15189876 -8.91790017 41.15189876 -7.8125 39.875 C-7.77186168 38.20882885 -7.769779 36.54111905 -7.8125 34.875 C-12.1331999 32.63463709 -16.37382449 30.63159167 -20.9375 28.9375 C-25.91595641 26.98441325 -30.06580784 24.72993822 -32.9453125 20.0234375 C-34.54531546 16.05946621 -34.32987862 12.06709339 -33.8125 7.875 C-31.81215739 3.37422913 -29.10386881 0.60638777 -24.55078125 -1.42578125 C-16.995666 -3.35497616 -6.92464911 -4.02959807 0 0 Z " fill="#FFFFFF" transform="translate(445.8125,68.125)"/>
<path d="M0 0 C1.79244141 0.01740234 1.79244141 0.01740234 3.62109375 0.03515625 C5.41740234 0.04869141 5.41740234 0.04869141 7.25 0.0625 C8.17683594 0.07410156 9.10367188 0.08570312 10.05859375 0.09765625 C12.77366481 7.2841631 15.47852194 14.47445278 18.17626953 21.66748047 C19.09546208 24.11465612 20.01700031 26.56095203 20.94091797 29.00634766 C22.26755695 32.51887729 23.58576321 36.03447116 24.90234375 39.55078125 C25.52574646 41.19315765 25.52574646 41.19315765 26.16174316 42.86871338 C26.54213745 43.8894696 26.92253174 44.91022583 27.31445312 45.96191406 C27.65198608 46.85904114 27.98951904 47.75616821 28.33728027 48.68048096 C29.05859375 51.09765625 29.05859375 51.09765625 29.05859375 55.09765625 C24.43859375 55.09765625 19.81859375 55.09765625 15.05859375 55.09765625 C12.05859375 48.47265625 12.05859375 48.47265625 12.05859375 45.09765625 C3.64359375 45.59265625 3.64359375 45.59265625 -4.94140625 46.09765625 C-5.93140625 49.06765625 -6.92140625 52.03765625 -7.94140625 55.09765625 C-12.89140625 55.09765625 -17.84140625 55.09765625 -22.94140625 55.09765625 C-22.21364405 51.45884525 -21.45034685 48.47551404 -20.19140625 45.04785156 C-19.83433594 44.07044006 -19.47726562 43.09302856 -19.109375 42.08599854 C-18.72394531 41.04312683 -18.33851563 40.00025513 -17.94140625 38.92578125 C-17.54566406 37.84762146 -17.14992188 36.76946167 -16.7421875 35.65863037 C-15.90672873 33.38520903 -15.06944679 31.11245698 -14.23046875 28.84033203 C-12.94170462 25.34846467 -11.65989636 21.8541007 -10.37890625 18.359375 C-9.56681854 16.15219201 -8.75433238 13.94515558 -7.94140625 11.73828125 C-7.55597656 10.68731262 -7.17054688 9.63634399 -6.7734375 8.55352783 C-6.41636719 7.58872498 -6.05929687 6.62392212 -5.69140625 5.62988281 C-5.376875 4.77670471 -5.06234375 3.92352661 -4.73828125 3.04449463 C-3.49616405 0.0098889 -3.46624527 0.11508118 0 0 Z M3.05859375 19.09765625 C0.78483083 24.05859353 -0.72764591 28.77578398 -1.94140625 34.09765625 C1.35859375 34.09765625 4.65859375 34.09765625 8.05859375 34.09765625 C7.60761137 32.15843203 7.14753816 30.22132031 6.68359375 28.28515625 C6.42835938 27.20621094 6.173125 26.12726563 5.91015625 25.015625 C5.17126494 21.94232282 5.17126494 21.94232282 3.05859375 19.09765625 Z " fill="#FFFFFF" transform="translate(377.94140625,65.90234375)"/>
<path d="M0 0 C1.98404165 1.19116255 3.57524278 2.39782271 5.2265625 4.01171875 C5.8659375 4.60984375 6.5053125 5.20796875 7.1640625 5.82421875 C8.78071093 9.15261257 8.92002588 12.33327933 9.2265625 16.01171875 C4.6065625 16.01171875 -0.0134375 16.01171875 -4.7734375 16.01171875 C-5.4334375 14.36171875 -6.0934375 12.71171875 -6.7734375 11.01171875 C-10.07911239 10.1578477 -10.07911239 10.1578477 -13.7734375 10.01171875 C-16.23515903 11.80390975 -16.23515903 11.80390975 -17.7734375 14.01171875 C-14.3571793 18.07405687 -10.70230494 19.46534762 -5.8984375 21.32421875 C1.15627644 24.21142429 5.67661239 26.91181853 9.2265625 34.01171875 C9.81404566 39.66059528 9.56130078 44.23192721 6.2265625 49.01171875 C-1.31453765 54.82465012 -9.59366237 55.08356117 -18.7734375 54.01171875 C-23.78038267 52.50901167 -27.4324562 50.18916574 -31.3359375 46.76171875 C-33.38872454 42.83464788 -33.50993943 39.42531148 -33.7734375 35.01171875 C-29.1534375 35.01171875 -24.5334375 35.01171875 -19.7734375 35.01171875 C-19.4228125 36.14609375 -19.0721875 37.28046875 -18.7109375 38.44921875 C-17.95896395 40.39394498 -17.95896395 40.39394498 -16.7734375 42.01171875 C-13.11070447 43.14383623 -10.93607838 43.45888832 -7.3359375 42.07421875 C-6.8203125 41.72359375 -6.3046875 41.37296875 -5.7734375 41.01171875 C-5.7734375 39.03171875 -5.7734375 37.05171875 -5.7734375 35.01171875 C-7.0109375 34.64046875 -8.2484375 34.26921875 -9.5234375 33.88671875 C-18.33230822 30.92716155 -27.40009651 27.75840074 -31.7734375 19.01171875 C-32.3075394 14.14351125 -32.27731262 10.14543778 -30.2734375 5.63671875 C-22.72678499 -2.28726639 -10.21197146 -3.63891378 0 0 Z " fill="#FFFFFF" transform="translate(718.7734375,66.98828125)"/>
<path d="M0 0 C12.54 0 25.08 0 38 0 C38 3.63 38 7.26 38 11 C30.08 11 22.16 11 14 11 C14 14.3 14 17.6 14 21 C20.6 21 27.2 21 34 21 C34 24.63 34 28.26 34 32 C27.4 32 20.8 32 14 32 C14 35.96 14 39.92 14 44 C21.59 44 29.18 44 37 44 C37 47.63 37 51.26 37 55 C24.79 55 12.58 55 0 55 C0 36.85 0 18.7 0 0 Z " fill="#FFFFFF" transform="translate(316,66)"/>
<path d="M0 0 C12.21 0 24.42 0 37 0 C37 3.63 37 7.26 37 11 C29.08 11 21.16 11 13 11 C13 14.3 13 17.6 13 21 C19.93 21 26.86 21 34 21 C34 24.63 34 28.26 34 32 C27.07 32 20.14 32 13 32 C13 35.96 13 39.92 13 44 C20.92 44 28.84 44 37 44 C37 47.63 37 51.26 37 55 C24.79 55 12.58 55 0 55 C0 36.85 0 18.7 0 0 Z " fill="#FFFFFF" transform="translate(869,66)"/>
<path d="M0 0 C4.39045796 3.61806257 6.87206544 7.10923647 8.484375 12.55078125 C8.484375 14.20078125 8.484375 15.85078125 8.484375 17.55078125 C3.864375 17.55078125 -0.755625 17.55078125 -5.515625 17.55078125 C-5.804375 16.41640625 -6.093125 15.28203125 -6.390625 14.11328125 C-6.761875 12.93765625 -7.133125 11.76203125 -7.515625 10.55078125 C-10.63112372 8.99303189 -14.1200638 8.98597503 -17.515625 9.55078125 C-20.83620423 12.08185213 -21.45402058 14.78448553 -22.234375 18.73828125 C-22.89193062 25.31383749 -23.26699725 33.82857937 -19.515625 39.55078125 C-16.42388748 41.09665001 -13.92132948 40.84437646 -10.515625 40.55078125 C-7.60845427 38.33215096 -6.67580857 37.03133196 -5.515625 33.55078125 C-0.895625 33.55078125 3.724375 33.55078125 8.484375 33.55078125 C7.83149386 40.21016884 6.50645879 43.66057249 1.609375 48.23828125 C-5.55229733 53.53791878 -12.95135985 53.25232212 -21.515625 52.55078125 C-26.83634054 51.33485086 -29.70581813 48.7110367 -32.890625 44.36328125 C-38.26740328 35.40685439 -38.62259186 25.07015856 -36.890625 14.92578125 C-35.38955665 9.1195655 -32.47917702 3.69374815 -27.5546875 0.1328125 C-19.11835072 -4.34394092 -8.4352388 -4.85943105 0 0 Z " fill="#FFFFFF" transform="translate(566.515625,68.44921875)"/>
<path d="M0 0 C15.18 0 30.36 0 46 0 C46 3.63 46 7.26 46 11 C40.72 11 35.44 11 30 11 C30 25.52 30 40.04 30 55 C25.38 55 20.76 55 16 55 C16 40.48 16 25.96 16 11 C10.72 11 5.44 11 0 11 C0 7.37 0 3.74 0 0 Z " fill="#FFFFFF" transform="translate(732,66)"/>
<path d="M0 0 C4.62 0 9.24 0 14 0 C14 18.15 14 36.3 14 55 C9.38 55 4.76 55 0 55 C0 36.85 0 18.7 0 0 Z " fill="#FFFFFF" transform="translate(1044,66)"/>
<path d="M0 0 C4.62 0 9.24 0 14 0 C14 18.15 14 36.3 14 55 C9.38 55 4.76 55 0 55 C0 36.85 0 18.7 0 0 Z " fill="#FFFFFF" transform="translate(913,66)"/>
<path d="M0 0 C0.99 0 1.98 0 3 0 C4.66666667 0 6.33333333 0 8 0 C7.67005459 7.19280987 6.55173053 14.24191221 5.25 21.3125 C5.10530273 22.17198242 4.96060547 23.03146484 4.81152344 23.91699219 C3.71130546 29.62701234 2.21258796 32.9360156 -2 37 C-6.26183659 38.4206122 -10.71273845 39.10270083 -14.85546875 37.10546875 C-16.28816368 36.14239828 -17.65198441 35.07841247 -19 34 C-18.34 32.68 -17.68 31.36 -17 30 C-16.29875 30.33 -15.5975 30.66 -14.875 31 C-11.58974033 32.14269902 -9.44904829 32.51368804 -6 32 C-3.59593616 29.62157423 -3.59593616 29.62157423 -2 27 C-2.66 27.33 -3.32 27.66 -4 28 C-11.21726041 28.58203713 -11.21726041 28.58203713 -14.4375 26.1875 C-17.60185583 21.75740184 -17.46581975 17.23412012 -17 12 C-16.06390935 7.79864827 -14.66763295 4.78545052 -11.875 1.5 C-7.84889846 -0.60057472 -4.44221641 -0.29947526 0 0 Z M-4 4 C-7.6360867 5.91372984 -9.51624342 7.14767788 -11 11 C-11.31407971 13.52129245 -11.31407971 13.52129245 -11.25 16.125 C-11.25515625 16.99382812 -11.2603125 17.86265625 -11.265625 18.7578125 C-11.2106341 21.20203887 -11.2106341 21.20203887 -9 23 C-6.58517587 23.50059916 -6.58517587 23.50059916 -4 23 C-1.13881463 20.79340317 -0.1139698 19.56400438 0.609375 15.984375 C0.67898438 14.38335937 0.67898438 14.38335937 0.75 12.75 C0.80671875 11.67234375 0.8634375 10.5946875 0.921875 9.484375 C0.94765625 8.66453125 0.9734375 7.8446875 1 7 C-0.65 6.01 -2.3 5.02 -4 4 Z " fill="#FFFFFF" transform="translate(421,162)"/>
<path d="M0 0 C0.99 0 1.98 0 3 0 C4.66666667 0 6.33333333 0 8 0 C7.39352576 6.98010413 6.48748285 13.85402703 5.25 20.75 C5.0334375 22.10931641 5.0334375 22.10931641 4.8125 23.49609375 C3.74533424 29.39132397 2.37613298 32.83864655 -2 37 C-6.26183659 38.4206122 -10.71273845 39.10270083 -14.85546875 37.10546875 C-16.28816368 36.14239828 -17.65198441 35.07841247 -19 34 C-18.34 32.68 -17.68 31.36 -17 30 C-16.29875 30.33 -15.5975 30.66 -14.875 31 C-11.58974033 32.14269902 -9.44904829 32.51368804 -6 32 C-3.59593616 29.62157423 -3.59593616 29.62157423 -2 27 C-2.66 27.33 -3.32 27.66 -4 28 C-11.21726041 28.58203713 -11.21726041 28.58203713 -14.4375 26.1875 C-17.7456059 21.55615174 -17.59140772 16.4765975 -17 11 C-15.74984031 7.13940325 -13.91991395 4.09026838 -11.3125 1 C-7.62130041 -0.59619442 -3.9580865 -0.19681093 0 0 Z M-4 4 C-7.68982098 5.59559826 -9.37481905 7.16322263 -10.875 10.8125 C-12.07943911 14.50747421 -12.16866603 17.22430975 -11 21 C-9.17899853 23.19920496 -9.17899853 23.19920496 -6.625 23.4375 C-3.87041777 23.19907802 -3.87041777 23.19907802 -1.75 21.1875 C0.76278888 16.61063455 0.81957918 12.15101436 1 7 C-0.65 6.01 -2.3 5.02 -4 4 Z " fill="#FFFFFF" transform="translate(1102,162)"/>
<path d="M0 0 C0.99 0 1.98 0 3 0 C4.66666667 0 6.33333333 0 8 0 C4.48275862 31.48965517 4.48275862 31.48965517 -2 37 C-6.26183659 38.4206122 -10.71273845 39.10270083 -14.85546875 37.10546875 C-16.28816368 36.14239828 -17.65198441 35.07841247 -19 34 C-18.34 32.68 -17.68 31.36 -17 30 C-16.29875 30.33 -15.5975 30.66 -14.875 31 C-11.58974033 32.14269902 -9.44904829 32.51368804 -6 32 C-3.59593616 29.62157423 -3.59593616 29.62157423 -2 27 C-2.66 27.33 -3.32 27.66 -4 28 C-11.21726041 28.58203713 -11.21726041 28.58203713 -14.4375 26.1875 C-17.7456059 21.55615174 -17.59140772 16.4765975 -17 11 C-15.74984031 7.13940325 -13.91991395 4.09026838 -11.3125 1 C-7.62130041 -0.59619442 -3.9580865 -0.19681093 0 0 Z M-9.3125 7 C-11.39390597 10.70027729 -12.21395162 13.7551999 -12 18 C-11.07979268 21.03824575 -11.07979268 21.03824575 -9 23 C-6.54412036 23.83356413 -6.54412036 23.83356413 -4 23 C-0.22807746 19.96150685 0.35408143 16.92808083 0.875 12.3125 C1.17432452 9.50467759 1.17432452 9.50467759 1 7 C-0.87668319 4.72819646 -0.87668319 4.72819646 -3.875 4.5625 C-7.10686308 4.72662334 -7.10686308 4.72662334 -9.3125 7 Z " fill="#FFFFFF" transform="translate(552,162)"/>
<path d="M0 0 C1.31677734 0.02707031 1.31677734 0.02707031 2.66015625 0.0546875 C3.41167969 0.07789063 4.16320312 0.10109375 4.9375 0.125 C5.5975 0.125 6.2575 0.125 6.9375 0.125 C8.9375 0.125 10.9375 0.125 12.9375 0.125 C12.31780141 4.29075163 11.67833344 8.45285519 11.02099609 12.61279297 C10.80047041 14.02603003 10.58520964 15.44009973 10.37548828 16.85498047 C10.07170357 18.89796864 9.74861089 20.93713445 9.421875 22.9765625 C9.23334961 24.20197754 9.04482422 25.42739258 8.85058594 26.68994141 C7.68347474 31.08065117 5.80541573 34.65735192 2.1875 37.5 C-2.57059412 38.82169281 -6.57213921 38.74598366 -11.0625 36.875 C-11.7225 36.2975 -12.3825 35.72 -13.0625 35.125 C-13.0625 33.805 -13.0625 32.485 -13.0625 31.125 C-11.7425 31.125 -10.4225 31.125 -9.0625 31.125 C-8.7325 31.455 -8.4025 31.785 -8.0625 32.125 C-4.64678147 32.62531206 -4.64678147 32.62531206 -1.0625 32.125 C0.94614359 29.7523026 0.94614359 29.7523026 1.9375 27.125 C1.2775 27.455 0.6175 27.785 -0.0625 28.125 C-4.16100772 28.58898201 -6.39353277 28.50930032 -10 26.4375 C-13.25447361 21.21061814 -12.85624202 16.11414433 -12.0625 10.125 C-9.98819496 3.53958497 -7.17301857 -0.19015366 0 0 Z M-4.375 6.9375 C-7.49680572 10.98428519 -7.6144967 15.20814048 -7.0625 20.125 C-6.12041909 22.31911252 -6.12041909 22.31911252 -4.0625 23.125 C-0.41515021 22.90169287 1.32122835 22.74127165 3.9375 20.125 C4.70006181 17.07921432 4.70006181 17.07921432 5.1875 13.625 C5.37828125 12.4596875 5.5690625 11.294375 5.765625 10.09375 C5.82234375 9.1140625 5.8790625 8.134375 5.9375 7.125 C4.06325284 4.844279 4.06325284 4.844279 1.0625 4.75 C-2.1358401 4.85974715 -2.1358401 4.85974715 -4.375 6.9375 Z " fill="#FFFFFF" transform="translate(1000.0625,161.875)"/>
<path d="M0 0 C1.65 0 3.3 0 5 0 C6.06723961 3.46222615 6.10173486 6.64039266 6.0625 10.25 C6.05347656 11.32765625 6.04445313 12.4053125 6.03515625 13.515625 C6.02355469 14.33546875 6.01195312 15.1553125 6 16 C6.66 16 7.32 16 8 16 C8.3403125 14.824375 8.3403125 14.824375 8.6875 13.625 C10.40660933 8.87698375 12.68084721 4.47897448 15 0 C16.65 0 18.3 0 20 0 C20.19916016 1.49853516 20.19916016 1.49853516 20.40234375 3.02734375 C20.57894531 4.31769531 20.75554687 5.60804688 20.9375 6.9375 C21.11152344 8.22527344 21.28554687 9.51304687 21.46484375 10.83984375 C21.66162423 13.85466313 21.66162423 13.85466313 23 15 C23.42152344 14.00097656 23.84304688 13.00195312 24.27734375 11.97265625 C24.83060217 10.66921692 25.38399451 9.36583443 25.9375 8.0625 C26.21529297 7.40314453 26.49308594 6.74378906 26.77929688 6.06445312 C28.88671875 1.11328125 28.88671875 1.11328125 30 0 C31.66617115 -0.04063832 33.33388095 -0.042721 35 0 C34.01157932 5.82827369 31.63927127 10.87759235 29.25 16.25 C28.81945313 17.26835937 28.38890625 18.28671875 27.9453125 19.3359375 C27.51476563 20.30273438 27.08421875 21.26953125 26.640625 22.265625 C26.25422852 23.15024414 25.86783203 24.03486328 25.46972656 24.94628906 C24 27 24 27 21.33496094 27.79589844 C20.56442383 27.86325195 19.79388672 27.93060547 19 28 C18.6839151 26.64666562 18.37235649 25.29227399 18.0625 23.9375 C17.88847656 23.18339844 17.71445313 22.42929688 17.53515625 21.65234375 C16.89080611 18.45881278 16.46073479 15.22514351 16 12 C13.03 17.28 10.06 22.56 7 28 C5.68 28 4.36 28 3 28 C1.18152232 18.67809502 0.45637789 9.46383622 0 0 Z " fill="#FFFFFF" transform="translate(1128,162)"/>
<path d="M0 0 C1.65 0 3.3 0 5 0 C6.74455799 3.48911599 6.46237266 7.49741795 6.71875 11.34765625 C6.71051998 13.92005405 6.71051998 13.92005405 8 15 C11.465 7.575 11.465 7.575 15 0 C16.65 0 18.3 0 20 0 C21.485 7.92 21.485 7.92 23 16 C24.93241047 11.10964131 24.93241047 11.10964131 26.85913086 6.21704102 C28.88888889 1.11111111 28.88888889 1.11111111 30 0 C31.66617115 -0.04063832 33.33388095 -0.042721 35 0 C34.46183965 6.15779632 31.84758241 11.29826798 29.25 16.8125 C28.81945312 17.77865234 28.38890625 18.74480469 27.9453125 19.74023438 C27.51476562 20.65740234 27.08421875 21.57457031 26.640625 22.51953125 C26.25422852 23.35589111 25.86783203 24.19225098 25.46972656 25.05395508 C24 27 24 27 19 28 C17.515 19.585 17.515 19.585 16 11 C13.36 16.61 10.72 22.22 8 28 C6.35 28 4.7 28 3 28 C2.49595781 24.08384244 1.99746767 20.1669977 1.5 16.25 C1.35691406 15.13882813 1.21382812 14.02765625 1.06640625 12.8828125 C0.93105469 11.81289062 0.79570313 10.74296875 0.65625 9.640625 C0.53056641 8.65610352 0.40488281 7.67158203 0.27539062 6.65722656 C0 4 0 4 0 0 Z " fill="#FFFFFF" transform="translate(911,162)"/>
<path d="M0 0 C1.2065625 0.0309375 1.2065625 0.0309375 2.4375 0.0625 C1.77946911 8.53074568 0.3550703 16.82945594 -1.125 25.1875 C-1.36165928 26.53900455 -1.59798969 27.89056674 -1.83398438 29.2421875 C-2.4069373 32.51620422 -2.98318405 35.78960426 -3.5625 39.0625 C-6.22916667 39.0625 -8.89583333 39.0625 -11.5625 39.0625 C-12.67625 39.145 -13.79 39.2275 -14.9375 39.3125 C-19.1973963 39.01871405 -20.62575875 38.08561599 -23.5625 35.0625 C-25.60860967 28.92417098 -25.09067626 22.71107745 -22.52734375 16.79296875 C-20.91686054 13.90453125 -19.50141307 12.59584595 -16.5625 11.0625 C-12.308137 10.54568478 -8.6319409 10.7060197 -4.5625 12.0625 C-4.47162109 10.88880859 -4.47162109 10.88880859 -4.37890625 9.69140625 C-4.29511719 8.67949219 -4.21132813 7.66757813 -4.125 6.625 C-4.04378906 5.61566406 -3.96257813 4.60632813 -3.87890625 3.56640625 C-3.45167428 0.1854718 -3.42707105 0.0835871 0 0 Z M-14.25 16.1875 C-17.31551389 18.6730518 -18.41105954 20.63272392 -18.828125 24.5703125 C-18.82296875 25.43398437 -18.8178125 26.29765625 -18.8125 27.1875 C-18.81765625 28.05632812 -18.8228125 28.92515625 -18.828125 29.8203125 C-18.7731341 32.26453887 -18.7731341 32.26453887 -16.5625 34.0625 C-14.14767587 34.56309916 -14.14767587 34.56309916 -11.5625 34.0625 C-8.56508839 31.79508532 -7.65697936 30.56396736 -6.953125 26.828125 C-6.90671875 25.66796875 -6.8603125 24.5078125 -6.8125 23.3125 C-6.75578125 22.14203125 -6.6990625 20.9715625 -6.640625 19.765625 C-6.61484375 18.87359375 -6.5890625 17.9815625 -6.5625 17.0625 C-10.32365534 15.15965998 -10.32365534 15.15965998 -14.25 16.1875 Z " fill="#FFFFFF" transform="translate(734.5625,150.9375)"/>
<path d="M0 0 C1.65 0 3.3 0 5 0 C4.67 3.96 4.34 7.92 4 12 C4.33 11.67 4.66 11.34 5 11 C6.9609375 10.796875 6.9609375 10.796875 9.375 10.75 C10.16648437 10.72421875 10.95796875 10.6984375 11.7734375 10.671875 C14 11 14 11 15.7265625 12.078125 C19.40800986 17.63417439 17.72054679 24.32202736 16.5625 30.4375 C16.41490234 31.26443359 16.26730469 32.09136719 16.11523438 32.94335938 C15.75315508 34.96399543 15.37792451 36.98226747 15 39 C13.02 39 11.04 39 9 39 C9.144375 37.91460937 9.28875 36.82921875 9.4375 35.7109375 C9.62519956 34.2656509 9.81268838 32.82033693 10 31.375 C10.14308594 30.30572266 10.14308594 30.30572266 10.2890625 29.21484375 C10.81606101 25.11178391 11.10466984 21.14754258 11 17 C8.08116739 15.70118208 8.08116739 15.70118208 5.45703125 16.80078125 C1.63580866 20.22104884 1.47596277 24.26899417 0.6875 29.1875 C0.43516602 30.59805664 0.43516602 30.59805664 0.17773438 32.03710938 C-0.23414897 34.35542419 -0.62583467 36.67535109 -1 39 C-2.98 39 -4.96 39 -7 39 C-6.16801359 33.76657386 -5.33174153 28.53385771 -4.49145508 23.30175781 C-4.20608924 21.52102301 -3.92190439 19.74009854 -3.63891602 17.95898438 C-3.23242084 15.40183781 -2.8217111 12.84539897 -2.41015625 10.2890625 C-2.28407486 9.49005524 -2.15799347 8.69104797 -2.02809143 7.86782837 C-1.11387171 2.22774341 -1.11387171 2.22774341 0 0 Z " fill="#FFFFFF" transform="translate(1200,151)"/>
<path d="M0 0 C1.98 0 3.96 0 6 0 C5.34 3.96 4.68 7.92 4 12 C4.66 11.67 5.32 11.34 6 11 C13.71819725 10.10662233 13.71819725 10.10662233 17.0625 12.4375 C20.15674026 20.89509003 16.87656047 30.52196787 15 39 C13.35 39 11.7 39 10 39 C10.62915097 31.32971263 11.29099142 23.66332677 12 16 C9.36 16.66 6.72 17.32 4 18 C2.22210948 24.97480127 0.60439285 31.98345528 -1 39 C-2.65 39 -4.3 39 -6 39 C-5.40884251 30.31660314 -4.02026777 21.86476618 -2.4375 13.3125 C-2.20353516 12.02666016 -1.96957031 10.74082031 -1.72851562 9.41601562 C-1.15663933 6.27653148 -0.58038572 3.13792014 0 0 Z " fill="#FFFFFF" transform="translate(1021,151)"/>
<path d="M0 0 C2.75 1.75 2.75 1.75 4 5 C4.0545013 9.05731898 3.53483854 12.98384877 3 17 C2.80334846 19.08248942 2.61522165 21.16580974 2.4375 23.25 C2.29213353 24.83337626 2.14648394 26.41672673 2 28 C-1 28 -4 28 -7 28 C-8.9490625 28.12375 -8.9490625 28.12375 -10.9375 28.25 C-13.89413095 28.22822003 -14.88120623 28.07127626 -17.5 26.5 C-19.21705339 23.63824436 -19.70234257 21.31638707 -19.49609375 17.97265625 C-18.79936436 15.20219688 -17.36730317 13.4897859 -15.06640625 11.83203125 C-10.88710638 10.14925077 -6.41465564 10.64651334 -2 11 C-2.66 9.02 -3.32 7.04 -4 5 C-7.93075644 5.57452746 -7.93075644 5.57452746 -11 8 C-14.125 8.125 -14.125 8.125 -17 8 C-14.21171975 -0.59719745 -8.24400169 -1.24909117 0 0 Z M-12.4375 17 C-12.953125 17.66 -13.46875 18.32 -14 19 C-13.34 20.32 -12.68 21.64 -12 23 C-8.68847126 23.36794764 -7.39390748 23.29809215 -4.6875 21.25 C-2.6 18.93541667 -2.6 18.93541667 -3 15 C-8.13725982 14.51510163 -8.13725982 14.51510163 -12.4375 17 Z " fill="#FFFFFF" transform="translate(468,162)"/>
<path d="M0 0 C0.845625 -0.00773438 1.69125 -0.01546875 2.5625 -0.0234375 C5.6245847 0.47709558 6.89755547 1.0754513 9 3.375 C10.29379989 8.50019763 9.85854052 12.9429323 9.0625 18.125 C8.27035326 23.2309595 8.27035326 23.2309595 8 28.375 C5 28.375 2 28.375 -1 28.375 C-2.9490625 28.49875 -2.9490625 28.49875 -4.9375 28.625 C-7.89413095 28.60322003 -8.88120623 28.44627626 -11.5 26.875 C-13.60565979 23.36556702 -13.83665744 20.36962913 -13 16.375 C-11.12984906 13.94380377 -9.71861655 12.73430827 -7 11.375 C-5.12620395 11.30466231 -3.24998898 11.2906978 -1.375 11.3125 C0.12933594 11.32603516 0.12933594 11.32603516 1.6640625 11.33984375 C2.43492188 11.35144531 3.20578125 11.36304688 4 11.375 C3.67 9.725 3.34 8.075 3 6.375 C1.20800528 5.59217352 1.20800528 5.59217352 -1 5.375 C-1.928125 6.0865625 -1.928125 6.0865625 -2.875 6.8125 C-5.67549701 8.87168898 -7.60724951 8.6063239 -11 8.375 C-9.07462578 2.43842948 -6.34065847 -0.05799383 0 0 Z M-8 18.375 C-7.67 19.695 -7.34 21.015 -7 22.375 C-4.75124253 23.24350174 -4.75124253 23.24350174 -2 23.375 C0.89177071 21.8116674 0.89177071 21.8116674 3 19.375 C3 18.055 3 16.735 3 15.375 C-1.73940561 15.10157275 -4.48550811 15.00108778 -8 18.375 Z " fill="#FFFFFF" transform="translate(1273,161.625)"/>
<path d="M0 0 C2.625 1.375 2.625 1.375 4 4 C5.17404826 11.90937777 3.25853408 20.20158347 2 28 C0.35 28 -1.3 28 -3 28 C-3 27.34 -3 26.68 -3 26 C-3.515625 26.33 -4.03125 26.66 -4.5625 27 C-7.96121795 28.39434583 -10.35594448 28.44751559 -14 28 C-17 26 -17 26 -19 23 C-19.43837215 20.04829422 -19.11363379 17.76388903 -18 15 C-15.20478936 12.05767301 -13.20070848 11.09895949 -9.15625 10.765625 C-6.42416323 10.75154208 -3.72600955 10.82538017 -1 11 C-1.33 9.35 -1.66 7.7 -2 6 C-4.34533951 5.23043864 -4.34533951 5.23043864 -7 5 C-7.474375 5.474375 -7.94875 5.94875 -8.4375 6.4375 C-10 8 -10 8 -13.1875 8.1875 C-14.115625 8.125625 -15.04375 8.06375 -16 8 C-15.69461464 5.14973668 -14.95551924 3.94834492 -13.0625 1.75 C-8.69892951 -0.74346885 -4.91398582 -0.77894548 0 0 Z M-12.0625 16.1875 C-13.38135516 18.73728665 -12.7975116 20.31746098 -12 23 C-8.59919423 22.89592083 -8.59919423 22.89592083 -5 22 C-3.07828158 19.58235424 -2 18.11532786 -2 15 C-7.26271712 14.55288081 -7.26271712 14.55288081 -12.0625 16.1875 Z " fill="#FFFFFF" transform="translate(801,162)"/>
<path d="M0 0 C2.50160818 1.87620613 3.61945652 3.23891303 5 6 C5.13677734 9.33736713 5.04283944 12.6585233 5 16 C-0.94 16 -6.88 16 -13 16 C-12.01 17.98 -11.02 19.96 -10 22 C-5.72547397 22.19881516 -2.91908179 21.63295075 1 20 C1.66 20.33 2.32 20.66 3 21 C2.70049983 23.8951683 2.19065168 24.83823494 -0.0625 26.75 C-3.85331223 28.36311159 -6.93806133 28.60846855 -11 28 C-14.86401903 26.31999173 -16.4317242 24.85190547 -18 21 C-18.9832336 14.27742605 -18.02929993 8.52703313 -14 3 C-10.00346393 -0.65397584 -5.18536587 -0.90138136 0 0 Z M-6 4 C-9.91603304 6.79420492 -9.91603304 6.79420492 -12 11 C-8.04 11 -4.08 11 0 11 C-0.33 9.35 -0.66 7.7 -1 6 C-3.47636012 4.62533375 -3.47636012 4.62533375 -6 4 Z " fill="#FFFFFF" transform="translate(1347,162)"/>
<path d="M0 0 C2.50160818 1.87620613 3.61945652 3.23891303 5 6 C5.13677734 9.33736713 5.04283944 12.6585233 5 16 C-0.94 16 -6.88 16 -13 16 C-12.01 17.98 -11.02 19.96 -10 22 C-5.72547397 22.19881516 -2.91908179 21.63295075 1 20 C1.66 20.33 2.32 20.66 3 21 C2.70049983 23.8951683 2.19065168 24.83823494 -0.0625 26.75 C-3.85331223 28.36311159 -6.93806133 28.60846855 -11 28 C-14.86401903 26.31999173 -16.4317242 24.85190547 -18 21 C-18.9832336 14.27742605 -18.02929993 8.52703313 -14 3 C-10.00346393 -0.65397584 -5.18536587 -0.90138136 0 0 Z M-6 4 C-9.91603304 6.79420492 -9.91603304 6.79420492 -12 11 C-8.04 11 -4.08 11 0 11 C-0.33 9.35 -0.66 7.7 -1 6 C-3.47636012 4.62533375 -3.47636012 4.62533375 -6 4 Z " fill="#FFFFFF" transform="translate(757,162)"/>
<path d="M0 0 C2.50160818 1.87620613 3.61945652 3.23891303 5 6 C5.13677734 9.33736713 5.04283944 12.6585233 5 16 C-0.94 16 -6.88 16 -13 16 C-12.01 17.98 -11.02 19.96 -10 22 C-5.72547397 22.19881516 -2.91908179 21.63295075 1 20 C1.66 20.33 2.32 20.66 3 21 C2.70049983 23.8951683 2.19065168 24.83823494 -0.0625 26.75 C-3.85331223 28.36311159 -6.93806133 28.60846855 -11 28 C-14.86401903 26.31999173 -16.4317242 24.85190547 -18 21 C-18.9832336 14.27742605 -18.02929993 8.52703313 -14 3 C-10.00346393 -0.65397584 -5.18536587 -0.90138136 0 0 Z M-6 4 C-9.91603304 6.79420492 -9.91603304 6.79420492 -12 11 C-8.04 11 -4.08 11 0 11 C-0.33 9.35 -0.66 7.7 -1 6 C-3.47636012 4.62533375 -3.47636012 4.62533375 -6 4 Z " fill="#FFFFFF" transform="translate(646,162)"/>
<path d="M0 0 C3.0625 1.8125 3.0625 1.8125 5 5 C5.40257166 8.7714608 5.22975053 12.18614119 5 16 C-0.61 16 -6.22 16 -12 16 C-10.54711014 20.5841963 -10.54711014 20.5841963 -9 22 C-6.04182893 22.25005386 -6.04182893 22.25005386 -3 22 C-2.34 21.34 -1.68 20.68 -1 20 C1.125 20.375 1.125 20.375 3 21 C3 24 3 24 1.6875 25.625 C-1.52272365 28.24073779 -4.96783182 28.34054659 -9 28.28125 C-12.24380523 27.82508989 -13.8266525 26.36511346 -16 24 C-18.6003787 19.98123292 -18.12188069 16.01430966 -17.54296875 11.4375 C-16.57269085 7.0817201 -14.22468104 4.36075671 -11.3125 1.125 C-7.57718889 -0.69217838 -4.05820621 -0.72932176 0 0 Z M-7.6875 5.125 C-10.41343113 6.9514172 -10.41343113 6.9514172 -11 11 C-7.37 11 -3.74 11 0 11 C-0.43009352 6.17637852 -0.43009352 6.17637852 -2.75 4.5 C-5.11966098 3.74632938 -5.11966098 3.74632938 -7.6875 5.125 Z " fill="#FFFFFF" transform="translate(395,162)"/>
<path d="M0 0 C3.09799981 2.19126816 3.80352112 3.41056336 5 7 C5 9.97 5 12.94 5 16 C-0.94 16 -6.88 16 -13 16 C-12.01 17.98 -11.02 19.96 -10 22 C-5.78121808 22.19622241 -2.82989106 21.80230168 1 20 C1.66 21.32 2.32 22.64 3 24 C-1.88912211 27.91129769 -4.732886 28.696346 -11 28 C-14.86221165 26.32077754 -16.44479298 24.8574567 -18 21 C-18.99769104 14.23670498 -18.28446687 9.18867437 -14.38671875 3.55859375 C-10.34224997 -0.9871613 -5.65695917 -0.7697174 0 0 Z M-6 4 C-9.91603304 6.79420492 -9.91603304 6.79420492 -12 11 C-8.04 11 -4.08 11 0 11 C-0.33 9.35 -0.66 7.7 -1 6 C-3.47636012 4.62533375 -3.47636012 4.62533375 -6 4 Z " fill="#FFFFFF" transform="translate(966,162)"/>
<path d="M0 0 C3.09799981 2.19126816 3.80352112 3.41056336 5 7 C5 9.97 5 12.94 5 16 C-0.94 16 -6.88 16 -13 16 C-12.01 17.98 -11.02 19.96 -10 22 C-5.78121808 22.19622241 -2.82989106 21.80230168 1 20 C1.66 21.32 2.32 22.64 3 24 C-1.88912211 27.91129769 -4.732886 28.696346 -11 28 C-14.86401903 26.31999173 -16.4317242 24.85190547 -18 21 C-18.8831003 14.96205844 -18.09225343 10.06424362 -15.265625 4.69140625 C-11.19625167 -0.74698465 -6.37171888 -0.97537128 0 0 Z M-6 4 C-9.91603304 6.79420492 -9.91603304 6.79420492 -12 11 C-8.04 11 -4.08 11 0 11 C-0.33 9.35 -0.66 7.7 -1 6 C-3.47636012 4.62533375 -3.47636012 4.62533375 -6 4 Z " fill="#FFFFFF" transform="translate(595,162)"/>
<path d="M0 0 C1.98 0 3.96 0 6 0 C6.99 5.28 7.98 10.56 9 16 C11.64 10.72 14.28 5.44 17 0 C18.98 0 20.96 0 23 0 C22.37413369 4.37798359 20.77607923 7.77101927 18.76171875 11.69140625 C18.43967972 12.31853012 18.11764069 12.94565399 17.7858429 13.59178162 C17.10555019 14.91200415 16.42207019 16.23058863 15.7355957 17.54760742 C14.69162279 19.55457421 13.66266639 21.56874817 12.63476562 23.58398438 C11.96964469 24.8702547 11.30365751 26.15607754 10.63671875 27.44140625 C10.03561279 28.60357666 9.43450684 29.76574707 8.81518555 30.96313477 C7.0939129 33.84288062 5.6143117 35.90848704 3 38 C-0.75 38.25 -0.75 38.25 -4 38 C-4 36.35 -4 34.7 -4 33 C-3.05125 32.7525 -2.1025 32.505 -1.125 32.25 C1.98874943 31.32152915 1.98874943 31.32152915 3.2421875 29.32421875 C4.28006034 26.14105206 3.80321269 23.85561069 3.25 20.5625 C3.05148437 19.33402344 2.85296875 18.10554688 2.6484375 16.83984375 C2.43445313 15.57269531 2.22046875 14.30554688 2 13 C1.62186867 10.54214637 1.24665401 8.08384141 0.875 5.625 C0.58411016 3.74987933 0.29274778 1.87483151 0 0 Z " fill="#FFFFFF" transform="translate(673,162)"/>
<path d="M0 0 C3.55680172 2.10504591 4.69468936 3.08406808 6 7 C6.69389791 14.1437359 6.4418779 19.2375638 2 25 C-1.61843714 28.20490147 -5.1580771 28.57025769 -9.84375 28.4296875 C-13.32800607 27.73536111 -14.91092868 25.7419061 -17 23 C-18.97656081 19.04687837 -18.43374973 14.30778842 -18 10 C-14.89255111 1.03187031 -8.85841442 -1.31872836 0 0 Z M-11 8 C-13.03555119 11.68337834 -13.44419857 14.82453347 -13 19 C-12.02896212 21.46186579 -12.02896212 21.46186579 -10 23 C-7.04308291 23.75015195 -7.04308291 23.75015195 -4 23 C-0.73926997 20.268037 0.32662593 17.58137561 1.0625 13.5 C1.3552603 9.6877517 1.13945328 9.18468137 -1.3125 5.9375 C-5.80501155 2.6987126 -7.19385007 4.47931132 -11 8 Z " fill="#FFFFFF" transform="translate(868,162)"/>
<path d="M0 0 C2.77186988 -0.10787818 5.53955537 -0.18723327 8.3125 -0.25 C9.09818359 -0.28351563 9.88386719 -0.31703125 10.69335938 -0.3515625 C16.48845138 -0.45020236 16.48845138 -0.45020236 19.01953125 1.77734375 C22.50988717 9.68974423 18.78883301 19.91830803 17 28 C15.35 28 13.7 28 12 28 C12.90349691 15.21647991 12.90349691 15.21647991 13.625 10.8125 C14.26074106 8.05356428 14.26074106 8.05356428 13 6 C10.69 6 8.38 6 6 6 C5.88406494 6.59538574 5.76812988 7.19077148 5.64868164 7.80419922 C5.12296202 10.49506396 4.59278705 13.1850318 4.0625 15.875 C3.88009766 16.81214844 3.69769531 17.74929687 3.50976562 18.71484375 C3.33251953 19.61074219 3.15527344 20.50664062 2.97265625 21.4296875 C2.81031494 22.25710449 2.64797363 23.08452148 2.48071289 23.93701172 C2 26 2 26 1 28 C-0.65 28 -2.3 28 -4 28 C-3.4068511 18.53007103 -1.73572278 9.31177062 0 0 Z " fill="#FFFFFF" transform="translate(1060,162)"/>
<path d="M0 0 C2.77186988 -0.10787818 5.53955537 -0.18723327 8.3125 -0.25 C9.09818359 -0.28351563 9.88386719 -0.31703125 10.69335938 -0.3515625 C16.48845138 -0.45020236 16.48845138 -0.45020236 19.01953125 1.77734375 C22.50988717 9.68974423 18.78883301 19.91830803 17 28 C15.35 28 13.7 28 12 28 C12.33 20.74 12.66 13.48 13 6 C10.69 6.33 8.38 6.66 6 7 C5.80664062 7.845625 5.61328125 8.69125 5.4140625 9.5625 C3.99972516 15.7239696 2.56149739 21.87412563 1 28 C-0.65 28 -2.3 28 -4 28 C-3.4068511 18.53007103 -1.73572278 9.31177062 0 0 Z " fill="#FFFFFF" transform="translate(510,162)"/>
<path d="M0 0 C2.77186988 -0.10787818 5.53955537 -0.18723327 8.3125 -0.25 C9.09818359 -0.28351563 9.88386719 -0.31703125 10.69335938 -0.3515625 C16.48845138 -0.45020236 16.48845138 -0.45020236 19.01953125 1.77734375 C22.50988717 9.68974423 18.78883301 19.91830803 17 28 C15.35 28 13.7 28 12 28 C12.45659012 22.25862214 12.91506191 16.52888465 13.625 10.8125 C13.74875 9.554375 13.8725 8.29625 14 7 C12.95296435 5.74323161 12.95296435 5.74323161 10.625 5.75 C8.00839925 5.76190763 8.00839925 5.76190763 6.39306641 7.25341797 C4.75506581 9.30709064 4.45179822 10.61038988 4.0859375 13.1953125 C3.96476562 13.99324219 3.84359375 14.79117188 3.71875 15.61328125 C3.54859375 16.85658203 3.54859375 16.85658203 3.375 18.125 C2.10472973 26.89527027 2.10472973 26.89527027 1 28 C-0.66617115 28.04063832 -2.33388095 28.042721 -4 28 C-3.4068511 18.53007103 -1.73572278 9.31177062 0 0 Z " fill="#FFFFFF" transform="translate(335,162)"/>
<path d="M0 0 C1.98 0 3.96 0 6 0 C5.7834375 1.50240234 5.7834375 1.50240234 5.5625 3.03515625 C5.37474993 4.37756922 5.18726406 5.72001915 5 7.0625 C4.90460938 7.71927734 4.80921875 8.37605469 4.7109375 9.05273438 C4.11112326 13.40138763 3.90872907 17.61329071 4 22 C7.465 21.505 7.465 21.505 11 21 C12.97116989 16.65485594 13.80813736 12.35111885 14.625 7.6875 C14.7590625 6.94693359 14.893125 6.20636719 15.03125 5.44335938 C15.35886984 3.62974956 15.68008494 1.81498476 16 0 C17.98 0 19.96 0 22 0 C21.3583007 4.10482421 20.71093527 8.20873492 20.0625 12.3125 C19.88009766 13.47974609 19.69769531 14.64699219 19.50976562 15.84960938 C19.33251953 16.96787109 19.15527344 18.08613281 18.97265625 19.23828125 C18.81031494 20.26993408 18.64797363 21.30158691 18.48071289 22.36450195 C18 25 18 25 17 28 C14.33333333 28 11.66666667 28 9 28 C7.865625 28.061875 6.73125 28.12375 5.5625 28.1875 C2 28 2 28 -0.375 27 C-3.17696919 23.55142253 -3.18744117 19.05292705 -2.79492188 14.75390625 C-2.43952968 12.48803556 -2.02015259 10.24736635 -1.5625 8 C-1.41490234 7.22527344 -1.26730469 6.45054687 -1.11523438 5.65234375 C-0.75429222 3.76612989 -0.37868583 1.88273179 0 0 Z " fill="#FFFFFF" transform="translate(1304,162)"/>
<path d="M0 0 C0 1.65 0 3.3 0 5 C-1.423125 5.0928125 -1.423125 5.0928125 -2.875 5.1875 C-3.90625 5.455625 -4.9375 5.72375 -6 6 C-7.45291273 8.46255685 -7.45291273 8.46255685 -8 11 C-6.35 11 -4.7 11 -3 11 C-3.33 12.65 -3.66 14.3 -4 16 C-5.65 16 -7.3 16 -9 16 C-9.12846313 16.88522339 -9.12846313 16.88522339 -9.25952148 17.78833008 C-9.64935599 20.46347393 -10.04338014 23.13798429 -10.4375 25.8125 C-10.57220703 26.74126953 -10.70691406 27.67003906 -10.84570312 28.62695312 C-11.04389648 29.9659668 -11.04389648 29.9659668 -11.24609375 31.33203125 C-11.36654053 32.15421143 -11.4869873 32.9763916 -11.61108398 33.82348633 C-12 36 -12 36 -13 39 C-14.65 39 -16.3 39 -18 39 C-18.16898112 33.64189031 -17.56511422 28.80650828 -16.5 23.5625 C-16.28537109 22.46518555 -16.28537109 22.46518555 -16.06640625 21.34570312 C-15.71678704 19.56264514 -15.35922312 17.78114797 -15 16 C-15.99 16 -16.98 16 -18 16 C-18 14.35 -18 12.7 -18 11 C-16.68 11 -15.36 11 -14 11 C-13.7525 9.741875 -13.505 8.48375 -13.25 7.1875 C-12.56751505 4.54637673 -12.11543472 3.1420735 -10.375 1 C-6.83229738 -0.49166426 -3.82694412 -0.19134721 0 0 Z " fill="#FFFFFF" transform="translate(898,151)"/>
<path d="M0 0 C1.65 0 3.3 0 5 0 C5.99 5.28 6.98 10.56 8 16 C10.97 10.72 13.94 5.44 17 0 C18.65 0 20.3 0 22 0 C21.02942503 5.94376905 18.38965505 10.8879853 15.75 16.25 C15.27175781 17.26835937 14.79351563 18.28671875 14.30078125 19.3359375 C13.82511719 20.30273438 13.34945313 21.26953125 12.859375 22.265625 C12.21693848 23.59255371 12.21693848 23.59255371 11.56152344 24.94628906 C10 27 10 27 7.32128906 27.79589844 C6.55526367 27.86325195 5.78923828 27.93060547 5 28 C3.34674922 23.39964999 2.25873792 18.79743443 1.375 14 C1.2409375 13.31421875 1.106875 12.6284375 0.96875 11.921875 C0.2155409 7.89451207 -0.14074114 4.09428772 0 0 Z " fill="#FFFFFF" transform="translate(1237,162)"/>
<path d="M0 0 C1.65 0 3.3 0 5 0 C6.70899657 5.61527443 7.89430162 11.23457274 9 17 C11.64 11.39 14.28 5.78 17 0 C18.98 0 20.96 0 23 0 C21.74577315 3.98792946 20.28484419 7.66949404 18.3984375 11.3984375 C17.90859375 12.37167969 17.41875 13.34492188 16.9140625 14.34765625 C16.40617188 15.34667969 15.89828125 16.34570312 15.375 17.375 C14.859375 18.39722656 14.34375 19.41945312 13.8125 20.47265625 C12.54528127 22.98362669 11.27435444 25.49264561 10 28 C8.35 28 6.7 28 5 28 C4.16197087 23.8967776 3.33038122 19.79227638 2.5 15.6875 C2.14228516 13.93663086 2.14228516 13.93663086 1.77734375 12.15039062 C1.55175781 11.03212891 1.32617188 9.91386719 1.09375 8.76171875 C0.88427734 7.73006592 0.67480469 6.69841309 0.45898438 5.63549805 C0 3 0 3 0 0 Z " fill="#FFFFFF" transform="translate(604,162)"/>
<path d="M0 0 C1.65 0 3.3 0 5 0 C5 1.65 5 3.3 5 5 C6.32 5.33 7.64 5.66 9 6 C8.67 7.65 8.34 9.3 8 11 C6.35 11 4.7 11 3 11 C2.93941406 11.79664063 2.87882813 12.59328125 2.81640625 13.4140625 C1.98418278 23.93848858 1.98418278 23.93848858 1 29 C2.32 29 3.64 29 5 29 C5 30.65 5 32.3 5 34 C1.6875 34.25 1.6875 34.25 -2 34 C-4.23623123 31.83396437 -4.96486437 30.6115499 -5.14453125 27.484375 C-5.03496094 26.58203125 -4.92539062 25.6796875 -4.8125 24.75 C-4.69648437 23.78964844 -4.58046875 22.82929688 -4.4609375 21.83984375 C-3.86050936 18.14059578 -3.02042271 14.60549358 -2 11 C-3.65 11 -5.3 11 -7 11 C-6.67 9.35 -6.34 7.7 -6 6 C-4.35 6 -2.7 6 -1 6 C-0.67 4.02 -0.34 2.04 0 0 Z " fill="#FFFFFF" transform="translate(772,156)"/>
<path d="M0 0 C1.98 0 3.96 0 6 0 C5.67 1.98 5.34 3.96 5 6 C6.65 6 8.3 6 10 6 C9.67 7.65 9.34 9.3 9 11 C7.35 11 5.7 11 4 11 C3.34 16.61 2.68 22.22 2 28 C3.32 28.33 4.64 28.66 6 29 C5.505 31.475 5.505 31.475 5 34 C-0.44301121 34.36286741 -0.44301121 34.36286741 -2.71484375 32.8828125 C-4.63033144 30.07653571 -4.10319193 28.01595006 -3.75 24.6875 C-3.64171875 23.57761719 -3.5334375 22.46773437 -3.421875 21.32421875 C-3.02522184 18.19873878 -2.54452114 15.10283169 -2 12 C-3.32 11.67 -4.64 11.34 -6 11 C-5.67 9.35 -5.34 7.7 -5 6 C-3.35 6 -1.7 6 0 6 C0 4.02 0 2.04 0 0 Z " fill="#FFFFFF" transform="translate(1183,156)"/>
<path d="M0 0 C1.98 0 3.96 0 6 0 C5.67 1.98 5.34 3.96 5 6 C6.32 6 7.64 6 9 6 C9 7.65 9 9.3 9 11 C7.35 11 5.7 11 4 11 C3.34 16.61 2.68 22.22 2 28 C2.99 28.33 3.98 28.66 5 29 C5 30.65 5 32.3 5 34 C1.625 34.125 1.625 34.125 -2 34 C-4 32 -4 32 -4.265625 30.00390625 C-4.22393268 23.48948153 -3.35586849 17.36773951 -2 11 C-3.32 11 -4.64 11 -6 11 C-6 9.35 -6 7.7 -6 6 C-4.35 6 -2.7 6 -1 6 C-0.67 4.02 -0.34 2.04 0 0 Z " fill="#FFFFFF" transform="translate(366,156)"/>
<path d="M0 0 C1.65 0 3.3 0 5 0 C5 1.98 5 3.96 5 6 C6.32 6 7.64 6 9 6 C8.67 7.65 8.34 9.3 8 11 C6.68 11.33 5.36 11.66 4 12 C3.01 17.61 2.02 23.22 1 29 C2.32 29 3.64 29 5 29 C5 30.65 5 32.3 5 34 C1.625 34.125 1.625 34.125 -2 34 C-4 32 -4 32 -4.265625 29.49609375 C-4.23249697 23.01128091 -3.67194914 17.26980928 -2 11 C-3.32 11 -4.64 11 -6 11 C-6 9.35 -6 7.7 -6 6 C-4.35 6 -2.7 6 -1 6 C-0.67 4.02 -0.34 2.04 0 0 Z " fill="#FFFFFF" transform="translate(483,156)"/>
<path d="M0 0 C1.98 0 3.96 0 6 0 C4.58890238 10.27091523 3.15148639 20.53492513 1.375 30.75 C1.25213623 31.46986084 1.12927246 32.18972168 1.00268555 32.93139648 C0.12240399 37.87759601 0.12240399 37.87759601 -1 39 C-2.66617115 39.04063832 -4.33388095 39.042721 -6 39 C-4.55481695 25.89827473 -2.34198027 12.9678209 0 0 Z " fill="#FFFFFF" transform="translate(1293,151)"/>
<path d="M0 0 C1.98 0 3.96 0 6 0 C5.1669339 5.07253986 4.3306769 10.14453938 3.49145508 15.21606445 C3.20639634 16.94150539 2.92221093 18.66709085 2.63891602 20.39282227 C2.23162541 22.87294386 1.82119955 25.35252921 1.41015625 27.83203125 C1.28407486 28.60400345 1.15799347 29.37597565 1.02809143 30.17134094 C0.52148744 33.21192112 -0.02339965 36.07019894 -1 39 C-2.65 39 -4.3 39 -6 39 C-5.46088439 30.09998899 -4.13288505 21.49761697 -2.4375 12.75 C-2.20353516 11.51636719 -1.96957031 10.28273437 -1.72851562 9.01171875 C-1.15779986 6.00672553 -0.58154983 3.00291185 0 0 Z " fill="#FFFFFF" transform="translate(829,151)"/>
<path d="M0 0 C1.2065625 0.0309375 1.2065625 0.0309375 2.4375 0.0625 C1.85716807 7.8206216 0.81125393 15.40730599 -0.5625 23.0625 C-0.74039062 24.08472656 -0.91828125 25.10695312 -1.1015625 26.16015625 C-2.42261905 33.64285714 -2.42261905 33.64285714 -3.5625 37.0625 C-5.2125 37.0625 -6.8625 37.0625 -8.5625 37.0625 C-8.23447943 28.51756426 -7.02218681 20.2278156 -5.5625 11.8125 C-5.38428711 10.77601318 -5.20607422 9.73952637 -5.02246094 8.67163086 C-3.49516817 0.085248 -3.49516817 0.085248 0 0 Z " fill="#FFFFFF" transform="translate(326.5625,152.9375)"/>
<path d="M0 0 C4.29 0 8.58 0 13 0 C13 1.65 13 3.3 13 5 C11.88625 5.226875 10.7725 5.45375 9.625 5.6875 C5.93951406 6.56921286 5.93951406 6.56921286 4.875 9.0625 C3.76831053 12.77781466 3.04328158 16.49715773 2.375 20.3125 C2.2409375 21.05306641 2.106875 21.79363281 1.96875 22.55664062 C1.64113016 24.37025044 1.31991506 26.18501524 1 28 C-0.98 28 -2.96 28 -5 28 C-4.3583007 23.89517579 -3.71093527 19.79126508 -3.0625 15.6875 C-2.78889648 13.93663086 -2.78889648 13.93663086 -2.50976562 12.15039062 C-2.33251953 11.03212891 -2.15527344 9.91386719 -1.97265625 8.76171875 C-1.72914429 7.2142395 -1.72914429 7.2142395 -1.48071289 5.63549805 C-1 3 -1 3 0 0 Z " fill="#FFFFFF" transform="translate(436,162)"/>
<path d="M0 0 C4.29 0 8.58 0 13 0 C13 1.65 13 3.3 13 5 C11.329375 5.309375 11.329375 5.309375 9.625 5.625 C8.42875 6.07875 7.2325 6.5325 6 7 C4.0796723 11.42742219 3.27213555 16.1513067 2.375 20.875 C2.2409375 21.56335938 2.106875 22.25171875 1.96875 22.9609375 C1.64227777 24.63993755 1.32063447 26.31987536 1 28 C-0.98 28 -2.96 28 -5 28 C-4.3583007 23.89517579 -3.71093527 19.79126508 -3.0625 15.6875 C-2.78889648 13.93663086 -2.78889648 13.93663086 -2.50976562 12.15039062 C-2.33251953 11.03212891 -2.15527344 9.91386719 -1.97265625 8.76171875 C-1.72914429 7.2142395 -1.72914429 7.2142395 -1.48071289 5.63549805 C-1 3 -1 3 0 0 Z " fill="#FFFFFF" transform="translate(658,162)"/>
<path d="M0 0 C1.65 0 3.3 0 5 0 C4.4068511 9.46992897 2.73572278 18.68822938 1 28 C-0.98 28 -2.96 28 -5 28 C-4.54997651 24.64466456 -4.088474 21.29100181 -3.625 17.9375 C-3.49867188 16.99455078 -3.37234375 16.05160156 -3.2421875 15.08007812 C-2.51883702 9.89003845 -1.59315069 4.99418108 0 0 Z " fill="#FFFFFF" transform="translate(498,162)"/>
<path d="M0 0 C1.98 0 3.96 0 6 0 C5.3583007 4.10482421 4.71093527 8.20873492 4.0625 12.3125 C3.88009766 13.47974609 3.69769531 14.64699219 3.50976562 15.84960938 C3.33251953 16.96787109 3.15527344 18.08613281 2.97265625 19.23828125 C2.81031494 20.26993408 2.64797363 21.30158691 2.48071289 22.36450195 C2 25 2 25 1 28 C-0.65 28 -2.3 28 -4 28 C-3.47703913 18.47850555 -1.8815863 9.32509434 0 0 Z " fill="#FFFFFF" transform="translate(1168,162)"/>
<path d="M0 0 C1.65 0 3.3 0 5 0 C4.4068511 9.46992897 2.73572278 18.68822938 1 28 C-0.98 28 -2.96 28 -5 28 C-1.53278689 3.06557377 -1.53278689 3.06557377 0 0 Z " fill="#FFFFFF" transform="translate(1048,162)"/>
<path d="M0 0 C1.98 0 3.96 0 6 0 C2.53278689 24.93442623 2.53278689 24.93442623 1 28 C-0.65 28 -2.3 28 -4 28 C-3.4068511 18.53007103 -1.73572278 9.31177062 0 0 Z " fill="#FFFFFF" transform="translate(978,162)"/>
<path d="M0 0 C1.98 0 3.96 0 6 0 C5.3583007 4.10482421 4.71093527 8.20873492 4.0625 12.3125 C3.88009766 13.47974609 3.69769531 14.64699219 3.50976562 15.84960938 C3.33251953 16.96787109 3.15527344 18.08613281 2.97265625 19.23828125 C2.81031494 20.26993408 2.64797363 21.30158691 2.48071289 22.36450195 C2 25 2 25 1 28 C-0.65 28 -2.3 28 -4 28 C-3.47703913 18.47850555 -1.8815863 9.32509434 0 0 Z " fill="#FFFFFF" transform="translate(814,162)"/>
<path d="M0 0 C0.99 0.33 1.98 0.66 3 1 C3 2.65 3 4.3 3 6 C1.125 6.625 1.125 6.625 -1 7 C-1.66 6.34 -2.32 5.68 -3 5 C-2.75 2.9375 -2.75 2.9375 -2 1 C-1.34 0.67 -0.68 0.34 0 0 Z " fill="#FFFFFF" transform="translate(1358,183)"/>
<path d="M0 0 C1.65 0 3.3 0 5 0 C5 1.65 5 3.3 5 5 C3.125 5.625 3.125 5.625 1 6 C0.34 5.34 -0.32 4.68 -1 4 C-0.625 1.875 -0.625 1.875 0 0 Z " fill="#FFFFFF" transform="translate(1170,153)"/>
<path d="M0 0 C1.65 0 3.3 0 5 0 C5.33 1.32 5.66 2.64 6 4 C4.125 5.0625 4.125 5.0625 2 6 C1.34 5.67 0.68 5.34 0 5 C0 3.35 0 1.7 0 0 Z " fill="#FFFFFF" transform="translate(1049,153)"/>
<path d="M0 0 C1.65 0 3.3 0 5 0 C5 1.65 5 3.3 5 5 C3.125 5.625 3.125 5.625 1 6 C0.34 5.34 -0.32 4.68 -1 4 C-0.625 1.875 -0.625 1.875 0 0 Z " fill="#FFFFFF" transform="translate(816,153)"/>
<path d="M0 0 C1.65 0 3.3 0 5 0 C5.33 1.32 5.66 2.64 6 4 C4.125 5.0625 4.125 5.0625 2 6 C1.34 5.67 0.68 5.34 0 5 C0 3.35 0 1.7 0 0 Z " fill="#FFFFFF" transform="translate(499,153)"/>
<path d="M0 0 C1.65 0 3.3 0 5 0 C5 1.65 5 3.3 5 5 C3.68 5.33 2.36 5.66 1 6 C-0.0625 4.125 -0.0625 4.125 -1 2 C-0.67 1.34 -0.34 0.68 0 0 Z " fill="#FFFFFF" transform="translate(980,153)"/>
</svg>
