<?xml version="1.0" encoding="UTF-8"?>
<svg version="1.1" xmlns="http://www.w3.org/2000/svg" width="1361" height="265">
<path d="M0 0 C5.9525724 0.56476019 9.98258238 5.14000634 14.25 8.9375 C16.01504308 10.38210371 17.78600223 11.81950616 19.5625 13.25 C23.68228111 16.62496193 27.75519905 20.05061214 31.8125 23.5 C36.28731151 27.30303702 40.8166863 31.01816313 45.41796875 34.66796875 C51.33000444 39.40575183 57.15232455 44.25435364 62.99462891 49.07763672 C65.21674748 50.91007873 67.44180351 52.73888335 69.66796875 54.56640625 C76.75335862 60.38535617 83.80808917 66.23377234 90.79003906 72.17651367 C94.68428585 75.48245191 98.65720814 78.67514146 102.66015625 81.84765625 C105.71082014 84.30935336 108.70143892 86.83564842 111.6875 89.375 C119.10961887 95.68548369 126.63664801 101.85880794 134.25 107.9375 C135.05179687 108.58074219 135.85359375 109.22398438 136.6796875 109.88671875 C138.5509615 111.37975652 140.43261197 112.85981697 142.3203125 114.33203125 C143.83238281 115.52892578 143.83238281 115.52892578 145.375 116.75 C146.30570312 117.47832031 147.23640625 118.20664063 148.1953125 118.95703125 C149.21238281 119.93736328 149.21238281 119.93736328 150.25 120.9375 C150.25 121.9275 150.25 122.9175 150.25 123.9375 C145.94753444 123.41280908 143.11200751 120.70625853 139.875 118.0625 C138.62127042 117.05707132 137.36735899 116.05186938 136.11328125 115.046875 C135.47342285 114.53060547 134.83356445 114.01433594 134.17431641 113.48242188 C131.74165025 111.52937551 129.28487971 109.6084197 126.82568359 107.68896484 C121.17909966 103.28084518 115.60919785 98.79090408 110.078125 94.23828125 C106.33001222 91.1890569 102.527942 88.21169748 98.72265625 85.234375 C94.37555062 81.83024239 90.0565446 78.39277035 85.75 74.9375 C80.96056835 71.09485233 76.14997425 67.28196281 71.3125 63.5 C65.4398886 58.90644688 59.65026423 54.21583719 53.87280273 49.50341797 C49.72334455 46.12267904 45.54128766 42.79357185 41.30078125 39.52734375 C39.03518098 37.77096411 36.79781681 35.98225356 34.5625 34.1875 C32.79220484 32.77016088 31.0213146 31.35356487 29.25 29.9375 C28.70118164 29.49825195 28.15236328 29.05900391 27.58691406 28.60644531 C19.00302126 21.74509601 19.00302126 21.74509601 10.1875 15.1875 C9.53652344 14.71828125 8.88554687 14.2490625 8.21484375 13.765625 C5.3656544 12.56477382 4.13240999 12.80095753 1.25 13.9375 C-0.81413429 15.9572761 -2.5747433 17.89192068 -4.375 20.125 C-5.15713867 21.06569336 -5.15713867 21.06569336 -5.95507812 22.02539062 C-9.92848077 26.83479334 -13.7753668 31.74545184 -17.59741211 36.67553711 C-21.4091605 41.57146748 -25.41686669 46.27704921 -29.47827148 50.96655273 C-32.99224077 55.03020598 -36.3737086 59.17772908 -39.703125 63.39453125 C-42.10094119 66.37349755 -44.57834033 69.28072575 -47.0625 72.1875 C-50.90368883 76.6882802 -54.61896256 81.26569045 -58.25 85.9375 C-62.73201366 91.70237125 -67.38552014 97.29365783 -72.125 102.84765625 C-76.07605281 107.48176754 -79.90740788 112.21345305 -83.75 116.9375 C-85.24943092 118.77129879 -86.74943458 120.60462943 -88.25 122.4375 C-89.36568359 123.80261719 -89.36568359 123.80261719 -90.50390625 125.1953125 C-91.98691051 127.00586727 -93.47381919 128.81323186 -94.96484375 130.6171875 C-100.72472441 137.60192854 -106.26586828 144.73599927 -111.75 151.9375 C-108.09079694 156.42002374 -104.34700152 160.31732603 -99.94140625 164.0625 C-97.56138917 166.09887825 -95.25085389 168.20078552 -92.9375 170.3125 C-89.53916448 173.38496773 -86.07409477 176.32192622 -82.5 179.1875 C-77.43373972 183.28058034 -72.69774343 187.65318382 -67.96655273 192.12207031 C-63.48325936 196.33100273 -58.83747853 200.19118964 -53.95703125 203.9375 C-51.60499375 206.06890389 -50.23617145 208.14911317 -48.75 210.9375 C-50.98828125 211.65234375 -50.98828125 211.65234375 -53.75 211.9375 C-55.85546875 210.56640625 -55.85546875 210.56640625 -57.9375 208.5 C-60.97891907 205.60815892 -64.01521031 202.84786461 -67.3125 200.25 C-71.79870365 196.70016908 -76.24942581 193.10966133 -80.6875 189.5 C-81.73079468 188.65175659 -81.73079468 188.65175659 -82.79516602 187.78637695 C-87.4833207 183.97266815 -92.16329084 180.14910586 -96.8359375 176.31640625 C-99.10644217 174.46287093 -101.38279075 172.61755506 -103.6640625 170.77734375 C-107.09935476 168.00619731 -110.51829385 165.2158071 -113.93066406 162.41650391 C-115.52960329 161.11666845 -117.14993217 159.84323778 -118.7734375 158.57421875 C-119.59070313 157.91035156 -120.40796875 157.24648437 -121.25 156.5625 C-121.9409375 156.01851562 -122.631875 155.47453125 -123.34375 154.9140625 C-125.57600781 151.77650013 -125.31736523 149.69083921 -124.75 145.9375 C-123.25400454 143.37997263 -121.34576638 141.33049144 -119.3125 139.1875 C-118.19944149 137.95540129 -117.08747142 136.72231847 -115.9765625 135.48828125 C-115.14946777 134.58456787 -115.14946777 134.58456787 -114.30566406 133.66259766 C-112.17785283 131.303038 -110.17997812 128.84929556 -108.1875 126.375 C-104.92221433 122.35391584 -101.6043221 118.38413557 -98.25 114.4375 C-93.34446792 108.66213851 -88.52971173 102.81757702 -83.75 96.9375 C-78.9702825 91.05741588 -74.15526403 85.21309389 -69.25 79.4375 C-65.19881161 74.66688964 -61.20451094 69.85524378 -57.25 65.00390625 C-49.22767991 55.16402927 -41.16674357 45.36713969 -32.87011719 35.75683594 C-29.41938656 31.74916156 -26.09609256 27.65706073 -22.81640625 23.5078125 C-19.83945144 19.80490841 -16.77902431 16.17437752 -13.68212891 12.57128906 C-11.71254994 10.27883959 -9.78827127 7.98949438 -7.99609375 5.5546875 C-5.5216905 2.22401936 -4.07736574 1.01934143 0 0 Z M6.67578125 17.25 C10.3503604 18.2313747 12.69580936 20.42868322 15.4375 22.9375 C16.60063109 23.96199592 17.76470059 24.98542739 18.9296875 26.0078125 C19.4978418 26.5121582 20.06599609 27.01650391 20.65136719 27.53613281 C22.7359815 29.36351311 24.88724841 31.09441993 27.0625 32.8125 C31.40577841 36.25474172 35.70550103 39.74731516 40 43.25 C45.10367162 47.41014577 50.2423432 51.51727666 55.4375 55.5625 C60.6408949 59.61679649 65.69926129 63.8143815 70.71435547 68.09863281 C74.2950549 71.15092472 77.94487429 74.07391205 81.6796875 76.93359375 C85.22378733 79.69669894 88.7037218 82.53642539 92.1875 85.375 C96.52893678 88.91209809 100.87063334 92.44734484 105.25 95.9375 C108.8295177 98.79030353 112.3840348 101.67223509 115.93188477 104.56420898 C122.42475555 109.85676863 128.95902864 115.08623098 135.56201172 120.24072266 C139.55736856 123.36848957 143.44311325 126.58381406 147.25 129.9375 C146.37402465 134.49158691 143.70271973 137.19346044 140.6875 140.5625 C139.58468013 141.82051344 138.48312051 143.07963276 137.3828125 144.33984375 C136.84430664 144.95456543 136.30580078 145.56928711 135.75097656 146.20263672 C133.12992459 149.23210895 130.65625521 152.37421862 128.171875 155.515625 C124.58623264 160.03411741 120.90876306 164.47818708 117.25 168.9375 C115.74971683 170.77060162 114.24971592 172.60393427 112.75 174.4375 C103.75 185.4375 103.75 185.4375 101.48046875 188.2109375 C100.04500065 189.96567784 98.61006204 191.72085155 97.17578125 193.4765625 C91.93794837 199.8858885 86.67822781 206.27693196 81.41455078 212.66503906 C76.68013237 218.41205062 71.96073971 224.17105779 67.25 229.9375 C65.75014304 231.77095036 64.2501406 233.60428171 62.75 235.4375 C62.00492188 236.34886719 61.25984375 237.26023438 60.4921875 238.19921875 C59.02107387 239.99582268 57.54720472 241.79017457 56.0703125 243.58203125 C55.34585938 244.46246094 54.62140625 245.34289062 53.875 246.25 C53.13765625 247.13945312 52.4003125 248.02890625 51.640625 248.9453125 C49.85427155 251.18117319 48.1564357 253.42373543 46.484375 255.7421875 C46.00919434 256.38631592 45.53401367 257.03044434 45.04443359 257.6940918 C44.11719364 258.95545073 43.20767424 260.23008335 42.31884766 261.51879883 C40.06547505 264.55061696 38.65969398 265.83895986 34.953125 266.73046875 C29.73718216 265.61355272 26.654933 262.94445581 22.625 259.5625 C21.01850119 258.26268455 19.41172906 256.96320685 17.8046875 255.6640625 C17.02448242 255.0237207 16.24427734 254.38337891 15.44042969 253.72363281 C12.58864211 251.39821174 9.67852763 249.16556555 6.75 246.9375 C1.40213572 242.83110422 -3.92705429 238.70114373 -9.25 234.5625 C-10.01634766 233.96695313 -10.78269531 233.37140625 -11.57226562 232.7578125 C-13.00559328 231.64257967 -14.43557867 230.52303285 -15.86157227 229.3984375 C-17.45306695 228.16721524 -19.09474504 227.00126291 -20.74609375 225.8515625 C-22.75 223.9375 -22.75 223.9375 -23.37890625 221.484375 C-23.11076684 210.19097393 -20.56791448 198.2017526 -15.75 187.9375 C-14.76 187.6075 -13.77 187.2775 -12.75 186.9375 C-11.925 187.370625 -11.1 187.80375 -10.25 188.25 C13.50338411 199.70252448 52.54426381 190.456481 76.25 182.9375 C83.30052575 180.33750107 90.08867171 177.48722863 94.25 170.9375 C96.03872003 165.41753277 96.63815915 160.28213162 96.625 154.5 C96.62258301 153.3857666 96.62258301 153.3857666 96.62011719 152.24902344 C96.43359317 143.89933043 93.80046446 138.1706419 88.25 131.9375 C71.09015335 120.24617591 45.36294285 120.34712052 25.63696289 124.06884766 C22.11618165 124.85905963 18.68159214 125.82434371 15.25 126.9375 C14.59789551 127.14648926 13.94579102 127.35547852 13.27392578 127.57080078 C-8.50180815 134.82213648 -27.59087913 150.26659692 -38 170.8125 C-41.19550771 177.3433141 -43.71345499 183.95224901 -45.75 190.9375 C-46.04777344 191.91460937 -46.34554687 192.89171875 -46.65234375 193.8984375 C-47.36438492 196.24128265 -48.06358464 198.58704739 -48.75 200.9375 C-52.97249693 200.42231497 -55.55957118 197.83090894 -58.625 195.125 C-59.19089844 194.63507568 -59.75679687 194.14515137 -60.33984375 193.64038086 C-61.53960958 192.60162756 -62.73715251 191.56030203 -63.93261719 190.51660156 C-65.69633808 188.98412618 -67.47365086 187.46953752 -69.2578125 185.9609375 C-75.66485962 180.53524673 -81.92345047 174.99140725 -88.04223633 169.2421875 C-92.36582269 165.20870758 -96.89537592 161.5517751 -101.60546875 157.97265625 C-103.94742513 155.75014391 -104.79904364 153.99224809 -105.75 150.9375 C-92.50438505 134.78594447 -92.50438505 134.78594447 -85.9375 127.0625 C-81.99086032 122.41910263 -78.10349532 117.73199515 -74.25390625 113.0078125 C-66.43971525 103.42598079 -58.58306826 93.88179692 -50.57592773 84.46044922 C-47.08464959 80.34754229 -43.65852938 76.1854414 -40.25 72.00390625 C-32.77927528 62.84059547 -25.30260531 53.68782754 -17.5625 44.75 C-12.59258818 39.00741316 -7.87191623 33.09773749 -3.22265625 27.09375 C-2.81289551 26.57425781 -2.40313477 26.05476563 -1.98095703 25.51953125 C-1.13246085 24.42904033 -0.3063935 23.3208506 0.50048828 22.19921875 C2.36945817 19.71211274 3.63019427 18.11316153 6.67578125 17.25 Z M46.8125 136.625 C47.52857422 136.60888672 48.24464844 136.59277344 48.98242188 136.57617188 C54.97468067 136.57071941 59.71622416 137.91399846 64.5 141.734375 C69.16057199 146.93590623 69.16057199 146.93590623 69.5625 151.4375 C65.72577942 161.66875488 57.28713731 168.13445553 47.6015625 172.73828125 C37.51685677 177.2632677 29.35881506 178.14262231 18.375 178.1875 C17.12074219 178.208125 15.86648437 178.22875 14.57421875 178.25 C8.05239483 178.2776056 2.96155365 178.23454846 -2.75 174.9375 C-3.08 174.6075 -3.41 174.2775 -3.75 173.9375 C-3.58946435 166.23178885 0.53087473 160.95058476 5.5625 155.375 C6.449375 154.570625 7.33625 153.76625 8.25 152.9375 C8.86230469 152.32132813 9.47460938 151.70515625 10.10546875 151.0703125 C20.18276858 141.34177168 32.93612 136.56221095 46.8125 136.625 Z " fill="#FE0000" transform="translate(124.75,-0.9375)"/>
<path d="M0 0 C4.62 0 9.24 0 14 0 C15.65 8.91 17.3 17.82 19 27 C20.43935174 23.40162065 21.46390114 20.41244486 22.2890625 16.69921875 C22.50820313 15.72275391 22.72734375 14.74628906 22.953125 13.74023438 C23.28570313 12.22913086 23.28570313 12.22913086 23.625 10.6875 C23.85445312 9.66076172 24.08390625 8.63402344 24.3203125 7.57617188 C24.88393551 5.05161048 25.44246891 2.52591374 26 0 C29.96 0 33.92 0 38 0 C40.33333333 9.33333333 42.66666667 18.66666667 45 28 C45.14622803 27.18732666 45.29245605 26.37465332 45.44311523 25.53735352 C46.10384307 21.87832084 46.77058816 18.22041037 47.4375 14.5625 C47.66759766 13.28310547 47.89769531 12.00371094 48.13476562 10.68554688 C48.35712891 9.47060547 48.57949219 8.25566406 48.80859375 7.00390625 C49.01282959 5.87799072 49.21706543 4.7520752 49.42749023 3.59204102 C50 1 50 1 51 0 C53.18639453 -0.07258946 55.37500389 -0.08373783 57.5625 -0.0625 C59.35880859 -0.04896484 59.35880859 -0.04896484 61.19140625 -0.03515625 C62.11824219 -0.02355469 63.04507813 -0.01195313 64 0 C63.45230721 6.81694884 62.43654082 13.38247372 60.96875 20.05859375 C60.67478333 21.42504784 60.67478333 21.42504784 60.37487793 22.81910706 C59.96391309 24.7246057 59.55035156 26.62954604 59.13427734 28.53393555 C58.49660002 31.45306428 57.86676831 34.37380204 57.23828125 37.29492188 C56.83638694 39.15374306 56.43405882 41.01247052 56.03125 42.87109375 C55.84268433 43.74293808 55.65411865 44.61478241 55.45983887 45.51304626 C55.28295532 46.32141434 55.10607178 47.12978241 54.92382812 47.96264648 C54.76918091 48.67194809 54.61453369 49.38124969 54.4552002 50.11204529 C54 52 54 52 53 55 C48.38 55 43.76 55 39 55 C37.7659575 51.29787251 36.63815264 47.79672384 35.7109375 44.0390625 C35.51290527 43.24193848 35.31487305 42.44481445 35.11083984 41.62353516 C34.74659912 40.13926025 34.74659912 40.13926025 34.375 38.625 C33.59125 35.44875 32.8075 32.2725 32 29 C30.02 37.58 28.04 46.16 26 55 C21.05 55 16.1 55 11 55 C9.42816189 47.81119688 7.86172202 40.62124697 6.30029297 33.43017578 C5.76825124 30.9835629 5.23473073 28.53727111 4.69970703 26.09130859 C3.93133606 22.57733003 3.16827478 19.06223448 2.40625 15.546875 C2.16563843 14.4519574 1.92502686 13.35703979 1.67712402 12.22894287 C1.45689575 11.20818665 1.23666748 10.18743042 1.00976562 9.13574219 C0.81435181 8.23861511 0.61893799 7.34148804 0.41760254 6.41717529 C0 4 0 4 0 0 Z " fill="#4F5FFF" transform="translate(797,66)"/>
<path d="M0 0 C4.62 0 9.24 0 14 0 C16.98574347 3.26835838 18.24558311 5.14324687 20 9 C20.98768598 10.75679647 21.98524031 12.50807842 22.9921875 14.25390625 C23.95807769 16.02073897 24.91814386 17.79075847 25.875 19.5625 C27.56625 22.676875 29.2575 25.79125 31 29 C31.33 19.43 31.66 9.86 32 0 C36.62 0 41.24 0 46 0 C46 18.15 46 36.3 46 55 C41.38 55 36.76 55 32 55 C29.73916571 51.04927492 27.47865831 47.09836659 25.21899414 43.14697266 C24.44998257 41.80246055 23.68077783 40.4580589 22.91137695 39.11376953 C21.80629641 37.18290668 20.70190829 35.25164926 19.59765625 33.3203125 C19.25283707 32.71816925 18.90801788 32.116026 18.55274963 31.49563599 C17.32594364 29.34879783 16.10604986 27.21209971 15 25 C14.67 34.9 14.34 44.8 14 55 C9.38 55 4.76 55 0 55 C0 36.85 0 18.7 0 0 Z " fill="#4F5FFF" transform="translate(1065,66)"/>
<path d="M0 0 C4.62 0 9.24 0 14 0 C14 6.93 14 13.86 14 21 C19.94 21 25.88 21 32 21 C32 14.07 32 7.14 32 0 C36.62 0 41.24 0 46 0 C46 18.15 46 36.3 46 55 C41.38 55 36.76 55 32 55 C32 47.41 32 39.82 32 32 C26.06 32 20.12 32 14 32 C14 39.59 14 47.18 14 55 C9.38 55 4.76 55 0 55 C0 36.85 0 18.7 0 0 Z " fill="#4F5FFF" transform="translate(987,66)"/>
<path d="M0 0 C1.06009277 0.01027222 1.06009277 0.01027222 2.14160156 0.02075195 C9.22769134 0.23902445 13.49147166 1.73466828 18.5 6.875 C21.3843751 11.42343766 22.125 13.93834035 22.125 19.4375 C17.835 19.4375 13.545 19.4375 9.125 19.4375 C8.58875 18.303125 8.0525 17.16875 7.5 16 C5.84093448 13.10982579 5.43752356 12.55718987 2.1875 11.3125 C-1.44771413 11.46087609 -3.05381832 12.16488143 -5.875 14.4375 C-9.59017333 20.40831428 -9.44849193 28.70848996 -8.1875 35.4375 C-7.14026252 39.13639649 -6.36216117 41.48128763 -2.875 43.4375 C0.81653847 43.75178682 4.43042463 43.66681847 8.125 43.4375 C8.125 40.7975 8.125 38.1575 8.125 35.4375 C5.155 35.4375 2.185 35.4375 -0.875 35.4375 C-0.875 32.1375 -0.875 28.8375 -0.875 25.4375 C6.715 25.4375 14.305 25.4375 22.125 25.4375 C22.28676523 29.35581337 22.40581185 33.26747909 22.5 37.1875 C22.55027344 38.29867187 22.60054687 39.40984375 22.65234375 40.5546875 C22.7077173 43.61869046 22.67342008 46.42176202 22.125 49.4375 C17.17754053 54.48958852 10.12475495 55.6637427 3.22607422 55.81811523 C-5.7367995 55.79342708 -11.6825213 54.87947648 -18.1875 48.4375 C-23.49391462 41.69965474 -24.86276573 31.79872824 -23.875 23.4375 C-22.66112886 15.20286064 -20.5133286 8.78683276 -13.875 3.4375 C-9.27592702 0.60326387 -5.31442329 -0.07859713 0 0 Z " fill="#4F5FFF" transform="translate(956.875,65.5625)"/>
<path d="M0 0 C4.23231308 2.49762688 7.07182911 5.65434388 9.24609375 10.08984375 C9.81763953 12.79125245 10.05519006 15.3217402 10.24609375 18.08984375 C5.95609375 18.08984375 1.66609375 18.08984375 -2.75390625 18.08984375 C-3.10453125 17.14109375 -3.45515625 16.19234375 -3.81640625 15.21484375 C-5.5244241 11.82048348 -5.5244241 11.82048348 -9.12890625 10.52734375 C-12.68209776 9.81474156 -12.68209776 9.81474156 -15.56640625 11.15234375 C-18.4727558 13.72653907 -19.53980285 16.10166787 -19.95874023 19.99194336 C-20.05872934 22.17414834 -20.07589534 24.34295621 -20.06640625 26.52734375 C-20.08251953 27.26533203 -20.09863281 28.00332031 -20.11523438 28.76367188 C-20.11952655 33.59236583 -19.41159806 36.90608073 -16.75390625 41.08984375 C-14.10932246 42.41213564 -12.07629324 42.18661569 -9.12890625 42.15234375 C-8.12601563 42.14332031 -7.123125 42.13429687 -6.08984375 42.125 C-5.31898437 42.11339844 -4.548125 42.10179687 -3.75390625 42.08984375 C-3.75390625 39.44984375 -3.75390625 36.80984375 -3.75390625 34.08984375 C-6.72390625 34.08984375 -9.69390625 34.08984375 -12.75390625 34.08984375 C-12.75390625 30.78984375 -12.75390625 27.48984375 -12.75390625 24.08984375 C-5.16390625 24.08984375 2.42609375 24.08984375 10.24609375 24.08984375 C10.40785898 28.00815712 10.5269056 31.91982284 10.62109375 35.83984375 C10.67136719 36.95101562 10.72164062 38.0621875 10.7734375 39.20703125 C10.82881105 42.27103421 10.79451383 45.07410577 10.24609375 48.08984375 C5.29863428 53.14193227 -1.7541513 54.31608645 -8.65283203 54.47045898 C-16.62330565 54.44850439 -22.47655163 54.06855425 -28.48828125 48.4765625 C-34.55646654 41.96048734 -35.11674146 35.37176991 -35.12890625 26.77734375 C-35.15339844 25.87822266 -35.17789062 24.97910156 -35.203125 24.05273438 C-35.23386678 16.96675433 -33.97892015 10.50729675 -28.97412109 5.20385742 C-21.08033808 -1.91578366 -10.12459692 -3.34614338 0 0 Z " fill="#4F5FFF" transform="translate(1153.75390625,66.91015625)"/>
<path d="M0 0 C6.36244292 3.78340296 10.82379103 9.23332142 12.91015625 16.34375 C14.69895364 26.01701587 14.51150232 36.44928123 9.41796875 45.08984375 C4.89133434 50.3157912 0.13466986 53.70796048 -6.8515625 54.42578125 C-19.86830334 54.56929548 -19.86830334 54.56929548 -25.58203125 50.08984375 C-32.22467788 43.44719712 -34.51491087 35.95959114 -34.76953125 26.77734375 C-34.62989325 18.45491914 -32.77931309 11.69503479 -27.58203125 5.08984375 C-20.34768666 -1.78278361 -9.38203998 -3.30713361 0 0 Z M-16.39453125 12.02734375 C-21.07008977 18.57312568 -20.95913715 25.53456029 -20.1328125 33.33984375 C-19.36672538 37.16484611 -18.16597243 39.19269758 -15.58203125 42.08984375 C-12.40324431 43.67923722 -10.08635405 43.50561086 -6.58203125 43.08984375 C-2.23684957 38.93358301 -0.77574087 35.93961033 -0.37890625 30.1015625 C-0.27142451 22.4793159 -0.67535269 17.59519552 -4.83203125 11.15234375 C-8.94430375 8.65560688 -12.61088799 9.42083395 -16.39453125 12.02734375 Z " fill="#4F5FFF" transform="translate(612.58203125,66.91015625)"/>
<path d="M0 0 C1.79244141 0.01740234 1.79244141 0.01740234 3.62109375 0.03515625 C5.41740234 0.04869141 5.41740234 0.04869141 7.25 0.0625 C8.17683594 0.07410156 9.10367188 0.08570312 10.05859375 0.09765625 C12.97079895 7.76074985 15.87962066 15.4251135 18.78312683 23.09150696 C20.00829077 26.32636049 21.23452585 29.56079323 22.46289062 32.79443359 C23.72712317 36.12348647 24.9871717 39.45409221 26.24609375 42.78515625 C26.82508423 44.30592773 26.82508423 44.30592773 27.41577148 45.85742188 C27.76583252 46.78619141 28.11589355 47.71496094 28.4765625 48.671875 C28.78360107 49.48229248 29.09063965 50.29270996 29.40698242 51.12768555 C30.05859375 53.09765625 30.05859375 53.09765625 30.05859375 55.09765625 C25.10859375 55.09765625 20.15859375 55.09765625 15.05859375 55.09765625 C12.05859375 47.34765625 12.05859375 47.34765625 12.05859375 45.09765625 C3.64359375 45.59265625 3.64359375 45.59265625 -4.94140625 46.09765625 C-5.93140625 49.06765625 -6.92140625 52.03765625 -7.94140625 55.09765625 C-12.89140625 55.09765625 -17.84140625 55.09765625 -22.94140625 55.09765625 C-20.91481097 48.14614504 -18.66623818 41.33198143 -16.18359375 34.53125 C-15.83507355 33.57114517 -15.48655334 32.61104034 -15.12747192 31.62184143 C-14.39772193 29.61384732 -13.66657604 27.60635999 -12.93408203 25.59936523 C-11.8085908 22.51372949 -10.68919185 19.42592921 -9.5703125 16.33789062 C-8.85843381 14.38137907 -8.14620698 12.42499414 -7.43359375 10.46875 C-6.93048172 9.07987831 -6.93048172 9.07987831 -6.41720581 7.66294861 C-6.10663239 6.81438797 -5.79605896 5.96582733 -5.47607422 5.09155273 C-5.06662064 3.96764381 -5.06662064 3.96764381 -4.64889526 2.82102966 C-3.46844163 -0.05443889 -3.3166675 0.11011512 0 0 Z M3.05859375 18.09765625 C2.38446164 20.01170992 1.71956055 21.92901651 1.05859375 23.84765625 C0.68734375 24.915 0.31609375 25.98234375 -0.06640625 27.08203125 C-1.12718102 30.21458187 -1.12718102 30.21458187 -0.94140625 34.09765625 C2.02859375 34.09765625 4.99859375 34.09765625 8.05859375 34.09765625 C6.89531916 28.69673851 5.63563519 23.39200966 4.05859375 18.09765625 C3.72859375 18.09765625 3.39859375 18.09765625 3.05859375 18.09765625 Z " fill="#4F5FFF" transform="translate(379.94140625,65.90234375)"/>
<path d="M0 0 C1.79244141 0.01740234 1.79244141 0.01740234 3.62109375 0.03515625 C5.41740234 0.04869141 5.41740234 0.04869141 7.25 0.0625 C8.17683594 0.07410156 9.10367188 0.08570312 10.05859375 0.09765625 C12.97079895 7.76074985 15.87962066 15.4251135 18.78312683 23.09150696 C20.00829077 26.32636049 21.23452585 29.56079323 22.46289062 32.79443359 C23.72712317 36.12348647 24.9871717 39.45409221 26.24609375 42.78515625 C26.82508423 44.30592773 26.82508423 44.30592773 27.41577148 45.85742188 C27.76583252 46.78619141 28.11589355 47.71496094 28.4765625 48.671875 C28.78360107 49.48229248 29.09063965 50.29270996 29.40698242 51.12768555 C30.05859375 53.09765625 30.05859375 53.09765625 30.05859375 55.09765625 C25.10859375 55.09765625 20.15859375 55.09765625 15.05859375 55.09765625 C12.05859375 47.34765625 12.05859375 47.34765625 12.05859375 45.09765625 C3.64359375 45.59265625 3.64359375 45.59265625 -4.94140625 46.09765625 C-5.93140625 49.06765625 -6.92140625 52.03765625 -7.94140625 55.09765625 C-12.89140625 55.09765625 -17.84140625 55.09765625 -22.94140625 55.09765625 C-20.91481097 48.14614504 -18.66623818 41.33198143 -16.18359375 34.53125 C-15.83507355 33.57114517 -15.48655334 32.61104034 -15.12747192 31.62184143 C-14.39772193 29.61384732 -13.66657604 27.60635999 -12.93408203 25.59936523 C-11.8085908 22.51372949 -10.68919185 19.42592921 -9.5703125 16.33789062 C-8.85843381 14.38137907 -8.14620698 12.42499414 -7.43359375 10.46875 C-6.93048172 9.07987831 -6.93048172 9.07987831 -6.41720581 7.66294861 C-6.10663239 6.81438797 -5.79605896 5.96582733 -5.47607422 5.09155273 C-5.06662064 3.96764381 -5.06662064 3.96764381 -4.64889526 2.82102966 C-3.46844163 -0.05443889 -3.3166675 0.11011512 0 0 Z M3.05859375 18.09765625 C2.38446164 20.01170992 1.71956055 21.92901651 1.05859375 23.84765625 C0.68734375 24.915 0.31609375 25.98234375 -0.06640625 27.08203125 C-1.12718102 30.21458187 -1.12718102 30.21458187 -0.94140625 34.09765625 C2.02859375 34.09765625 4.99859375 34.09765625 8.05859375 34.09765625 C6.89531916 28.69673851 5.63563519 23.39200966 4.05859375 18.09765625 C3.72859375 18.09765625 3.39859375 18.09765625 3.05859375 18.09765625 Z " fill="#4F5FFF" transform="translate(650.94140625,65.90234375)"/>
<path d="M0 0 C1.0533252 0.00749268 1.0533252 0.00749268 2.12792969 0.01513672 C7.96303475 0.21162772 11.93186531 1.35849522 16.0625 5.5 C19.93673699 10.05222846 20.0625 11.21977651 20.0625 17.5 C15.4425 17.5 10.8225 17.5 6.0625 17.5 C5.4025 15.85 4.7425 14.2 4.0625 12.5 C0.77675787 11.42856235 -1.07683739 11.16026476 -4.3125 12.4375 C-4.84875 12.788125 -5.385 13.13875 -5.9375 13.5 C-6.12803427 15.88977378 -6.12803427 15.88977378 -4.9375 18.5 C-2.20154116 20.25227884 0.78673214 21.34059362 3.8125 22.5 C11.00300181 25.30771975 15.65050969 27.88201453 20.0625 34.5 C20.63342896 39.28987155 20.67066123 43.91202344 18.9375 48.4375 C14.89916821 52.87966496 10.59716391 55.29860786 4.62109375 55.7734375 C-3.848984 56.0684256 -10.91988768 55.89487844 -17.9375 50.5 C-21.98504075 46.05757722 -22.53816615 42.2903408 -22.9375 36.5 C-18.3175 36.5 -13.6975 36.5 -8.9375 36.5 C-8.2775 38.48 -7.6175 40.46 -6.9375 42.5 C-3.90403378 44.43804786 -2.27655795 44.53260173 1.3125 44.1875 C3.95709983 43.77689876 3.95709983 43.77689876 5.0625 42.5 C5.10313832 40.83382885 5.105221 39.16611905 5.0625 37.5 C0.7418001 35.25963709 -3.49882449 33.25659167 -8.0625 31.5625 C-13.03479675 29.61182974 -17.20361685 27.35970312 -20.0625 22.64453125 C-21.69511456 18.64316787 -21.67182312 14.72398256 -20.9375 10.5 C-18.40105257 5.64374122 -14.93351048 3.1348371 -9.87084961 1.09545898 C-6.61268855 0.09196677 -3.37701973 -0.03155337 0 0 Z " fill="#4F5FFF" transform="translate(434.9375,65.5)"/>
<path d="M0 0 C4.25369974 2.50075731 7.12994906 5.62582698 9.31640625 10.08984375 C9.31640625 12.06984375 9.31640625 14.04984375 9.31640625 16.08984375 C4.69640625 16.08984375 0.07640625 16.08984375 -4.68359375 16.08984375 C-5.34359375 14.43984375 -6.00359375 12.78984375 -6.68359375 11.08984375 C-9.96933588 10.0184061 -11.82293114 9.75010851 -15.05859375 11.02734375 C-15.59484375 11.37796875 -16.13109375 11.72859375 -16.68359375 12.08984375 C-16.7456037 14.51334667 -16.7456037 14.51334667 -15.68359375 17.08984375 C-13.24976103 18.35228067 -11.13064131 19.23808951 -8.55859375 20.08984375 C-1.87633111 22.53156077 3.34013606 24.82554741 8.25390625 30.21484375 C10.2633771 35.65223547 10.26460107 41.61400171 8.19140625 47.02734375 C4.15307446 51.46950871 -0.14892984 53.88845161 -6.125 54.36328125 C-14.59507775 54.65826935 -21.66598143 54.48472219 -28.68359375 49.08984375 C-32.7311345 44.64742097 -33.2842599 40.88018455 -33.68359375 35.08984375 C-29.06359375 35.08984375 -24.44359375 35.08984375 -19.68359375 35.08984375 C-19.02359375 37.06984375 -18.36359375 39.04984375 -17.68359375 41.08984375 C-14.65012753 43.02789161 -13.0226517 43.12244548 -9.43359375 42.77734375 C-6.78899392 42.36674251 -6.78899392 42.36674251 -5.68359375 41.08984375 C-5.64295543 39.4236726 -5.64087275 37.7559628 -5.68359375 36.08984375 C-10.0223083 33.84013991 -14.29809338 31.81757402 -18.87109375 30.08984375 C-23.76700027 28.16001557 -27.11291884 25.98548588 -30.49609375 21.90234375 C-32.18182371 17.90982543 -32.25176106 14.36277328 -31.68359375 10.08984375 C-29.63925873 5.24799764 -26.17560714 2.33361345 -21.5078125 0.00390625 C-15.10844417 -2.06725861 -6.3787331 -2.16338401 0 0 Z " fill="#4F5FFF" transform="translate(716.68359375,66.91015625)"/>
<path d="M0 0 C12.54 0 25.08 0 38 0 C38 3.63 38 7.26 38 11 C30.08 11 22.16 11 14 11 C14 14.3 14 17.6 14 21 C20.6 21 27.2 21 34 21 C34 24.63 34 28.26 34 32 C27.4 32 20.8 32 14 32 C14 35.96 14 39.92 14 44 C21.92 44 29.84 44 38 44 C38 47.63 38 51.26 38 55 C25.46 55 12.92 55 0 55 C0 36.85 0 18.7 0 0 Z " fill="#4F5FFF" transform="translate(867,66)"/>
<path d="M0 0 C12.54 0 25.08 0 38 0 C38 3.63 38 7.26 38 11 C30.08 11 22.16 11 14 11 C14 14.3 14 17.6 14 21 C20.6 21 27.2 21 34 21 C34 24.63 34 28.26 34 32 C27.4 32 20.8 32 14 32 C14 35.96 14 39.92 14 44 C21.92 44 29.84 44 38 44 C38 47.63 38 51.26 38 55 C25.46 55 12.92 55 0 55 C0 36.85 0 18.7 0 0 Z " fill="#4F5FFF" transform="translate(318,66)"/>
<path d="M0 0 C4.78117292 2.13822128 8.2121744 5.55674913 10.34765625 10.34765625 C11.00093367 13.40928475 11.20241546 16.20077242 11.34765625 19.34765625 C7.05765625 19.34765625 2.76765625 19.34765625 -1.65234375 19.34765625 C-2.10609375 18.21328125 -2.55984375 17.07890625 -3.02734375 15.91015625 C-4.22330181 12.30043933 -4.22330181 12.30043933 -6.65234375 11.34765625 C-8.3593711 11.27769611 -10.06902378 11.26325471 -11.77734375 11.28515625 C-12.68742188 11.29417969 -13.5975 11.30320312 -14.53515625 11.3125 C-15.58316406 11.32990234 -15.58316406 11.32990234 -16.65234375 11.34765625 C-18.81704518 16.63055855 -18.95440481 21.3005766 -18.90234375 26.91015625 C-18.91007813 27.74740234 -18.9178125 28.58464844 -18.92578125 29.44726562 C-18.91199497 33.80028258 -18.84205172 37.45398539 -16.65234375 41.34765625 C-13.47131777 42.93816924 -10.11543385 42.74506003 -6.65234375 42.34765625 C-3.53423453 40.33597289 -3.59787625 39.12978627 -2.65234375 35.34765625 C1.96765625 35.34765625 6.58765625 35.34765625 11.34765625 35.34765625 C11.34765625 41.89197205 10.47257817 44.52324633 6.34765625 49.34765625 C-1.17311152 55.09108722 -9.60502905 55.17785822 -18.65234375 54.34765625 C-24.38096682 52.3430702 -28.25455337 48.2444718 -31.65234375 43.34765625 C-35.45222793 34.57972563 -35.17302319 22.06488881 -32.7421875 12.92578125 C-26.47651696 -0.37114015 -13.53082668 -3.32790583 0 0 Z " fill="#4F5FFF" transform="translate(561.65234375,66.65234375)"/>
<path d="M0 0 C14.85 0 29.7 0 45 0 C45 3.63 45 7.26 45 11 C39.72 11 34.44 11 29 11 C29 25.52 29 40.04 29 55 C24.38 55 19.76 55 15 55 C15 40.48 15 25.96 15 11 C10.05 11 5.1 11 0 11 C0 7.37 0 3.74 0 0 Z " fill="#4F5FFF" transform="translate(731,66)"/>
<path d="M0 0 C14.85 0 29.7 0 45 0 C45 3.63 45 7.26 45 11 C39.72 11 34.44 11 29 11 C29 25.52 29 40.04 29 55 C24.38 55 19.76 55 15 55 C15 40.48 15 25.96 15 11 C10.05 11 5.1 11 0 11 C0 7.37 0 3.74 0 0 Z " fill="#4F5FFF" transform="translate(460,66)"/>
<path d="M0 0 C4.62 0 9.24 0 14 0 C14 18.15 14 36.3 14 55 C9.38 55 4.76 55 0 55 C0 36.85 0 18.7 0 0 Z " fill="#4F5FFF" transform="translate(1042,66)"/>
<path d="M0 0 C4.62 0 9.24 0 14 0 C14 18.15 14 36.3 14 55 C9.38 55 4.76 55 0 55 C0 36.85 0 18.7 0 0 Z " fill="#4F5FFF" transform="translate(911,66)"/>
<path d="M0 0 C0.99 0 1.98 0 3 0 C4.66666667 0 6.33333333 0 8 0 C7.67005459 7.19280987 6.55173053 14.24191221 5.25 21.3125 C5.10530273 22.17198242 4.96060547 23.03146484 4.81152344 23.91699219 C3.71130546 29.62701234 2.21258796 32.9360156 -2 37 C-6.26183659 38.4206122 -10.71273845 39.10270083 -14.85546875 37.10546875 C-16.28816368 36.14239828 -17.65198441 35.07841247 -19 34 C-18.34 32.68 -17.68 31.36 -17 30 C-16.29875 30.33 -15.5975 30.66 -14.875 31 C-11.58974033 32.14269902 -9.44904829 32.51368804 -6 32 C-3.59593616 29.62157423 -3.59593616 29.62157423 -2 27 C-2.66 27.33 -3.32 27.66 -4 28 C-11.21726041 28.58203713 -11.21726041 28.58203713 -14.4375 26.1875 C-17.60185583 21.75740184 -17.46581975 17.23412012 -17 12 C-16.06390935 7.79864827 -14.66763295 4.78545052 -11.875 1.5 C-7.84889846 -0.60057472 -4.44221641 -0.29947526 0 0 Z M-4 4 C-7.6360867 5.91372984 -9.51624342 7.14767788 -11 11 C-11.31407971 13.52129245 -11.31407971 13.52129245 -11.25 16.125 C-11.25515625 16.99382812 -11.2603125 17.86265625 -11.265625 18.7578125 C-11.2106341 21.20203887 -11.2106341 21.20203887 -9 23 C-6.58517587 23.50059916 -6.58517587 23.50059916 -4 23 C-1.13881463 20.79340317 -0.1139698 19.56400438 0.609375 15.984375 C0.67898438 14.38335937 0.67898438 14.38335937 0.75 12.75 C0.80671875 11.67234375 0.8634375 10.5946875 0.921875 9.484375 C0.94765625 8.66453125 0.9734375 7.8446875 1 7 C-0.65 6.01 -2.3 5.02 -4 4 Z " fill="#000000" transform="translate(421,162)"/>
<path d="M0 0 C0.99 0 1.98 0 3 0 C4.66666667 0 6.33333333 0 8 0 C7.39352576 6.98010413 6.48748285 13.85402703 5.25 20.75 C5.0334375 22.10931641 5.0334375 22.10931641 4.8125 23.49609375 C3.74533424 29.39132397 2.37613298 32.83864655 -2 37 C-6.26183659 38.4206122 -10.71273845 39.10270083 -14.85546875 37.10546875 C-16.28816368 36.14239828 -17.65198441 35.07841247 -19 34 C-18.34 32.68 -17.68 31.36 -17 30 C-16.29875 30.33 -15.5975 30.66 -14.875 31 C-11.58974033 32.14269902 -9.44904829 32.51368804 -6 32 C-3.59593616 29.62157423 -3.59593616 29.62157423 -2 27 C-2.66 27.33 -3.32 27.66 -4 28 C-11.21726041 28.58203713 -11.21726041 28.58203713 -14.4375 26.1875 C-17.7456059 21.55615174 -17.59140772 16.4765975 -17 11 C-15.74984031 7.13940325 -13.91991395 4.09026838 -11.3125 1 C-7.62130041 -0.59619442 -3.9580865 -0.19681093 0 0 Z M-4 4 C-7.68982098 5.59559826 -9.37481905 7.16322263 -10.875 10.8125 C-12.07943911 14.50747421 -12.16866603 17.22430975 -11 21 C-9.17899853 23.19920496 -9.17899853 23.19920496 -6.625 23.4375 C-3.87041777 23.19907802 -3.87041777 23.19907802 -1.75 21.1875 C0.76278888 16.61063455 0.81957918 12.15101436 1 7 C-0.65 6.01 -2.3 5.02 -4 4 Z " fill="#000000" transform="translate(1102,162)"/>
<path d="M0 0 C0.99 0 1.98 0 3 0 C4.66666667 0 6.33333333 0 8 0 C4.48275862 31.48965517 4.48275862 31.48965517 -2 37 C-6.26183659 38.4206122 -10.71273845 39.10270083 -14.85546875 37.10546875 C-16.28816368 36.14239828 -17.65198441 35.07841247 -19 34 C-18.34 32.68 -17.68 31.36 -17 30 C-16.29875 30.33 -15.5975 30.66 -14.875 31 C-11.58974033 32.14269902 -9.44904829 32.51368804 -6 32 C-3.59593616 29.62157423 -3.59593616 29.62157423 -2 27 C-2.66 27.33 -3.32 27.66 -4 28 C-11.21726041 28.58203713 -11.21726041 28.58203713 -14.4375 26.1875 C-17.7456059 21.55615174 -17.59140772 16.4765975 -17 11 C-15.74984031 7.13940325 -13.91991395 4.09026838 -11.3125 1 C-7.62130041 -0.59619442 -3.9580865 -0.19681093 0 0 Z M-9.3125 7 C-11.39390597 10.70027729 -12.21395162 13.7551999 -12 18 C-11.07979268 21.03824575 -11.07979268 21.03824575 -9 23 C-6.54412036 23.83356413 -6.54412036 23.83356413 -4 23 C-0.22807746 19.96150685 0.35408143 16.92808083 0.875 12.3125 C1.17432452 9.50467759 1.17432452 9.50467759 1 7 C-0.87668319 4.72819646 -0.87668319 4.72819646 -3.875 4.5625 C-7.10686308 4.72662334 -7.10686308 4.72662334 -9.3125 7 Z " fill="#000000" transform="translate(552,162)"/>
<path d="M0 0 C1.31677734 0.02707031 1.31677734 0.02707031 2.66015625 0.0546875 C3.41167969 0.07789063 4.16320312 0.10109375 4.9375 0.125 C5.5975 0.125 6.2575 0.125 6.9375 0.125 C8.9375 0.125 10.9375 0.125 12.9375 0.125 C12.31780141 4.29075163 11.67833344 8.45285519 11.02099609 12.61279297 C10.80047041 14.02603003 10.58520964 15.44009973 10.37548828 16.85498047 C10.07170357 18.89796864 9.74861089 20.93713445 9.421875 22.9765625 C9.23334961 24.20197754 9.04482422 25.42739258 8.85058594 26.68994141 C7.68347474 31.08065117 5.80541573 34.65735192 2.1875 37.5 C-2.57059412 38.82169281 -6.57213921 38.74598366 -11.0625 36.875 C-11.7225 36.2975 -12.3825 35.72 -13.0625 35.125 C-13.0625 33.805 -13.0625 32.485 -13.0625 31.125 C-11.7425 31.125 -10.4225 31.125 -9.0625 31.125 C-8.7325 31.455 -8.4025 31.785 -8.0625 32.125 C-4.64678147 32.62531206 -4.64678147 32.62531206 -1.0625 32.125 C0.94614359 29.7523026 0.94614359 29.7523026 1.9375 27.125 C1.2775 27.455 0.6175 27.785 -0.0625 28.125 C-4.16100772 28.58898201 -6.39353277 28.50930032 -10 26.4375 C-13.25447361 21.21061814 -12.85624202 16.11414433 -12.0625 10.125 C-9.98819496 3.53958497 -7.17301857 -0.19015366 0 0 Z M-4.375 6.9375 C-7.49680572 10.98428519 -7.6144967 15.20814048 -7.0625 20.125 C-6.12041909 22.31911252 -6.12041909 22.31911252 -4.0625 23.125 C-0.41515021 22.90169287 1.32122835 22.74127165 3.9375 20.125 C4.70006181 17.07921432 4.70006181 17.07921432 5.1875 13.625 C5.37828125 12.4596875 5.5690625 11.294375 5.765625 10.09375 C5.82234375 9.1140625 5.8790625 8.134375 5.9375 7.125 C4.06325284 4.844279 4.06325284 4.844279 1.0625 4.75 C-2.1358401 4.85974715 -2.1358401 4.85974715 -4.375 6.9375 Z " fill="#000000" transform="translate(1000.0625,161.875)"/>
<path d="M0 0 C1.65 0 3.3 0 5 0 C6.06723961 3.46222615 6.10173486 6.64039266 6.0625 10.25 C6.05347656 11.32765625 6.04445313 12.4053125 6.03515625 13.515625 C6.02355469 14.33546875 6.01195312 15.1553125 6 16 C6.66 16 7.32 16 8 16 C8.3403125 14.824375 8.3403125 14.824375 8.6875 13.625 C10.40660933 8.87698375 12.68084721 4.47897448 15 0 C16.65 0 18.3 0 20 0 C20.19916016 1.49853516 20.19916016 1.49853516 20.40234375 3.02734375 C20.57894531 4.31769531 20.75554687 5.60804688 20.9375 6.9375 C21.11152344 8.22527344 21.28554687 9.51304687 21.46484375 10.83984375 C21.66162423 13.85466313 21.66162423 13.85466313 23 15 C23.42152344 14.00097656 23.84304688 13.00195312 24.27734375 11.97265625 C24.83060217 10.66921692 25.38399451 9.36583443 25.9375 8.0625 C26.21529297 7.40314453 26.49308594 6.74378906 26.77929688 6.06445312 C28.88671875 1.11328125 28.88671875 1.11328125 30 0 C31.66617115 -0.04063832 33.33388095 -0.042721 35 0 C34.01157932 5.82827369 31.63927127 10.87759235 29.25 16.25 C28.81945313 17.26835937 28.38890625 18.28671875 27.9453125 19.3359375 C27.51476563 20.30273438 27.08421875 21.26953125 26.640625 22.265625 C26.25422852 23.15024414 25.86783203 24.03486328 25.46972656 24.94628906 C24 27 24 27 21.33496094 27.79589844 C20.56442383 27.86325195 19.79388672 27.93060547 19 28 C18.6839151 26.64666562 18.37235649 25.29227399 18.0625 23.9375 C17.88847656 23.18339844 17.71445313 22.42929688 17.53515625 21.65234375 C16.89080611 18.45881278 16.46073479 15.22514351 16 12 C13.03 17.28 10.06 22.56 7 28 C5.68 28 4.36 28 3 28 C1.18152232 18.67809502 0.45637789 9.46383622 0 0 Z " fill="#000000" transform="translate(1128,162)"/>
<path d="M0 0 C1.65 0 3.3 0 5 0 C6.74455799 3.48911599 6.46237266 7.49741795 6.71875 11.34765625 C6.71051998 13.92005405 6.71051998 13.92005405 8 15 C11.465 7.575 11.465 7.575 15 0 C16.65 0 18.3 0 20 0 C21.485 7.92 21.485 7.92 23 16 C24.93241047 11.10964131 24.93241047 11.10964131 26.85913086 6.21704102 C28.88888889 1.11111111 28.88888889 1.11111111 30 0 C31.66617115 -0.04063832 33.33388095 -0.042721 35 0 C34.46183965 6.15779632 31.84758241 11.29826798 29.25 16.8125 C28.81945312 17.77865234 28.38890625 18.74480469 27.9453125 19.74023438 C27.51476562 20.65740234 27.08421875 21.57457031 26.640625 22.51953125 C26.25422852 23.35589111 25.86783203 24.19225098 25.46972656 25.05395508 C24 27 24 27 19 28 C17.515 19.585 17.515 19.585 16 11 C13.36 16.61 10.72 22.22 8 28 C6.35 28 4.7 28 3 28 C2.49595781 24.08384244 1.99746767 20.1669977 1.5 16.25 C1.35691406 15.13882813 1.21382812 14.02765625 1.06640625 12.8828125 C0.93105469 11.81289062 0.79570313 10.74296875 0.65625 9.640625 C0.53056641 8.65610352 0.40488281 7.67158203 0.27539062 6.65722656 C0 4 0 4 0 0 Z " fill="#000000" transform="translate(911,162)"/>
<path d="M0 0 C1.2065625 0.0309375 1.2065625 0.0309375 2.4375 0.0625 C1.77946911 8.53074568 0.3550703 16.82945594 -1.125 25.1875 C-1.36165928 26.53900455 -1.59798969 27.89056674 -1.83398438 29.2421875 C-2.4069373 32.51620422 -2.98318405 35.78960426 -3.5625 39.0625 C-6.22916667 39.0625 -8.89583333 39.0625 -11.5625 39.0625 C-12.67625 39.145 -13.79 39.2275 -14.9375 39.3125 C-19.1973963 39.01871405 -20.62575875 38.08561599 -23.5625 35.0625 C-25.60860967 28.92417098 -25.09067626 22.71107745 -22.52734375 16.79296875 C-20.91686054 13.90453125 -19.50141307 12.59584595 -16.5625 11.0625 C-12.308137 10.54568478 -8.6319409 10.7060197 -4.5625 12.0625 C-4.47162109 10.88880859 -4.47162109 10.88880859 -4.37890625 9.69140625 C-4.29511719 8.67949219 -4.21132813 7.66757813 -4.125 6.625 C-4.04378906 5.61566406 -3.96257813 4.60632813 -3.87890625 3.56640625 C-3.45167428 0.1854718 -3.42707105 0.0835871 0 0 Z M-14.25 16.1875 C-17.31551389 18.6730518 -18.41105954 20.63272392 -18.828125 24.5703125 C-18.82296875 25.43398437 -18.8178125 26.29765625 -18.8125 27.1875 C-18.81765625 28.05632812 -18.8228125 28.92515625 -18.828125 29.8203125 C-18.7731341 32.26453887 -18.7731341 32.26453887 -16.5625 34.0625 C-14.14767587 34.56309916 -14.14767587 34.56309916 -11.5625 34.0625 C-8.56508839 31.79508532 -7.65697936 30.56396736 -6.953125 26.828125 C-6.90671875 25.66796875 -6.8603125 24.5078125 -6.8125 23.3125 C-6.75578125 22.14203125 -6.6990625 20.9715625 -6.640625 19.765625 C-6.61484375 18.87359375 -6.5890625 17.9815625 -6.5625 17.0625 C-10.32365534 15.15965998 -10.32365534 15.15965998 -14.25 16.1875 Z " fill="#000000" transform="translate(734.5625,150.9375)"/>
<path d="M0 0 C1.65 0 3.3 0 5 0 C4.67 3.96 4.34 7.92 4 12 C4.33 11.67 4.66 11.34 5 11 C6.9609375 10.796875 6.9609375 10.796875 9.375 10.75 C10.16648437 10.72421875 10.95796875 10.6984375 11.7734375 10.671875 C14 11 14 11 15.7265625 12.078125 C19.40800986 17.63417439 17.72054679 24.32202736 16.5625 30.4375 C16.41490234 31.26443359 16.26730469 32.09136719 16.11523438 32.94335938 C15.75315508 34.96399543 15.37792451 36.98226747 15 39 C13.02 39 11.04 39 9 39 C9.144375 37.91460937 9.28875 36.82921875 9.4375 35.7109375 C9.62519956 34.2656509 9.81268838 32.82033693 10 31.375 C10.14308594 30.30572266 10.14308594 30.30572266 10.2890625 29.21484375 C10.81606101 25.11178391 11.10466984 21.14754258 11 17 C8.08116739 15.70118208 8.08116739 15.70118208 5.45703125 16.80078125 C1.63580866 20.22104884 1.47596277 24.26899417 0.6875 29.1875 C0.43516602 30.59805664 0.43516602 30.59805664 0.17773438 32.03710938 C-0.23414897 34.35542419 -0.62583467 36.67535109 -1 39 C-2.98 39 -4.96 39 -7 39 C-6.16801359 33.76657386 -5.33174153 28.53385771 -4.49145508 23.30175781 C-4.20608924 21.52102301 -3.92190439 19.74009854 -3.63891602 17.95898438 C-3.23242084 15.40183781 -2.8217111 12.84539897 -2.41015625 10.2890625 C-2.28407486 9.49005524 -2.15799347 8.69104797 -2.02809143 7.86782837 C-1.11387171 2.22774341 -1.11387171 2.22774341 0 0 Z " fill="#000000" transform="translate(1200,151)"/>
<path d="M0 0 C1.98 0 3.96 0 6 0 C5.34 3.96 4.68 7.92 4 12 C4.66 11.67 5.32 11.34 6 11 C13.71819725 10.10662233 13.71819725 10.10662233 17.0625 12.4375 C20.15674026 20.89509003 16.87656047 30.52196787 15 39 C13.35 39 11.7 39 10 39 C10.62915097 31.32971263 11.29099142 23.66332677 12 16 C9.36 16.66 6.72 17.32 4 18 C2.22210948 24.97480127 0.60439285 31.98345528 -1 39 C-2.65 39 -4.3 39 -6 39 C-5.40884251 30.31660314 -4.02026777 21.86476618 -2.4375 13.3125 C-2.20353516 12.02666016 -1.96957031 10.74082031 -1.72851562 9.41601562 C-1.15663933 6.27653148 -0.58038572 3.13792014 0 0 Z " fill="#000000" transform="translate(1021,151)"/>
<path d="M0 0 C2.75 1.75 2.75 1.75 4 5 C4.0545013 9.05731898 3.53483854 12.98384877 3 17 C2.80334846 19.08248942 2.61522165 21.16580974 2.4375 23.25 C2.29213353 24.83337626 2.14648394 26.41672673 2 28 C-1 28 -4 28 -7 28 C-8.9490625 28.12375 -8.9490625 28.12375 -10.9375 28.25 C-13.89413095 28.22822003 -14.88120623 28.07127626 -17.5 26.5 C-19.21705339 23.63824436 -19.70234257 21.31638707 -19.49609375 17.97265625 C-18.79936436 15.20219688 -17.36730317 13.4897859 -15.06640625 11.83203125 C-10.88710638 10.14925077 -6.41465564 10.64651334 -2 11 C-2.66 9.02 -3.32 7.04 -4 5 C-7.93075644 5.57452746 -7.93075644 5.57452746 -11 8 C-14.125 8.125 -14.125 8.125 -17 8 C-14.21171975 -0.59719745 -8.24400169 -1.24909117 0 0 Z M-12.4375 17 C-12.953125 17.66 -13.46875 18.32 -14 19 C-13.34 20.32 -12.68 21.64 -12 23 C-8.68847126 23.36794764 -7.39390748 23.29809215 -4.6875 21.25 C-2.6 18.93541667 -2.6 18.93541667 -3 15 C-8.13725982 14.51510163 -8.13725982 14.51510163 -12.4375 17 Z " fill="#000000" transform="translate(468,162)"/>
<path d="M0 0 C0.845625 -0.00773438 1.69125 -0.01546875 2.5625 -0.0234375 C5.6245847 0.47709558 6.89755547 1.0754513 9 3.375 C10.29379989 8.50019763 9.85854052 12.9429323 9.0625 18.125 C8.27035326 23.2309595 8.27035326 23.2309595 8 28.375 C5 28.375 2 28.375 -1 28.375 C-2.9490625 28.49875 -2.9490625 28.49875 -4.9375 28.625 C-7.89413095 28.60322003 -8.88120623 28.44627626 -11.5 26.875 C-13.60565979 23.36556702 -13.83665744 20.36962913 -13 16.375 C-11.12984906 13.94380377 -9.71861655 12.73430827 -7 11.375 C-5.12620395 11.30466231 -3.24998898 11.2906978 -1.375 11.3125 C0.12933594 11.32603516 0.12933594 11.32603516 1.6640625 11.33984375 C2.43492188 11.35144531 3.20578125 11.36304688 4 11.375 C3.67 9.725 3.34 8.075 3 6.375 C1.20800528 5.59217352 1.20800528 5.59217352 -1 5.375 C-1.928125 6.0865625 -1.928125 6.0865625 -2.875 6.8125 C-5.67549701 8.87168898 -7.60724951 8.6063239 -11 8.375 C-9.07462578 2.43842948 -6.34065847 -0.05799383 0 0 Z M-8 18.375 C-7.67 19.695 -7.34 21.015 -7 22.375 C-4.75124253 23.24350174 -4.75124253 23.24350174 -2 23.375 C0.89177071 21.8116674 0.89177071 21.8116674 3 19.375 C3 18.055 3 16.735 3 15.375 C-1.73940561 15.10157275 -4.48550811 15.00108778 -8 18.375 Z " fill="#000000" transform="translate(1273,161.625)"/>
<path d="M0 0 C2.625 1.375 2.625 1.375 4 4 C5.17404826 11.90937777 3.25853408 20.20158347 2 28 C0.35 28 -1.3 28 -3 28 C-3 27.34 -3 26.68 -3 26 C-3.515625 26.33 -4.03125 26.66 -4.5625 27 C-7.96121795 28.39434583 -10.35594448 28.44751559 -14 28 C-17 26 -17 26 -19 23 C-19.43837215 20.04829422 -19.11363379 17.76388903 -18 15 C-15.20478936 12.05767301 -13.20070848 11.09895949 -9.15625 10.765625 C-6.42416323 10.75154208 -3.72600955 10.82538017 -1 11 C-1.33 9.35 -1.66 7.7 -2 6 C-4.34533951 5.23043864 -4.34533951 5.23043864 -7 5 C-7.474375 5.474375 -7.94875 5.94875 -8.4375 6.4375 C-10 8 -10 8 -13.1875 8.1875 C-14.115625 8.125625 -15.04375 8.06375 -16 8 C-15.69461464 5.14973668 -14.95551924 3.94834492 -13.0625 1.75 C-8.69892951 -0.74346885 -4.91398582 -0.77894548 0 0 Z M-12.0625 16.1875 C-13.38135516 18.73728665 -12.7975116 20.31746098 -12 23 C-8.59919423 22.89592083 -8.59919423 22.89592083 -5 22 C-3.07828158 19.58235424 -2 18.11532786 -2 15 C-7.26271712 14.55288081 -7.26271712 14.55288081 -12.0625 16.1875 Z " fill="#000000" transform="translate(801,162)"/>
<path d="M0 0 C2.50160818 1.87620613 3.61945652 3.23891303 5 6 C5.13677734 9.33736713 5.04283944 12.6585233 5 16 C-0.94 16 -6.88 16 -13 16 C-12.01 17.98 -11.02 19.96 -10 22 C-5.72547397 22.19881516 -2.91908179 21.63295075 1 20 C1.66 20.33 2.32 20.66 3 21 C2.70049983 23.8951683 2.19065168 24.83823494 -0.0625 26.75 C-3.85331223 28.36311159 -6.93806133 28.60846855 -11 28 C-14.86401903 26.31999173 -16.4317242 24.85190547 -18 21 C-18.9832336 14.27742605 -18.02929993 8.52703313 -14 3 C-10.00346393 -0.65397584 -5.18536587 -0.90138136 0 0 Z M-6 4 C-9.91603304 6.79420492 -9.91603304 6.79420492 -12 11 C-8.04 11 -4.08 11 0 11 C-0.33 9.35 -0.66 7.7 -1 6 C-3.47636012 4.62533375 -3.47636012 4.62533375 -6 4 Z " fill="#000000" transform="translate(1347,162)"/>
<path d="M0 0 C2.50160818 1.87620613 3.61945652 3.23891303 5 6 C5.13677734 9.33736713 5.04283944 12.6585233 5 16 C-0.94 16 -6.88 16 -13 16 C-12.01 17.98 -11.02 19.96 -10 22 C-5.72547397 22.19881516 -2.91908179 21.63295075 1 20 C1.66 20.33 2.32 20.66 3 21 C2.70049983 23.8951683 2.19065168 24.83823494 -0.0625 26.75 C-3.85331223 28.36311159 -6.93806133 28.60846855 -11 28 C-14.86401903 26.31999173 -16.4317242 24.85190547 -18 21 C-18.9832336 14.27742605 -18.02929993 8.52703313 -14 3 C-10.00346393 -0.65397584 -5.18536587 -0.90138136 0 0 Z M-6 4 C-9.91603304 6.79420492 -9.91603304 6.79420492 -12 11 C-8.04 11 -4.08 11 0 11 C-0.33 9.35 -0.66 7.7 -1 6 C-3.47636012 4.62533375 -3.47636012 4.62533375 -6 4 Z " fill="#000000" transform="translate(757,162)"/>
<path d="M0 0 C2.50160818 1.87620613 3.61945652 3.23891303 5 6 C5.13677734 9.33736713 5.04283944 12.6585233 5 16 C-0.94 16 -6.88 16 -13 16 C-12.01 17.98 -11.02 19.96 -10 22 C-5.72547397 22.19881516 -2.91908179 21.63295075 1 20 C1.66 20.33 2.32 20.66 3 21 C2.70049983 23.8951683 2.19065168 24.83823494 -0.0625 26.75 C-3.85331223 28.36311159 -6.93806133 28.60846855 -11 28 C-14.86401903 26.31999173 -16.4317242 24.85190547 -18 21 C-18.9832336 14.27742605 -18.02929993 8.52703313 -14 3 C-10.00346393 -0.65397584 -5.18536587 -0.90138136 0 0 Z M-6 4 C-9.91603304 6.79420492 -9.91603304 6.79420492 -12 11 C-8.04 11 -4.08 11 0 11 C-0.33 9.35 -0.66 7.7 -1 6 C-3.47636012 4.62533375 -3.47636012 4.62533375 -6 4 Z " fill="#000000" transform="translate(646,162)"/>
<path d="M0 0 C3.0625 1.8125 3.0625 1.8125 5 5 C5.40257166 8.7714608 5.22975053 12.18614119 5 16 C-0.61 16 -6.22 16 -12 16 C-10.54711014 20.5841963 -10.54711014 20.5841963 -9 22 C-6.04182893 22.25005386 -6.04182893 22.25005386 -3 22 C-2.34 21.34 -1.68 20.68 -1 20 C1.125 20.375 1.125 20.375 3 21 C3 24 3 24 1.6875 25.625 C-1.52272365 28.24073779 -4.96783182 28.34054659 -9 28.28125 C-12.24380523 27.82508989 -13.8266525 26.36511346 -16 24 C-18.6003787 19.98123292 -18.12188069 16.01430966 -17.54296875 11.4375 C-16.57269085 7.0817201 -14.22468104 4.36075671 -11.3125 1.125 C-7.57718889 -0.69217838 -4.05820621 -0.72932176 0 0 Z M-7.6875 5.125 C-10.41343113 6.9514172 -10.41343113 6.9514172 -11 11 C-7.37 11 -3.74 11 0 11 C-0.43009352 6.17637852 -0.43009352 6.17637852 -2.75 4.5 C-5.11966098 3.74632938 -5.11966098 3.74632938 -7.6875 5.125 Z " fill="#000000" transform="translate(395,162)"/>
<path d="M0 0 C3.09799981 2.19126816 3.80352112 3.41056336 5 7 C5 9.97 5 12.94 5 16 C-0.94 16 -6.88 16 -13 16 C-12.01 17.98 -11.02 19.96 -10 22 C-5.78121808 22.19622241 -2.82989106 21.80230168 1 20 C1.66 21.32 2.32 22.64 3 24 C-1.88912211 27.91129769 -4.732886 28.696346 -11 28 C-14.86221165 26.32077754 -16.44479298 24.8574567 -18 21 C-18.99769104 14.23670498 -18.28446687 9.18867437 -14.38671875 3.55859375 C-10.34224997 -0.9871613 -5.65695917 -0.7697174 0 0 Z M-6 4 C-9.91603304 6.79420492 -9.91603304 6.79420492 -12 11 C-8.04 11 -4.08 11 0 11 C-0.33 9.35 -0.66 7.7 -1 6 C-3.47636012 4.62533375 -3.47636012 4.62533375 -6 4 Z " fill="#000000" transform="translate(966,162)"/>
<path d="M0 0 C3.09799981 2.19126816 3.80352112 3.41056336 5 7 C5 9.97 5 12.94 5 16 C-0.94 16 -6.88 16 -13 16 C-12.01 17.98 -11.02 19.96 -10 22 C-5.78121808 22.19622241 -2.82989106 21.80230168 1 20 C1.66 21.32 2.32 22.64 3 24 C-1.88912211 27.91129769 -4.732886 28.696346 -11 28 C-14.86401903 26.31999173 -16.4317242 24.85190547 -18 21 C-18.8831003 14.96205844 -18.09225343 10.06424362 -15.265625 4.69140625 C-11.19625167 -0.74698465 -6.37171888 -0.97537128 0 0 Z M-6 4 C-9.91603304 6.79420492 -9.91603304 6.79420492 -12 11 C-8.04 11 -4.08 11 0 11 C-0.33 9.35 -0.66 7.7 -1 6 C-3.47636012 4.62533375 -3.47636012 4.62533375 -6 4 Z " fill="#000000" transform="translate(595,162)"/>
<path d="M0 0 C1.98 0 3.96 0 6 0 C6.99 5.28 7.98 10.56 9 16 C11.64 10.72 14.28 5.44 17 0 C18.98 0 20.96 0 23 0 C22.37413369 4.37798359 20.77607923 7.77101927 18.76171875 11.69140625 C18.43967972 12.31853012 18.11764069 12.94565399 17.7858429 13.59178162 C17.10555019 14.91200415 16.42207019 16.23058863 15.7355957 17.54760742 C14.69162279 19.55457421 13.66266639 21.56874817 12.63476562 23.58398438 C11.96964469 24.8702547 11.30365751 26.15607754 10.63671875 27.44140625 C10.03561279 28.60357666 9.43450684 29.76574707 8.81518555 30.96313477 C7.0939129 33.84288062 5.6143117 35.90848704 3 38 C-0.75 38.25 -0.75 38.25 -4 38 C-4 36.35 -4 34.7 -4 33 C-3.05125 32.7525 -2.1025 32.505 -1.125 32.25 C1.98874943 31.32152915 1.98874943 31.32152915 3.2421875 29.32421875 C4.28006034 26.14105206 3.80321269 23.85561069 3.25 20.5625 C3.05148437 19.33402344 2.85296875 18.10554688 2.6484375 16.83984375 C2.43445313 15.57269531 2.22046875 14.30554688 2 13 C1.62186867 10.54214637 1.24665401 8.08384141 0.875 5.625 C0.58411016 3.74987933 0.29274778 1.87483151 0 0 Z " fill="#000000" transform="translate(673,162)"/>
<path d="M0 0 C3.55680172 2.10504591 4.69468936 3.08406808 6 7 C6.69389791 14.1437359 6.4418779 19.2375638 2 25 C-1.61843714 28.20490147 -5.1580771 28.57025769 -9.84375 28.4296875 C-13.32800607 27.73536111 -14.91092868 25.7419061 -17 23 C-18.97656081 19.04687837 -18.43374973 14.30778842 -18 10 C-14.89255111 1.03187031 -8.85841442 -1.31872836 0 0 Z M-11 8 C-13.03555119 11.68337834 -13.44419857 14.82453347 -13 19 C-12.02896212 21.46186579 -12.02896212 21.46186579 -10 23 C-7.04308291 23.75015195 -7.04308291 23.75015195 -4 23 C-0.73926997 20.268037 0.32662593 17.58137561 1.0625 13.5 C1.3552603 9.6877517 1.13945328 9.18468137 -1.3125 5.9375 C-5.80501155 2.6987126 -7.19385007 4.47931132 -11 8 Z " fill="#000000" transform="translate(868,162)"/>
<path d="M0 0 C2.77186988 -0.10787818 5.53955537 -0.18723327 8.3125 -0.25 C9.09818359 -0.28351563 9.88386719 -0.31703125 10.69335938 -0.3515625 C16.48845138 -0.45020236 16.48845138 -0.45020236 19.01953125 1.77734375 C22.50988717 9.68974423 18.78883301 19.91830803 17 28 C15.35 28 13.7 28 12 28 C12.90349691 15.21647991 12.90349691 15.21647991 13.625 10.8125 C14.26074106 8.05356428 14.26074106 8.05356428 13 6 C10.69 6 8.38 6 6 6 C5.88406494 6.59538574 5.76812988 7.19077148 5.64868164 7.80419922 C5.12296202 10.49506396 4.59278705 13.1850318 4.0625 15.875 C3.88009766 16.81214844 3.69769531 17.74929687 3.50976562 18.71484375 C3.33251953 19.61074219 3.15527344 20.50664062 2.97265625 21.4296875 C2.81031494 22.25710449 2.64797363 23.08452148 2.48071289 23.93701172 C2 26 2 26 1 28 C-0.65 28 -2.3 28 -4 28 C-3.4068511 18.53007103 -1.73572278 9.31177062 0 0 Z " fill="#000000" transform="translate(1060,162)"/>
<path d="M0 0 C2.77186988 -0.10787818 5.53955537 -0.18723327 8.3125 -0.25 C9.09818359 -0.28351563 9.88386719 -0.31703125 10.69335938 -0.3515625 C16.48845138 -0.45020236 16.48845138 -0.45020236 19.01953125 1.77734375 C22.50988717 9.68974423 18.78883301 19.91830803 17 28 C15.35 28 13.7 28 12 28 C12.33 20.74 12.66 13.48 13 6 C10.69 6.33 8.38 6.66 6 7 C5.80664062 7.845625 5.61328125 8.69125 5.4140625 9.5625 C3.99972516 15.7239696 2.56149739 21.87412563 1 28 C-0.65 28 -2.3 28 -4 28 C-3.4068511 18.53007103 -1.73572278 9.31177062 0 0 Z " fill="#000000" transform="translate(510,162)"/>
<path d="M0 0 C2.77186988 -0.10787818 5.53955537 -0.18723327 8.3125 -0.25 C9.09818359 -0.28351563 9.88386719 -0.31703125 10.69335938 -0.3515625 C16.48845138 -0.45020236 16.48845138 -0.45020236 19.01953125 1.77734375 C22.50988717 9.68974423 18.78883301 19.91830803 17 28 C15.35 28 13.7 28 12 28 C12.45659012 22.25862214 12.91506191 16.52888465 13.625 10.8125 C13.74875 9.554375 13.8725 8.29625 14 7 C12.95296435 5.74323161 12.95296435 5.74323161 10.625 5.75 C8.00839925 5.76190763 8.00839925 5.76190763 6.39306641 7.25341797 C4.75506581 9.30709064 4.45179822 10.61038988 4.0859375 13.1953125 C3.96476562 13.99324219 3.84359375 14.79117188 3.71875 15.61328125 C3.54859375 16.85658203 3.54859375 16.85658203 3.375 18.125 C2.10472973 26.89527027 2.10472973 26.89527027 1 28 C-0.66617115 28.04063832 -2.33388095 28.042721 -4 28 C-3.4068511 18.53007103 -1.73572278 9.31177062 0 0 Z " fill="#000000" transform="translate(335,162)"/>
<path d="M0 0 C1.98 0 3.96 0 6 0 C5.7834375 1.50240234 5.7834375 1.50240234 5.5625 3.03515625 C5.37474993 4.37756922 5.18726406 5.72001915 5 7.0625 C4.90460938 7.71927734 4.80921875 8.37605469 4.7109375 9.05273438 C4.11112326 13.40138763 3.90872907 17.61329071 4 22 C7.465 21.505 7.465 21.505 11 21 C12.97116989 16.65485594 13.80813736 12.35111885 14.625 7.6875 C14.7590625 6.94693359 14.893125 6.20636719 15.03125 5.44335938 C15.35886984 3.62974956 15.68008494 1.81498476 16 0 C17.98 0 19.96 0 22 0 C21.3583007 4.10482421 20.71093527 8.20873492 20.0625 12.3125 C19.88009766 13.47974609 19.69769531 14.64699219 19.50976562 15.84960938 C19.33251953 16.96787109 19.15527344 18.08613281 18.97265625 19.23828125 C18.81031494 20.26993408 18.64797363 21.30158691 18.48071289 22.36450195 C18 25 18 25 17 28 C14.33333333 28 11.66666667 28 9 28 C7.865625 28.061875 6.73125 28.12375 5.5625 28.1875 C2 28 2 28 -0.375 27 C-3.17696919 23.55142253 -3.18744117 19.05292705 -2.79492188 14.75390625 C-2.43952968 12.48803556 -2.02015259 10.24736635 -1.5625 8 C-1.41490234 7.22527344 -1.26730469 6.45054687 -1.11523438 5.65234375 C-0.75429222 3.76612989 -0.37868583 1.88273179 0 0 Z " fill="#000000" transform="translate(1304,162)"/>
<path d="M0 0 C0 1.65 0 3.3 0 5 C-1.423125 5.0928125 -1.423125 5.0928125 -2.875 5.1875 C-3.90625 5.455625 -4.9375 5.72375 -6 6 C-7.45291273 8.46255685 -7.45291273 8.46255685 -8 11 C-6.35 11 -4.7 11 -3 11 C-3.33 12.65 -3.66 14.3 -4 16 C-5.65 16 -7.3 16 -9 16 C-9.12846313 16.88522339 -9.12846313 16.88522339 -9.25952148 17.78833008 C-9.64935599 20.46347393 -10.04338014 23.13798429 -10.4375 25.8125 C-10.57220703 26.74126953 -10.70691406 27.67003906 -10.84570312 28.62695312 C-11.04389648 29.9659668 -11.04389648 29.9659668 -11.24609375 31.33203125 C-11.36654053 32.15421143 -11.4869873 32.9763916 -11.61108398 33.82348633 C-12 36 -12 36 -13 39 C-14.65 39 -16.3 39 -18 39 C-18.16898112 33.64189031 -17.56511422 28.80650828 -16.5 23.5625 C-16.28537109 22.46518555 -16.28537109 22.46518555 -16.06640625 21.34570312 C-15.71678704 19.56264514 -15.35922312 17.78114797 -15 16 C-15.99 16 -16.98 16 -18 16 C-18 14.35 -18 12.7 -18 11 C-16.68 11 -15.36 11 -14 11 C-13.7525 9.741875 -13.505 8.48375 -13.25 7.1875 C-12.56751505 4.54637673 -12.11543472 3.1420735 -10.375 1 C-6.83229738 -0.49166426 -3.82694412 -0.19134721 0 0 Z " fill="#000000" transform="translate(898,151)"/>
<path d="M0 0 C1.65 0 3.3 0 5 0 C5.99 5.28 6.98 10.56 8 16 C10.97 10.72 13.94 5.44 17 0 C18.65 0 20.3 0 22 0 C21.02942503 5.94376905 18.38965505 10.8879853 15.75 16.25 C15.27175781 17.26835937 14.79351563 18.28671875 14.30078125 19.3359375 C13.82511719 20.30273438 13.34945313 21.26953125 12.859375 22.265625 C12.21693848 23.59255371 12.21693848 23.59255371 11.56152344 24.94628906 C10 27 10 27 7.32128906 27.79589844 C6.55526367 27.86325195 5.78923828 27.93060547 5 28 C3.34674922 23.39964999 2.25873792 18.79743443 1.375 14 C1.2409375 13.31421875 1.106875 12.6284375 0.96875 11.921875 C0.2155409 7.89451207 -0.14074114 4.09428772 0 0 Z " fill="#000000" transform="translate(1237,162)"/>
<path d="M0 0 C1.65 0 3.3 0 5 0 C6.70899657 5.61527443 7.89430162 11.23457274 9 17 C11.64 11.39 14.28 5.78 17 0 C18.98 0 20.96 0 23 0 C21.74577315 3.98792946 20.28484419 7.66949404 18.3984375 11.3984375 C17.90859375 12.37167969 17.41875 13.34492188 16.9140625 14.34765625 C16.40617188 15.34667969 15.89828125 16.34570312 15.375 17.375 C14.859375 18.39722656 14.34375 19.41945312 13.8125 20.47265625 C12.54528127 22.98362669 11.27435444 25.49264561 10 28 C8.35 28 6.7 28 5 28 C4.16197087 23.8967776 3.33038122 19.79227638 2.5 15.6875 C2.14228516 13.93663086 2.14228516 13.93663086 1.77734375 12.15039062 C1.55175781 11.03212891 1.32617188 9.91386719 1.09375 8.76171875 C0.88427734 7.73006592 0.67480469 6.69841309 0.45898438 5.63549805 C0 3 0 3 0 0 Z " fill="#000000" transform="translate(604,162)"/>
<path d="M0 0 C1.65 0 3.3 0 5 0 C5 1.65 5 3.3 5 5 C6.32 5.33 7.64 5.66 9 6 C8.67 7.65 8.34 9.3 8 11 C6.35 11 4.7 11 3 11 C2.93941406 11.79664063 2.87882813 12.59328125 2.81640625 13.4140625 C1.98418278 23.93848858 1.98418278 23.93848858 1 29 C2.32 29 3.64 29 5 29 C5 30.65 5 32.3 5 34 C1.6875 34.25 1.6875 34.25 -2 34 C-4.23623123 31.83396437 -4.96486437 30.6115499 -5.14453125 27.484375 C-5.03496094 26.58203125 -4.92539062 25.6796875 -4.8125 24.75 C-4.69648437 23.78964844 -4.58046875 22.82929688 -4.4609375 21.83984375 C-3.86050936 18.14059578 -3.02042271 14.60549358 -2 11 C-3.65 11 -5.3 11 -7 11 C-6.67 9.35 -6.34 7.7 -6 6 C-4.35 6 -2.7 6 -1 6 C-0.67 4.02 -0.34 2.04 0 0 Z " fill="#000000" transform="translate(772,156)"/>
<path d="M0 0 C1.98 0 3.96 0 6 0 C5.67 1.98 5.34 3.96 5 6 C6.65 6 8.3 6 10 6 C9.67 7.65 9.34 9.3 9 11 C7.35 11 5.7 11 4 11 C3.34 16.61 2.68 22.22 2 28 C3.32 28.33 4.64 28.66 6 29 C5.505 31.475 5.505 31.475 5 34 C-0.44301121 34.36286741 -0.44301121 34.36286741 -2.71484375 32.8828125 C-4.63033144 30.07653571 -4.10319193 28.01595006 -3.75 24.6875 C-3.64171875 23.57761719 -3.5334375 22.46773437 -3.421875 21.32421875 C-3.02522184 18.19873878 -2.54452114 15.10283169 -2 12 C-3.32 11.67 -4.64 11.34 -6 11 C-5.67 9.35 -5.34 7.7 -5 6 C-3.35 6 -1.7 6 0 6 C0 4.02 0 2.04 0 0 Z " fill="#000000" transform="translate(1183,156)"/>
<path d="M0 0 C1.98 0 3.96 0 6 0 C5.67 1.98 5.34 3.96 5 6 C6.32 6 7.64 6 9 6 C9 7.65 9 9.3 9 11 C7.35 11 5.7 11 4 11 C3.34 16.61 2.68 22.22 2 28 C2.99 28.33 3.98 28.66 5 29 C5 30.65 5 32.3 5 34 C1.625 34.125 1.625 34.125 -2 34 C-4 32 -4 32 -4.265625 30.00390625 C-4.22393268 23.48948153 -3.35586849 17.36773951 -2 11 C-3.32 11 -4.64 11 -6 11 C-6 9.35 -6 7.7 -6 6 C-4.35 6 -2.7 6 -1 6 C-0.67 4.02 -0.34 2.04 0 0 Z " fill="#000000" transform="translate(366,156)"/>
<path d="M0 0 C1.65 0 3.3 0 5 0 C5 1.98 5 3.96 5 6 C6.32 6 7.64 6 9 6 C8.67 7.65 8.34 9.3 8 11 C6.68 11.33 5.36 11.66 4 12 C3.01 17.61 2.02 23.22 1 29 C2.32 29 3.64 29 5 29 C5 30.65 5 32.3 5 34 C1.625 34.125 1.625 34.125 -2 34 C-4 32 -4 32 -4.265625 29.49609375 C-4.23249697 23.01128091 -3.67194914 17.26980928 -2 11 C-3.32 11 -4.64 11 -6 11 C-6 9.35 -6 7.7 -6 6 C-4.35 6 -2.7 6 -1 6 C-0.67 4.02 -0.34 2.04 0 0 Z " fill="#000000" transform="translate(483,156)"/>
<path d="M0 0 C1.98 0 3.96 0 6 0 C4.58890238 10.27091523 3.15148639 20.53492513 1.375 30.75 C1.25213623 31.46986084 1.12927246 32.18972168 1.00268555 32.93139648 C0.12240399 37.87759601 0.12240399 37.87759601 -1 39 C-2.66617115 39.04063832 -4.33388095 39.042721 -6 39 C-4.55481695 25.89827473 -2.34198027 12.9678209 0 0 Z " fill="#000000" transform="translate(1293,151)"/>
<path d="M0 0 C1.98 0 3.96 0 6 0 C5.1669339 5.07253986 4.3306769 10.14453938 3.49145508 15.21606445 C3.20639634 16.94150539 2.92221093 18.66709085 2.63891602 20.39282227 C2.23162541 22.87294386 1.82119955 25.35252921 1.41015625 27.83203125 C1.28407486 28.60400345 1.15799347 29.37597565 1.02809143 30.17134094 C0.52148744 33.21192112 -0.02339965 36.07019894 -1 39 C-2.65 39 -4.3 39 -6 39 C-5.46088439 30.09998899 -4.13288505 21.49761697 -2.4375 12.75 C-2.20353516 11.51636719 -1.96957031 10.28273437 -1.72851562 9.01171875 C-1.15779986 6.00672553 -0.58154983 3.00291185 0 0 Z " fill="#000000" transform="translate(829,151)"/>
<path d="M0 0 C1.2065625 0.0309375 1.2065625 0.0309375 2.4375 0.0625 C1.85716807 7.8206216 0.81125393 15.40730599 -0.5625 23.0625 C-0.74039062 24.08472656 -0.91828125 25.10695312 -1.1015625 26.16015625 C-2.42261905 33.64285714 -2.42261905 33.64285714 -3.5625 37.0625 C-5.2125 37.0625 -6.8625 37.0625 -8.5625 37.0625 C-8.23447943 28.51756426 -7.02218681 20.2278156 -5.5625 11.8125 C-5.38428711 10.77601318 -5.20607422 9.73952637 -5.02246094 8.67163086 C-3.49516817 0.085248 -3.49516817 0.085248 0 0 Z " fill="#000000" transform="translate(326.5625,152.9375)"/>
<path d="M0 0 C4.29 0 8.58 0 13 0 C13 1.65 13 3.3 13 5 C11.88625 5.226875 10.7725 5.45375 9.625 5.6875 C5.93951406 6.56921286 5.93951406 6.56921286 4.875 9.0625 C3.76831053 12.77781466 3.04328158 16.49715773 2.375 20.3125 C2.2409375 21.05306641 2.106875 21.79363281 1.96875 22.55664062 C1.64113016 24.37025044 1.31991506 26.18501524 1 28 C-0.98 28 -2.96 28 -5 28 C-4.3583007 23.89517579 -3.71093527 19.79126508 -3.0625 15.6875 C-2.78889648 13.93663086 -2.78889648 13.93663086 -2.50976562 12.15039062 C-2.33251953 11.03212891 -2.15527344 9.91386719 -1.97265625 8.76171875 C-1.72914429 7.2142395 -1.72914429 7.2142395 -1.48071289 5.63549805 C-1 3 -1 3 0 0 Z " fill="#000000" transform="translate(436,162)"/>
<path d="M0 0 C4.29 0 8.58 0 13 0 C13 1.65 13 3.3 13 5 C11.329375 5.309375 11.329375 5.309375 9.625 5.625 C8.42875 6.07875 7.2325 6.5325 6 7 C4.0796723 11.42742219 3.27213555 16.1513067 2.375 20.875 C2.2409375 21.56335938 2.106875 22.25171875 1.96875 22.9609375 C1.64227777 24.63993755 1.32063447 26.31987536 1 28 C-0.98 28 -2.96 28 -5 28 C-4.3583007 23.89517579 -3.71093527 19.79126508 -3.0625 15.6875 C-2.78889648 13.93663086 -2.78889648 13.93663086 -2.50976562 12.15039062 C-2.33251953 11.03212891 -2.15527344 9.91386719 -1.97265625 8.76171875 C-1.72914429 7.2142395 -1.72914429 7.2142395 -1.48071289 5.63549805 C-1 3 -1 3 0 0 Z " fill="#000000" transform="translate(658,162)"/>
<path d="M0 0 C1.65 0 3.3 0 5 0 C4.4068511 9.46992897 2.73572278 18.68822938 1 28 C-0.98 28 -2.96 28 -5 28 C-4.54997651 24.64466456 -4.088474 21.29100181 -3.625 17.9375 C-3.49867188 16.99455078 -3.37234375 16.05160156 -3.2421875 15.08007812 C-2.51883702 9.89003845 -1.59315069 4.99418108 0 0 Z " fill="#000000" transform="translate(498,162)"/>
<path d="M0 0 C1.98 0 3.96 0 6 0 C5.3583007 4.10482421 4.71093527 8.20873492 4.0625 12.3125 C3.88009766 13.47974609 3.69769531 14.64699219 3.50976562 15.84960938 C3.33251953 16.96787109 3.15527344 18.08613281 2.97265625 19.23828125 C2.81031494 20.26993408 2.64797363 21.30158691 2.48071289 22.36450195 C2 25 2 25 1 28 C-0.65 28 -2.3 28 -4 28 C-3.47703913 18.47850555 -1.8815863 9.32509434 0 0 Z " fill="#000000" transform="translate(1168,162)"/>
<path d="M0 0 C1.65 0 3.3 0 5 0 C4.4068511 9.46992897 2.73572278 18.68822938 1 28 C-0.98 28 -2.96 28 -5 28 C-1.53278689 3.06557377 -1.53278689 3.06557377 0 0 Z " fill="#000000" transform="translate(1048,162)"/>
<path d="M0 0 C1.98 0 3.96 0 6 0 C2.53278689 24.93442623 2.53278689 24.93442623 1 28 C-0.65 28 -2.3 28 -4 28 C-3.4068511 18.53007103 -1.73572278 9.31177062 0 0 Z " fill="#000000" transform="translate(978,162)"/>
<path d="M0 0 C1.98 0 3.96 0 6 0 C5.3583007 4.10482421 4.71093527 8.20873492 4.0625 12.3125 C3.88009766 13.47974609 3.69769531 14.64699219 3.50976562 15.84960938 C3.33251953 16.96787109 3.15527344 18.08613281 2.97265625 19.23828125 C2.81031494 20.26993408 2.64797363 21.30158691 2.48071289 22.36450195 C2 25 2 25 1 28 C-0.65 28 -2.3 28 -4 28 C-3.47703913 18.47850555 -1.8815863 9.32509434 0 0 Z " fill="#000000" transform="translate(814,162)"/>
<path d="M0 0 C0.99 0.33 1.98 0.66 3 1 C3 2.65 3 4.3 3 6 C1.125 6.625 1.125 6.625 -1 7 C-1.66 6.34 -2.32 5.68 -3 5 C-2.75 2.9375 -2.75 2.9375 -2 1 C-1.34 0.67 -0.68 0.34 0 0 Z " fill="#000000" transform="translate(1358,183)"/>
<path d="M0 0 C1.65 0 3.3 0 5 0 C5 1.65 5 3.3 5 5 C3.125 5.625 3.125 5.625 1 6 C0.34 5.34 -0.32 4.68 -1 4 C-0.625 1.875 -0.625 1.875 0 0 Z " fill="#000000" transform="translate(1170,153)"/>
<path d="M0 0 C1.65 0 3.3 0 5 0 C5.33 1.32 5.66 2.64 6 4 C4.125 5.0625 4.125 5.0625 2 6 C1.34 5.67 0.68 5.34 0 5 C0 3.35 0 1.7 0 0 Z " fill="#000000" transform="translate(1049,153)"/>
<path d="M0 0 C1.65 0 3.3 0 5 0 C5 1.65 5 3.3 5 5 C3.125 5.625 3.125 5.625 1 6 C0.34 5.34 -0.32 4.68 -1 4 C-0.625 1.875 -0.625 1.875 0 0 Z " fill="#000000" transform="translate(816,153)"/>
<path d="M0 0 C1.65 0 3.3 0 5 0 C5.33 1.32 5.66 2.64 6 4 C4.125 5.0625 4.125 5.0625 2 6 C1.34 5.67 0.68 5.34 0 5 C0 3.35 0 1.7 0 0 Z " fill="#000000" transform="translate(499,153)"/>
<path d="M0 0 C1.65 0 3.3 0 5 0 C5 1.65 5 3.3 5 5 C3.68 5.33 2.36 5.66 1 6 C-0.0625 4.125 -0.0625 4.125 -1 2 C-0.67 1.34 -0.34 0.68 0 0 Z " fill="#000000" transform="translate(980,153)"/>
</svg>
